<svg width="22" height="22" viewBox="0 0 22 22" fill="none" xmlns="http://www.w3.org/2000/svg">
<path d="M17.4167 0H4.58333C2.05333 0 0 2.05333 0 4.58333V17.4167C0 19.9467 2.05333 22 4.58333 22H17.4167C19.9467 22 22 19.9467 22 17.4167V4.58333C22 2.05333 19.9467 0 17.4167 0ZM20.1667 4.58333V10.0833H11.9167V1.83333H17.4167C18.9292 1.83333 20.1667 3.07083 20.1667 4.58333ZM4.58333 1.83333H10.0833V10.0833H1.83333V4.58333C1.83333 3.07083 3.07083 1.83333 4.58333 1.83333ZM1.83333 17.4167V11.9167H10.0833V20.1667H4.58333C3.07083 20.1667 1.83333 18.9292 1.83333 17.4167ZM17.4167 20.1667H11.9167V11.9167H20.1667V17.4167C20.1667 18.9292 18.9292 20.1667 17.4167 20.1667Z" fill="black"/>
</svg>
