<svg width="22" height="22" viewBox="0 0 22 22" fill="none" xmlns="http://www.w3.org/2000/svg">
<path d="M10.0833 12.8333C10.0833 13.3403 9.67267 13.75 9.16667 13.75H8.25C7.744 13.75 7.33333 13.3403 7.33333 12.8333C7.33333 12.3264 7.744 11.9167 8.25 11.9167H9.16667C9.67267 11.9167 10.0833 12.3264 10.0833 12.8333ZM13.75 11.9167H12.8333C12.3273 11.9167 11.9167 12.3264 11.9167 12.8333C11.9167 13.3403 12.3273 13.75 12.8333 13.75H13.75C14.256 13.75 14.6667 13.3403 14.6667 12.8333C14.6667 12.3264 14.256 11.9167 13.75 11.9167ZM9.16667 15.5833H8.25C7.744 15.5833 7.33333 15.9931 7.33333 16.5C7.33333 17.0069 7.744 17.4167 8.25 17.4167H9.16667C9.67267 17.4167 10.0833 17.0069 10.0833 16.5C10.0833 15.9931 9.67267 15.5833 9.16667 15.5833ZM13.75 15.5833H12.8333C12.3273 15.5833 11.9167 15.9931 11.9167 16.5C11.9167 17.0069 12.3273 17.4167 12.8333 17.4167H13.75C14.256 17.4167 14.6667 17.0069 14.6667 16.5C14.6667 15.9931 14.256 15.5833 13.75 15.5833ZM9.16667 4.58333H8.25C7.744 4.58333 7.33333 4.99308 7.33333 5.5C7.33333 6.00692 7.744 6.41667 8.25 6.41667H9.16667C9.67267 6.41667 10.0833 6.00692 10.0833 5.5C10.0833 4.99308 9.67267 4.58333 9.16667 4.58333ZM13.75 4.58333H12.8333C12.3273 4.58333 11.9167 4.99308 11.9167 5.5C11.9167 6.00692 12.3273 6.41667 12.8333 6.41667H13.75C14.256 6.41667 14.6667 6.00692 14.6667 5.5C14.6667 4.99308 14.256 4.58333 13.75 4.58333ZM9.16667 8.25H8.25C7.744 8.25 7.33333 8.65975 7.33333 9.16667C7.33333 9.67358 7.744 10.0833 8.25 10.0833H9.16667C9.67267 10.0833 10.0833 9.67358 10.0833 9.16667C10.0833 8.65975 9.67267 8.25 9.16667 8.25ZM13.75 8.25H12.8333C12.3273 8.25 11.9167 8.65975 11.9167 9.16667C11.9167 9.67358 12.3273 10.0833 12.8333 10.0833H13.75C14.256 10.0833 14.6667 9.67358 14.6667 9.16667C14.6667 8.65975 14.256 8.25 13.75 8.25ZM22 9.16667V17.4167C22 19.9439 19.9439 22 17.4167 22H4.58333C2.05608 22 0 19.9439 0 17.4167V12.8333C0 10.6196 1.57758 8.76792 3.66667 8.34258V4.58333C3.66667 2.05608 5.72275 0 8.25 0H13.75C16.2773 0 18.3333 2.05608 18.3333 4.58333V4.67592C20.4224 5.10217 22 6.95292 22 9.16667ZM20.1667 9.16667C20.1667 7.6505 18.9328 6.41667 17.4167 6.41667C16.9107 6.41667 16.5 6.00692 16.5 5.5V4.58333C16.5 3.06717 15.2662 1.83333 13.75 1.83333H8.25C6.73383 1.83333 5.5 3.06717 5.5 4.58333V9.16667C5.5 9.67358 5.08933 10.0833 4.58333 10.0833C3.06717 10.0833 1.83333 11.3172 1.83333 12.8333V17.4167C1.83333 18.9328 3.06717 20.1667 4.58333 20.1667H17.4167C18.9328 20.1667 20.1667 18.9328 20.1667 17.4167V9.16667ZM17.4167 11.9167H16.5C15.994 11.9167 15.5833 12.3264 15.5833 12.8333C15.5833 13.3403 15.994 13.75 16.5 13.75H17.4167C17.9227 13.75 18.3333 13.3403 18.3333 12.8333C18.3333 12.3264 17.9227 11.9167 17.4167 11.9167ZM17.4167 15.5833H16.5C15.994 15.5833 15.5833 15.9931 15.5833 16.5C15.5833 17.0069 15.994 17.4167 16.5 17.4167H17.4167C17.9227 17.4167 18.3333 17.0069 18.3333 16.5C18.3333 15.9931 17.9227 15.5833 17.4167 15.5833ZM5.5 11.9167H4.58333C4.07733 11.9167 3.66667 12.3264 3.66667 12.8333C3.66667 13.3403 4.07733 13.75 4.58333 13.75H5.5C6.006 13.75 6.41667 13.3403 6.41667 12.8333C6.41667 12.3264 6.006 11.9167 5.5 11.9167ZM5.5 15.5833H4.58333C4.07733 15.5833 3.66667 15.9931 3.66667 16.5C3.66667 17.0069 4.07733 17.4167 4.58333 17.4167H5.5C6.006 17.4167 6.41667 17.0069 6.41667 16.5C6.41667 15.9931 6.006 15.5833 5.5 15.5833ZM17.4167 8.25H16.5C15.994 8.25 15.5833 8.65975 15.5833 9.16667C15.5833 9.67358 15.994 10.0833 16.5 10.0833H17.4167C17.9227 10.0833 18.3333 9.67358 18.3333 9.16667C18.3333 8.65975 17.9227 8.25 17.4167 8.25Z" fill="currentColor"/>
</svg>
