<svg width="22" height="22" viewBox="0 0 22 22" fill="none" xmlns="http://www.w3.org/2000/svg">
<path d="M22 18.0877C22.0005 16.9317 21.8014 15.7843 21.4115 14.696L20.0888 10.9918C19.8981 10.4578 19.547 9.99582 19.0836 9.6691C18.6201 9.34239 18.0671 9.1669 17.5001 9.16667H12.7499C12.1829 9.1669 11.6299 9.34239 11.1664 9.6691C10.703 9.99582 10.352 10.4578 10.1613 10.9918L8.8385 14.696C8.44861 15.7843 8.24952 16.9317 8.25 18.0877V20.1667H10.0833V22H12.8333V20.1667H17.4167V22H20.1667V20.1667H22V18.0877ZM12.7499 11H17.5001C17.6891 11.0002 17.8734 11.0587 18.0278 11.1677C18.1822 11.2766 18.2992 11.4307 18.3627 11.6087L19.1281 13.75H11.1219L11.8873 11.6087C11.9508 11.4307 12.0678 11.2766 12.2222 11.1677C12.3766 11.0587 12.5609 11.0002 12.7499 11ZM20.1667 18.3333H10.0833V18.0877C10.083 17.2378 10.2144 16.393 10.4729 15.5833H11.9167V16.5C11.9167 16.7431 12.0132 16.9763 12.1852 17.1482C12.3571 17.3201 12.5902 17.4167 12.8333 17.4167C13.0764 17.4167 13.3096 17.3201 13.4815 17.1482C13.6534 16.9763 13.75 16.7431 13.75 16.5V15.5833H16.5V16.5C16.5 16.7431 16.5966 16.9763 16.7685 17.1482C16.9404 17.3201 17.1736 17.4167 17.4167 17.4167C17.6598 17.4167 17.8929 17.3201 18.0648 17.1482C18.2368 16.9763 18.3333 16.7431 18.3333 16.5V15.5833H19.7771C20.0356 16.393 20.167 17.2378 20.1667 18.0877V18.3333ZM11.9167 1.83333H2.75C2.50688 1.83333 2.27373 1.92991 2.10182 2.10182C1.92991 2.27373 1.83333 2.50688 1.83333 2.75V22H0V2.75C0 2.02065 0.289731 1.32118 0.805456 0.805456C1.32118 0.289731 2.02065 0 2.75 0L11.9167 0C12.646 0 13.3455 0.289731 13.8612 0.805456C14.3769 1.32118 14.6667 2.02065 14.6667 2.75V7.33333H12.8333V2.75C12.8333 2.50688 12.7368 2.27373 12.5648 2.10182C12.3929 1.92991 12.1598 1.83333 11.9167 1.83333ZM3.66667 3.66667H6.41667V6.41667H3.66667V3.66667ZM3.66667 8.25H6.41667V11H3.66667V8.25ZM3.66667 12.8333H6.41667V15.5833H3.66667V12.8333ZM3.66667 17.4167H6.41667V20.1667H3.66667V17.4167ZM8.25 6.41667V3.66667H11V6.41667H8.25Z" fill="black"/>
</svg>
