<svg width="23" height="22" viewBox="0 0 23 22" fill="none" xmlns="http://www.w3.org/2000/svg">
<path d="M22.038 8.03543L18.9818 3.45118C18.6858 3.0066 18.2687 2.65918 17.7773 2.44835L12.5826 0.221764C11.8942 -0.0724862 11.1049 -0.0734029 10.4165 0.221764L5.22267 2.44835C4.73042 2.65918 4.31425 3.00568 4.01817 3.45026L0.962 8.03452C0.6595 8.48827 0.5 9.01535 0.5 9.56077V21.9999H22.5V9.56077C22.5 9.01535 22.3405 8.48827 22.038 8.03543ZM12.9474 16.5833L16.0833 14.0176V19.1491L12.9474 16.5833ZM14.4315 20.1666H8.56758L11.5 17.7677L14.4324 20.1666H14.4315ZM11.4991 15.399L8.36317 12.8333H14.635L11.4991 15.399ZM6.91575 14.0176L10.0517 16.5833L6.91575 19.1491V14.0176ZM20.6658 20.1666H17.9158V13.7499C17.9158 12.2338 16.6819 10.9999 15.1657 10.9999H7.83333C6.31717 10.9999 5.08333 12.2338 5.08333 13.7499V20.1666H2.33333V9.56077C2.33333 9.37926 2.3865 9.20327 2.48733 9.05202L5.54442 4.46685C5.6425 4.31835 5.78183 4.20285 5.94592 4.13318L11.1398 1.90751C11.3698 1.80943 11.6329 1.80943 11.8621 1.90751L17.0559 4.13318C17.22 4.20376 17.3584 4.31926 17.4574 4.46776L20.5136 9.05293C20.6144 9.20418 20.6676 9.37926 20.6676 9.56077V20.1666H20.6658ZM11.5 3.6666C9.98383 3.6666 8.75 4.90043 8.75 6.4166C8.75 7.93276 9.98383 9.1666 11.5 9.1666C13.0162 9.1666 14.25 7.93276 14.25 6.4166C14.25 4.90043 13.0162 3.6666 11.5 3.6666ZM11.5 7.33326C10.9949 7.33326 10.5833 6.92168 10.5833 6.4166C10.5833 5.91151 10.9949 5.49993 11.5 5.49993C12.0051 5.49993 12.4167 5.91151 12.4167 6.4166C12.4167 6.92168 12.0051 7.33326 11.5 7.33326Z" fill="#57585A"/>
</svg>
