<svg width="17" height="22" viewBox="0 0 17 22" fill="none" xmlns="http://www.w3.org/2000/svg">
<path d="M12.1667 0H4.83333C2.30608 0 0.25 2.05608 0.25 4.58333V17.4167C0.25 19.9439 2.30608 22 4.83333 22H6.66667C7.17267 22 7.58333 21.5893 7.58333 21.0833V16.5H9.41667V21.0833C9.41667 21.5893 9.82733 22 10.3333 22H12.1667C14.6939 22 16.75 19.9439 16.75 17.4167V4.58333C16.75 2.05608 14.6939 0 12.1667 0ZM14.9167 17.4167C14.9167 18.9328 13.6828 20.1667 12.1667 20.1667H11.25V16.5H12.1667C12.6727 16.5 13.0833 16.0893 13.0833 15.5833C13.0833 15.0773 12.6727 14.6667 12.1667 14.6667H4.83333C4.32733 14.6667 3.91667 15.0773 3.91667 15.5833C3.91667 16.0893 4.32733 16.5 4.83333 16.5H5.75V20.1667H4.83333C3.31717 20.1667 2.08333 18.9328 2.08333 17.4167V4.58333C2.08333 3.06717 3.31717 1.83333 4.83333 1.83333H12.1667C13.6828 1.83333 14.9167 3.06717 14.9167 4.58333V17.4167ZM7.58333 11.9167C7.58333 12.4227 7.17267 12.8333 6.66667 12.8333H5.75C5.244 12.8333 4.83333 12.4227 4.83333 11.9167C4.83333 11.4107 5.244 11 5.75 11H6.66667C7.17267 11 7.58333 11.4107 7.58333 11.9167ZM12.1667 11.9167C12.1667 12.4227 11.756 12.8333 11.25 12.8333H10.3333C9.82733 12.8333 9.41667 12.4227 9.41667 11.9167C9.41667 11.4107 9.82733 11 10.3333 11H11.25C11.756 11 12.1667 11.4107 12.1667 11.9167ZM7.58333 4.58333C7.58333 5.08933 7.17267 5.5 6.66667 5.5H5.75C5.244 5.5 4.83333 5.08933 4.83333 4.58333C4.83333 4.07733 5.244 3.66667 5.75 3.66667H6.66667C7.17267 3.66667 7.58333 4.07733 7.58333 4.58333ZM12.1667 4.58333C12.1667 5.08933 11.756 5.5 11.25 5.5H10.3333C9.82733 5.5 9.41667 5.08933 9.41667 4.58333C9.41667 4.07733 9.82733 3.66667 10.3333 3.66667H11.25C11.756 3.66667 12.1667 4.07733 12.1667 4.58333ZM7.58333 8.25C7.58333 8.756 7.17267 9.16667 6.66667 9.16667H5.75C5.244 9.16667 4.83333 8.756 4.83333 8.25C4.83333 7.744 5.244 7.33333 5.75 7.33333H6.66667C7.17267 7.33333 7.58333 7.744 7.58333 8.25ZM12.1667 8.25C12.1667 8.756 11.756 9.16667 11.25 9.16667H10.3333C9.82733 9.16667 9.41667 8.756 9.41667 8.25C9.41667 7.744 9.82733 7.33333 10.3333 7.33333H11.25C11.756 7.33333 12.1667 7.744 12.1667 8.25Z" fill="black"/>
</svg>
