<svg width="23" height="22" viewBox="0 0 23 22" fill="none" xmlns="http://www.w3.org/2000/svg">
<path d="M13.3333 11.9167H15.1667V13.75H13.3333V11.9167ZM17 13.75H18.8333V11.9167H17V13.75ZM13.3333 17.4167H15.1667V15.5833H13.3333V17.4167ZM17 17.4167H18.8333V15.5833H17V17.4167ZM13.3333 6.41667H15.1667V4.58333H13.3333V6.41667ZM17 6.41667H18.8333V4.58333H17V6.41667ZM13.3333 10.0833H15.1667V8.25H13.3333V10.0833ZM17 10.0833H18.8333V8.25H17V10.0833ZM22.5 2.75V22H0.5V8.09325C0.5 7.359 0.786 6.66783 1.30575 6.14808L3.78717 3.66667C4.96875 2.48417 7.03125 2.48417 8.21283 3.66667L9.66667 5.1205V2.75C9.66667 1.23383 10.9005 0 12.4167 0H19.75C21.2662 0 22.5 1.23383 22.5 2.75ZM9.66667 8.09325C9.66667 7.8485 9.57133 7.6175 9.39808 7.44425L6.91667 4.96283C6.4345 4.48067 5.5655 4.48067 5.08333 4.96283L2.60192 7.44425C2.42867 7.6175 2.33333 7.84758 2.33333 8.09325V20.1667H9.66667V8.09325ZM20.6667 2.75C20.6667 2.24492 20.2551 1.83333 19.75 1.83333H12.4167C11.9116 1.83333 11.5 2.24492 11.5 2.75V20.1667H20.6667V2.75ZM5.08333 13.75H6.91667V11.9167H5.08333V13.75ZM5.08333 10.0833H6.91667V8.25H5.08333V10.0833ZM5.08333 17.4167H6.91667V15.5833H5.08333V17.4167Z" fill="black"/>
</svg>
