<svg width="23" height="22" viewBox="0 0 23 22" fill="none" xmlns="http://www.w3.org/2000/svg">
<path d="M11.3735 11.9167C11.0701 12.4923 10.8492 13.1083 10.7199 13.75H8.75V11.9167H11.3735ZM8.75 15.5833V17.4167H10.9903C10.7786 16.8272 10.6493 16.2131 10.6062 15.5833H8.75ZM2.33333 20.1667V2.75C2.33333 2.24492 2.74492 1.83333 3.25 1.83333H12.4167C12.9218 1.83333 13.3333 2.24492 13.3333 2.75V9.62775C13.8953 9.20425 14.5113 8.87333 15.1667 8.64233V2.75C15.1667 1.23383 13.9328 0 12.4167 0H3.25C1.73383 0 0.5 1.23383 0.5 2.75V22H14.7707L12.7952 20.1667H2.33333ZM6.91667 11.9167H4.16667V13.75H6.91667V11.9167ZM4.16667 17.4167H6.91667V15.5833H4.16667V17.4167ZM6.91667 4.58333H4.16667V6.41667H6.91667V4.58333ZM11.5 4.58333H8.75V6.41667H11.5V4.58333ZM11.5 8.25H8.75V10.0833H11.5V8.25ZM6.91667 8.25H4.16667V10.0833H6.91667V8.25ZM17.4583 13.75C16.6993 13.75 16.0833 14.366 16.0833 15.125C16.0833 15.884 16.6993 16.5 17.4583 16.5C18.2173 16.5 18.8333 15.884 18.8333 15.125C18.8333 14.366 18.2173 13.75 17.4583 13.75ZM22.5 15.1195C22.5 16.467 21.9757 17.7329 21.0233 18.6853L17.4583 21.9936L13.9283 18.7174C12.9447 17.7366 12.4167 16.467 12.4167 15.1195C12.4167 13.772 12.941 12.5061 13.8934 11.5537C14.8458 10.6022 16.1118 10.0778 17.4583 10.0778C18.8049 10.0778 20.0708 10.6022 21.0233 11.5546C21.9757 12.507 22.5 13.772 22.5 15.1195ZM20.6667 15.1195C20.6667 14.2624 20.333 13.4567 19.7271 12.8507C19.1212 12.2439 18.3154 11.9112 17.4583 11.9112C16.6012 11.9112 15.7964 12.2448 15.1896 12.8507C14.5828 13.4567 14.25 14.2624 14.25 15.1195C14.25 15.9766 14.5873 16.7851 15.1997 17.3965L17.4583 19.492L19.7509 17.3644C20.3321 16.7823 20.6667 15.9766 20.6667 15.1195Z" fill="black"/>
</svg>
