<svg width="22" height="22" viewBox="0 0 22 22" fill="none" xmlns="http://www.w3.org/2000/svg">
<path d="M19.25 0H11C9.67633 0 8.569 0.939583 8.30867 2.18717C7.87508 1.96808 7.39292 1.83333 6.875 1.83333C5.10583 1.83333 3.66667 3.2725 3.66667 5.04167C3.66667 5.53575 3.78858 5.99867 3.98842 6.41667H1.83333V0H0V22H1.83333V19.25H20.1667V22H22V2.75C22 1.23383 20.7662 0 19.25 0ZM6.875 3.66667C7.63308 3.66667 8.25 4.28358 8.25 5.04167C8.25 5.79975 7.63308 6.41667 6.875 6.41667C6.11692 6.41667 5.5 5.79975 5.5 5.04167C5.5 4.28358 6.11692 3.66667 6.875 3.66667ZM6.875 17.4167C6.11692 17.4167 5.5 16.7998 5.5 16.0417C5.5 15.2836 6.11692 14.6667 6.875 14.6667C7.63308 14.6667 8.25 15.2836 8.25 16.0417C8.25 16.7998 7.63308 17.4167 6.875 17.4167ZM20.1667 17.4167H10.0833V13.75C10.0833 13.2449 10.4949 12.8333 11 12.8333H20.1667V17.4167ZM20.1667 11H11C9.67633 11 8.569 11.9396 8.30867 13.1872C7.87508 12.9681 7.39292 12.8333 6.875 12.8333C5.10583 12.8333 3.66667 14.2725 3.66667 16.0417C3.66667 16.5357 3.78858 16.9987 3.98842 17.4167H1.83333V8.25H20.1667V11ZM20.1667 6.41667H10.0833V2.75C10.0833 2.24492 10.4949 1.83333 11 1.83333H19.25C19.7551 1.83333 20.1667 2.24492 20.1667 2.75V6.41667Z" fill="black"/>
</svg>
