<svg width="22" height="22" viewBox="0 0 22 22" fill="none" xmlns="http://www.w3.org/2000/svg">
<path d="M13.6116 11.6847L8.61758 7.77608C7.86225 7.18392 6.80533 7.18392 6.05 7.77608L1.05508 11.6838C0.385 12.2091 0 12.9993 0 13.8499V22H14.6667V13.8499C14.6667 12.9983 14.2817 12.2091 13.6116 11.6847ZM12.8333 20.1667H1.83333V13.8499C1.83333 13.5658 1.96167 13.3027 2.18533 13.1276L7.17933 9.21892C7.27008 9.14925 7.39658 9.14925 7.48733 9.21892L12.4813 13.1285C12.705 13.3027 12.8333 13.5667 12.8333 13.8499V20.1667ZM5.5 13.75H9.16667V17.4167H5.5V13.75ZM20.1667 0V1.83333H18.3333V0H16.5V1.83333H14.6667V0H12.8333V1.83333H11V0H9.16667V5.04167C9.16667 6.149 9.955 7.07392 11 7.2875V7.31317L12.8333 8.74775V7.33333H18.3333V20.1667H16.5V22H20.1667V7.2875C21.2117 7.07483 22 6.149 22 5.04167V0H20.1667ZM20.1667 5.04167C20.1667 5.29375 19.9613 5.5 19.7083 5.5H11.4583C11.2053 5.5 11 5.29375 11 5.04167V3.66667H20.1667V5.04167Z" fill="black"/>
</svg>
