<svg width="22" height="18" viewBox="0 0 22 18" fill="none" xmlns="http://www.w3.org/2000/svg">
<path d="M0.730406 8.30347L10.6304 0.203513C10.8985 -0.0170003 11.2711 -0.0619719 11.5862 0.0865273C11.8994 0.235912 12.1 0.552739 12.1 0.900109V7.10109L20.5303 0.203513C20.7994 -0.0170003 21.1711 -0.0619719 21.4861 0.0865273C21.7993 0.235912 22 0.552739 22 0.900109V17.1C22 17.4474 21.7993 17.7642 21.4861 17.9136C21.3628 17.9712 21.2305 18 21.1 18C20.8957 18 20.6941 17.9307 20.5303 17.7966L12.1001 10.899V17.1C12.1001 17.4474 11.8994 17.7642 11.5862 17.9136C11.4629 17.9712 11.3306 18 11.2001 18C10.9958 18 10.7942 17.9307 10.6304 17.7966L0.730448 9.69666C0.521662 9.52567 0.400164 9.27006 0.400164 9.00006C0.400164 8.73007 0.521622 8.47449 0.730406 8.30347Z" fill="#979592"/>
</svg>
