<svg width="22" height="18" viewBox="0 0 22 18" fill="none" xmlns="http://www.w3.org/2000/svg">
<path d="M21.2696 8.30347L11.3696 0.203513C11.1015 -0.0170003 10.7289 -0.0619719 10.4138 0.0865273C10.1006 0.235912 9.89996 0.552739 9.89996 0.900109V7.10109L1.46968 0.203513C1.20057 -0.0170003 0.828895 -0.0619719 0.513883 0.0865273C0.200685 0.235912 0 0.552739 0 0.900109V17.1C0 17.4474 0.200685 17.7642 0.513883 17.9136C0.637196 17.9712 0.769496 18 0.899981 18C1.10429 18 1.30586 17.9307 1.46968 17.7966L9.89992 10.899V17.1C9.89992 17.4474 10.1006 17.7642 10.4138 17.9136C10.5371 17.9712 10.6694 18 10.7999 18C11.0042 18 11.2058 17.9307 11.3696 17.7966L21.2696 9.69666C21.4783 9.52567 21.5998 9.27006 21.5998 9.00006C21.5998 8.73007 21.4784 8.47449 21.2696 8.30347Z" fill="black"/>
</svg>
