<svg width="24" height="24" viewBox="0 0 24 24" fill="none" xmlns="http://www.w3.org/2000/svg">
<g clip-path="url(#clip0_1002_327)">
<path d="M20.9763 2.84229H3.02367C1.35637 2.84229 0 4.19871 0 5.86596V12.6692C0 14.3365 1.35637 15.6929 3.02367 15.6929H20.9764C22.6436 15.6929 24 14.3365 24 12.6692V5.86596C24 4.19871 22.6436 2.84229 20.9763 2.84229ZM18.6614 14.2755H5.33864V14.0628C5.33864 13.1901 6.04852 12.4802 6.92119 12.4802H17.0788C17.9514 12.4802 18.6613 13.1902 18.6613 14.0628V14.2755H18.6614ZM22.5826 12.6692C22.5826 13.555 21.8621 14.2755 20.9763 14.2755H20.0787V14.0628C20.0787 12.4086 18.7329 11.0628 17.0788 11.0628H6.92119C5.26702 11.0628 3.92128 12.4086 3.92128 14.0628V14.2755H3.02362C2.13787 14.2755 1.41731 13.555 1.41731 12.6692V5.86596C1.41731 4.98021 2.13787 4.25964 3.02362 4.25964H20.9763C21.8621 4.25964 22.5826 4.98021 22.5826 5.86596V12.6692Z" fill="black"/>
<path d="M20.1261 5.53522H19.2223C18.831 5.53522 18.5137 5.85251 18.5137 6.24387C18.5137 6.63523 18.831 6.95253 19.2223 6.95253H20.1261C20.5175 6.95253 20.8348 6.63523 20.8348 6.24387C20.8348 5.85251 20.5175 5.53522 20.1261 5.53522Z" fill="black"/>
<path d="M16.7238 5.53522H15.82C15.4286 5.53522 15.1113 5.85251 15.1113 6.24387C15.1113 6.63523 15.4286 6.95253 15.82 6.95253H16.7238C17.1151 6.95253 17.4324 6.63523 17.4324 6.24387C17.4324 5.85251 17.1151 5.53522 16.7238 5.53522Z" fill="black"/>
<path d="M11.9997 16.4086C11.6083 16.4086 11.291 16.7259 11.291 17.1172V20.449C11.291 20.8404 11.6083 21.1577 11.9997 21.1577C12.391 21.1577 12.7083 20.8404 12.7083 20.449V17.1172C12.7083 16.7259 12.391 16.4086 11.9997 16.4086Z" fill="black"/>
<path d="M16.1104 19.7404C15.4525 19.7404 14.9173 19.2051 14.9173 18.5473V17.1172C14.9173 16.7259 14.6 16.4086 14.2087 16.4086C13.8173 16.4086 13.5 16.7259 13.5 17.1172V18.5473C13.5 19.9867 14.671 21.1577 16.1104 21.1577C16.5018 21.1577 16.8191 20.8404 16.8191 20.4491C16.819 20.0576 16.5017 19.7404 16.1104 19.7404Z" fill="black"/>
<path d="M9.79202 16.4086C9.40066 16.4086 9.08336 16.7259 9.08336 17.1172V18.5473C9.08336 19.2052 8.54819 19.7404 7.8903 19.7404C7.49894 19.7404 7.18164 20.0576 7.18164 20.449C7.18164 20.8404 7.49894 21.1577 7.8903 21.1577C9.32969 21.1577 10.5007 19.9866 10.5007 18.5472V17.1172C10.5007 16.7259 10.1834 16.4086 9.79202 16.4086Z" fill="black"/>
</g>
<defs>
<clipPath id="clip0_1002_327">
<rect width="24" height="24" fill="white"/>
</clipPath>
</defs>
</svg>
