<svg width="24" height="24" viewBox="0 0 24 24" fill="none" xmlns="http://www.w3.org/2000/svg">
<path d="M20.0176 19.287L18.5686 19.5705L16.7086 14.4427C16.5968 14.1353 16.3043 13.9298 15.9773 13.9298H10.9103V10.143H13.4723C13.9021 10.143 14.2501 9.795 14.2501 9.36525C14.2501 8.9355 13.9021 8.5875 13.4723 8.5875H10.9103V7.149C12.1396 6.81 13.0493 5.7045 13.0493 4.383C13.0493 2.79375 11.7406 1.5 10.1326 1.5C8.52457 1.5 7.21582 2.79375 7.21582 4.383C7.21582 5.7045 8.12557 6.81 9.35482 7.149V14.7075C9.35482 15.1373 9.70282 15.4852 10.1326 15.4852H15.4321L17.3333 20.7262C17.4473 21.0382 17.7428 21.2393 18.0638 21.2393C18.1141 21.2393 20.3161 20.814 20.3161 20.814C20.7376 20.7323 21.0128 20.3235 20.9303 19.902C20.8471 19.479 20.4376 19.203 20.0176 19.287ZM10.1326 3.0555C10.8833 3.0555 11.4938 3.651 11.4938 4.383C11.4938 5.115 10.8833 5.7105 10.1326 5.7105C9.38182 5.7105 8.77132 5.115 8.77132 4.383C8.77132 3.651 9.38182 3.0555 10.1326 3.0555Z" fill="black"/>
<path d="M10.1364 20.8875C7.12966 20.8875 4.68541 18.4852 4.68541 15.5272C4.68541 13.4392 5.90791 11.6257 7.69216 10.755V8.99774C4.98691 9.97274 3.05566 12.5287 3.05566 15.5272C3.05566 19.3725 6.23341 22.5 10.1364 22.5C12.2064 22.5 14.0799 21.6135 15.3759 20.2027L14.7242 18.405C13.7627 19.896 12.0594 20.8875 10.1364 20.8875Z" fill="black"/>
</svg>
