<svg width="24" height="24" viewBox="0 0 24 24" fill="none" xmlns="http://www.w3.org/2000/svg">
<g clip-path="url(#clip0_1002_351)">
<path d="M23.027 14.9189H21.7297H18.8108V8.1081C18.8108 4.35262 15.7555 1.2973 12 1.2973C8.24447 1.2973 5.1892 4.35262 5.1892 8.1081V14.9189H2.2703H0.972984C0.435656 14.9189 0 15.3546 0 15.8919C0 16.4292 0.435656 16.8649 0.972984 16.8649H1.29731V21.7297C1.29731 22.2671 1.73297 22.7027 2.2703 22.7027H21.7297C22.2671 22.7027 22.7027 22.2671 22.7027 21.7297V16.8649H23.0271C23.5644 16.8649 24 16.4292 24 15.8919C24 15.3546 23.5644 14.9189 23.027 14.9189ZM5.1892 20.7568H3.24323V16.8649H5.18916L5.1892 20.7568ZM11.027 3.3411V8.1081H7.13513C7.13513 5.75877 8.80917 3.79316 11.027 3.3411ZM7.13513 10.054H11.027V14.9189H7.13513V10.054ZM9.08109 20.7568H7.13517V16.8649H9.08109V20.7568ZM12.973 20.7568H11.027V16.8649H12.973V20.7568ZM16.8649 20.7568H14.9189V16.8649H16.8649V20.7568ZM16.8649 14.9189H12.973V10.054H16.8649V14.9189ZM12.973 8.1081V3.3411C15.1908 3.79316 16.8649 5.75872 16.8649 8.1081H12.973ZM20.7568 20.7568H18.8108V16.8649H20.7568V20.7568Z" fill="black"/>
</g>
<defs>
<clipPath id="clip0_1002_351">
<rect width="24" height="24" fill="white"/>
</clipPath>
</defs>
</svg>
