<svg width="24" height="24" viewBox="0 0 24 24" fill="none" xmlns="http://www.w3.org/2000/svg">
<g clip-path="url(#clip0_1002_880)">
<path d="M22.8572 12.0002H21.1429C21.1429 10.1062 17.049 8.5716 11.9998 8.5716C6.95073 8.5716 2.85681 10.1062 2.85681 12.0002H1.14273C0.826889 12.0002 0.571289 12.2556 0.571289 12.5717C0.571289 12.8873 0.826889 13.1431 1.14273 13.1431H2.92809C3.27681 15.9398 4.88865 18.3437 7.17465 19.7671L4.68513 23.0863C4.49649 23.3388 4.54785 23.6969 4.80009 23.886C5.04849 24.0722 5.40777 24.0281 5.60025 23.7715L8.19273 20.3148C10.6112 21.4241 13.4089 21.4145 15.807 20.3148L18.3995 23.7715C18.6003 24.0391 18.9627 24.0638 19.1999 23.886C19.4521 23.6969 19.5032 23.3388 19.3148 23.0863L16.8253 19.7671C19.1113 18.3437 20.7231 15.9401 21.0719 13.1431H22.857C23.1728 13.1431 23.4284 12.8875 23.4284 12.5717C23.4286 12.2556 23.1733 12.0002 22.8572 12.0002ZM17.1431 10.351C18.2975 10.6766 19.1125 11.0772 19.569 11.4288H17.1431V10.351ZM17.1431 12.5717H19.569C19.1125 12.923 18.2972 13.3238 17.1431 13.6493V12.5717ZM14.857 9.89232C15.2612 9.94512 15.6421 10.008 16.0002 10.079V11.4288H14.857V9.89232ZM14.857 12.5717H16.0002V13.9214C15.6423 13.9922 15.2612 14.0551 14.857 14.1079V12.5717ZM12.5715 9.72144C12.9675 9.73056 13.3486 9.74928 13.7144 9.7764V11.4288H12.5715V9.72144ZM12.5715 12.5717H13.7144V14.2241C13.3489 14.251 12.9678 14.2697 12.5715 14.279V12.5717ZM10.2858 9.7764C10.6515 9.74928 11.0326 9.73056 11.4286 9.72144V11.4288H10.2858V9.7764ZM10.2858 12.5717H11.4286V14.279C11.0326 14.2697 10.6515 14.251 10.2858 14.2241V12.5717ZM8.00001 10.079C8.35809 10.0082 8.73897 9.94512 9.14289 9.89232V11.4286H8.00001V10.079ZM8.00001 12.5717H9.14289V14.1079C8.73897 14.0549 8.35785 13.9922 8.00001 13.9214V12.5717ZM6.85713 10.351V11.4288H4.43121C4.88793 11.0772 5.70297 10.6766 6.85713 10.351ZM6.85713 12.5717V13.6493C5.70273 13.3238 4.88769 12.923 4.43121 12.5717H6.85713ZM12.0001 20.0002C8.20449 20.0002 5.01729 17.3431 4.20273 13.7914C7.73409 15.9487 16.1818 16.0001 19.7977 13.7914C18.9829 17.3431 15.7954 20.0002 12.0001 20.0002ZM7.43313 5.5644C6.78081 4.68552 6.53313 3.64944 7.43313 2.4372C7.72449 2.04312 8.00001 1.6716 8.00001 0.57168C8.00001 0.2556 8.25561 0 8.57145 0C8.88729 0 9.14289 0.2556 9.14289 0.57144C9.14289 2.04864 8.68521 2.6664 8.35041 3.11712C7.88817 3.74304 7.87545 4.24152 8.35041 4.88328C8.68521 5.33472 9.14289 5.95248 9.14289 7.42896C9.14289 7.7448 8.88729 8.0004 8.57145 8.0004C8.25561 8.0004 8.00001 7.74504 8.00001 7.42896C8.00001 6.33 7.72449 5.95776 7.43313 5.5644ZM10.8615 5.5644C10.0455 4.46496 10.1394 3.40992 10.8615 2.4372C11.1529 2.04312 11.4286 1.6716 11.4286 0.57168C11.4286 0.2556 11.6842 0 12.0001 0C12.3159 0 12.5715 0.2556 12.5715 0.57144C12.5715 2.04864 12.1138 2.6664 11.779 3.11712C11.3058 3.75792 11.3166 4.25832 11.779 4.88328C12.1138 5.33472 12.5715 5.95248 12.5715 7.42896C12.5715 7.7448 12.3162 8.0004 12.0001 8.0004C11.6842 8.0004 11.4286 7.74504 11.4286 7.42896C11.4286 6.33 11.1529 5.95776 10.8615 5.5644ZM14.2904 5.5644C13.5267 4.53576 13.5181 3.47736 14.2904 2.4372C14.5815 2.04312 14.857 1.6716 14.857 0.57168C14.857 0.2556 15.1129 0 15.4285 0C15.7443 0 16.0002 0.2556 16.0002 0.57144C16.0002 2.04864 15.5425 2.6664 15.2077 3.11712C14.7836 3.6912 14.6991 4.19592 15.2077 4.88328C15.5425 5.33472 16.0002 5.95248 16.0002 7.42896C16.0002 7.7448 15.7446 8.0004 15.4285 8.0004C15.1129 8.0004 14.857 7.74504 14.857 7.42896C14.857 6.33 14.5815 5.95776 14.2904 5.5644Z" fill="black"/>
</g>
<defs>
<clipPath id="clip0_1002_880">
<rect width="24" height="24" fill="white"/>
</clipPath>
</defs>
</svg>
