<svg width="24" height="24" viewBox="0 0 24 24" fill="none" xmlns="http://www.w3.org/2000/svg">
<path fill-rule="evenodd" clip-rule="evenodd" d="M22.75 16C22.75 15.271 22.46 14.571 21.945 14.055C21.429 13.54 20.729 13.25 20 13.25C16.168 13.25 7.832 13.25 4 13.25C3.271 13.25 2.571 13.54 2.055 14.055C1.54 14.571 1.25 15.271 1.25 16V18.5C1.25 19.229 1.54 19.929 2.055 20.445C2.571 20.96 3.271 21.25 4 21.25H20C20.729 21.25 21.429 20.96 21.945 20.445C22.46 19.929 22.75 19.229 22.75 18.5C22.75 17.706 22.75 16.794 22.75 16ZM21.25 16V18.5C21.25 18.832 21.118 19.149 20.884 19.384C20.649 19.618 20.332 19.75 20 19.75H4C3.668 19.75 3.351 19.618 3.116 19.384C2.882 19.149 2.75 18.832 2.75 18.5C2.75 17.706 2.75 16.794 2.75 16C2.75 15.668 2.882 15.351 3.116 15.116C3.351 14.882 3.668 14.75 4 14.75H20C20.332 14.75 20.649 14.882 20.884 15.116C21.118 15.351 21.25 15.668 21.25 16Z" fill="black"/>
<path fill-rule="evenodd" clip-rule="evenodd" d="M18.25 20.5V21.5C18.25 21.914 18.586 22.25 19 22.25C19.414 22.25 19.75 21.914 19.75 21.5V20.5C19.75 20.086 19.414 19.75 19 19.75C18.586 19.75 18.25 20.086 18.25 20.5Z" fill="black"/>
<path fill-rule="evenodd" clip-rule="evenodd" d="M21.2851 4.27403L18.2851 13.774C18.1601 14.169 18.3791 14.591 18.7741 14.715C19.1691 14.84 19.5911 14.621 19.7151 14.226L22.7151 4.72603C22.8401 4.33103 22.6211 3.90903 22.2261 3.78503C21.8311 3.66003 21.4091 3.87903 21.2851 4.27403Z" fill="black"/>
<path fill-rule="evenodd" clip-rule="evenodd" d="M18.25 16.75V17.75C18.25 18.164 18.586 18.5 19 18.5C19.414 18.5 19.75 18.164 19.75 17.75V16.75C19.75 16.336 19.414 16 19 16C18.586 16 18.25 16.336 18.25 16.75Z" fill="black"/>
<path fill-rule="evenodd" clip-rule="evenodd" d="M15.25 16.75V17.75C15.25 18.164 15.586 18.5 16 18.5C16.414 18.5 16.75 18.164 16.75 17.75V16.75C16.75 16.336 16.414 16 16 16C15.586 16 15.25 16.336 15.25 16.75Z" fill="black"/>
<path fill-rule="evenodd" clip-rule="evenodd" d="M12.25 16.75V17.75C12.25 18.164 12.586 18.5 13 18.5C13.414 18.5 13.75 18.164 13.75 17.75V16.75C13.75 16.336 13.414 16 13 16C12.586 16 12.25 16.336 12.25 16.75Z" fill="black"/>
<path fill-rule="evenodd" clip-rule="evenodd" d="M4.25 20.5V21.5C4.25 21.914 4.586 22.25 5 22.25C5.414 22.25 5.75 21.914 5.75 21.5V20.5C5.75 20.086 5.414 19.75 5 19.75C4.586 19.75 4.25 20.086 4.25 20.5Z" fill="black"/>
<path fill-rule="evenodd" clip-rule="evenodd" d="M1.28515 4.72603L4.28515 14.226C4.40915 14.621 4.83115 14.84 5.22615 14.715C5.62115 14.591 5.84015 14.169 5.71515 13.774L2.71515 4.27403C2.59115 3.87903 2.16915 3.66003 1.77415 3.78503C1.37915 3.90903 1.16015 4.33103 1.28515 4.72603Z" fill="black"/>
<path d="M12 10.848C11.448 10.848 11 10.4 11 9.84802C11 9.29602 11.448 8.84802 12 8.84802C12.552 8.84802 13 9.29602 13 9.84802C13 10.4 12.552 10.848 12 10.848Z" fill="black"/>
<path fill-rule="evenodd" clip-rule="evenodd" d="M10.0297 7.60602C10.5317 7.10402 11.2287 6.78802 11.9997 6.78802C12.7707 6.78802 13.4678 7.10402 13.9697 7.60602C14.2617 7.89902 14.7377 7.89902 15.0297 7.60602C15.3227 7.31302 15.3227 6.83802 15.0297 6.54502C14.2587 5.77302 13.1857 5.28802 11.9997 5.28802C10.8137 5.28802 9.74175 5.77302 8.96975 6.54502C8.67675 6.83802 8.67675 7.31302 8.96975 7.60602C9.26175 7.89902 9.73775 7.89902 10.0297 7.60602Z" fill="black"/>
<path fill-rule="evenodd" clip-rule="evenodd" d="M7.53288 5.103C8.67088 3.955 10.2509 3.25 11.9999 3.25C13.7489 3.25 15.3289 3.955 16.4669 5.103C16.7589 5.397 17.2339 5.4 17.5279 5.108C17.8219 4.817 17.8239 4.342 17.5329 4.048C16.1229 2.625 14.1659 1.75 11.9999 1.75C9.83388 1.75 7.87688 2.625 6.46688 4.048C6.17588 4.342 6.17788 4.817 6.47188 5.108C6.76588 5.4 7.24088 5.397 7.53288 5.103Z" fill="black"/>
</svg>
