<svg width="24" height="24" viewBox="0 0 24 24" fill="none" xmlns="http://www.w3.org/2000/svg">
<path d="M18.0966 0H5.90331C4.72783 0 3.77148 0.956391 3.77148 2.13188V20.3269C3.77148 21.5024 4.72783 22.4587 5.90331 22.4587H6.16811V23.2906C6.16811 23.6824 6.48573 24 6.87747 24C7.2692 24 7.58683 23.6824 7.58683 23.2906V22.4587H16.4134V23.2906C16.4134 23.6824 16.7311 24 17.1228 24C17.5145 24 17.8322 23.6824 17.8322 23.2906V22.4587H18.0967C19.2722 22.4587 20.2285 21.5024 20.2285 20.3269V2.13188C20.2285 0.956391 19.2721 0 18.0966 0ZM5.19016 2.13188C5.19016 1.73864 5.51008 1.41867 5.90331 1.41867H11.2907V16.729H5.19016V2.13188ZM18.8098 20.3269C18.8098 20.7201 18.4899 21.0401 18.0966 21.0401H5.90331C5.51008 21.0401 5.19016 20.7201 5.19016 20.3269V18.1478H18.8097V20.3269H18.8098ZM18.8098 16.729H12.7095V1.41872H18.0966C18.4899 1.41872 18.8098 1.73869 18.8098 2.13192V16.729Z" fill="black"/>
<path d="M10.1166 7.38062C9.72485 7.38062 9.40723 7.69824 9.40723 8.08997V10.0578C9.40723 10.4495 9.72481 10.7671 10.1166 10.7671C10.5083 10.7671 10.8259 10.4495 10.8259 10.0578V8.08997C10.8259 7.69819 10.5084 7.38062 10.1166 7.38062Z" fill="black"/>
<path d="M13.8842 7.38062C13.4924 7.38062 13.1748 7.69824 13.1748 8.08997V10.0578C13.1748 10.4496 13.4924 10.7672 13.8842 10.7672C14.2759 10.7672 14.5935 10.4496 14.5935 10.0578V8.08997C14.5935 7.69819 14.2759 7.38062 13.8842 7.38062Z" fill="black"/>
<path d="M12.8035 18.8845H11.1957C10.804 18.8845 10.4863 19.2021 10.4863 19.5939C10.4863 19.9856 10.804 20.3032 11.1957 20.3032H12.8035C13.1953 20.3032 13.5129 19.9856 13.5129 19.5939C13.5129 19.2021 13.1953 18.8845 12.8035 18.8845Z" fill="black"/>
</svg>
