<svg width="24" height="24" viewBox="0 0 24 24" fill="none" xmlns="http://www.w3.org/2000/svg">
<g clip-path="url(#clip0_1002_393)">
<path d="M21.75 24H2.25C1.42313 24 0.75 23.3272 0.75 22.5V1.5C0.75 0.67275 1.42313 0 2.25 0H21.75C22.5769 0 23.25 0.67275 23.25 1.5V22.5C23.25 23.3272 22.5769 24 21.75 24ZM2.25 1.5V22.5H21.7507L21.75 1.5H2.25Z" fill="black"/>
<path d="M9 21C6.10545 21 3.75 18.6449 3.75 15.75C3.75 12.8551 6.10545 10.5 9 10.5C11.8946 10.5 14.25 12.8551 14.25 15.75C14.25 18.6449 11.8946 21 9 21ZM9 12C6.9324 12 5.25 13.6824 5.25 15.75C5.25 17.8176 6.9324 19.5 9 19.5C11.0676 19.5 12.75 17.8176 12.75 15.75C12.75 13.6824 11.0676 12 9 12Z" fill="black"/>
<path d="M9 18C7.75927 18 6.75 16.9907 6.75 15.75C6.75 14.5093 7.75927 13.5 9 13.5C10.2407 13.5 11.25 14.5093 11.25 15.75C11.25 16.9907 10.2407 18 9 18ZM9 15C8.58615 15 8.25 15.3365 8.25 15.75C8.25 16.1635 8.58615 16.5 9 16.5C9.41385 16.5 9.75 16.1635 9.75 15.75C9.75 15.3365 9.41385 15 9 15Z" fill="black"/>
<path d="M17.625 17.25C16.1777 17.25 15 16.0723 15 14.625V12C15 11.5859 15.3355 11.25 15.75 11.25H19.5C19.9145 11.25 20.25 11.5859 20.25 12V14.625C20.25 16.0723 19.0723 17.25 17.625 17.25ZM16.5 12.75V14.625C16.5 15.2453 17.0047 15.75 17.625 15.75C18.2453 15.75 18.75 15.2453 18.75 14.625V12.75H16.5Z" fill="black"/>
<path d="M17.625 21C17.2105 21 16.875 20.6642 16.875 20.25V16.5C16.875 16.0859 17.2105 15.75 17.625 15.75C18.0395 15.75 18.375 16.0859 18.375 16.5V20.25C18.375 20.6642 18.0395 21 17.625 21Z" fill="black"/>
<path d="M18.75 21H16.5C16.0855 21 15.75 20.6641 15.75 20.25C15.75 19.8359 16.0855 19.5 16.5 19.5H18.75C19.1645 19.5 19.5 19.8359 19.5 20.25C19.5 20.6641 19.1645 21 18.75 21Z" fill="black"/>
<path d="M19.8705 9.31492C19.0429 9.31492 18.5939 9.0996 18.2328 8.92635C17.9398 8.7861 17.7289 8.685 17.2418 8.685C16.7562 8.685 16.5453 8.7861 16.2538 8.92597C15.8927 9.09922 15.4437 9.31492 14.6168 9.31492C13.79 9.31492 13.3409 9.09922 12.9799 8.92597C12.6884 8.7861 12.4775 8.685 11.9926 8.685C11.5077 8.685 11.2968 8.7861 11.0053 8.92597C10.6449 9.09922 10.1959 9.31492 9.36907 9.31492C8.54287 9.31492 8.09392 9.09922 7.73287 8.92597C7.4421 8.7861 7.23187 8.685 6.74775 8.685C6.26287 8.685 6.05198 8.7861 5.76045 8.92597C5.40008 9.09922 4.95113 9.31492 4.12425 9.31492C3.29738 9.31492 2.84835 9.09922 2.4873 8.92597C2.19578 8.7861 1.98487 8.685 1.5 8.685V7.185C2.3262 7.185 2.77515 7.4007 3.1362 7.57395C3.42773 7.71382 3.63863 7.81492 4.12425 7.81492C4.60913 7.81492 4.82002 7.71382 5.11155 7.57395C5.47193 7.4007 5.92087 7.185 6.74775 7.185C7.57395 7.185 8.02215 7.4007 8.38252 7.57395C8.67405 7.71382 8.8842 7.81492 9.36907 7.81492C9.85395 7.81492 10.0648 7.71382 10.3564 7.57395C10.7168 7.4007 11.1657 7.185 11.9926 7.185C12.8188 7.185 13.2677 7.4007 13.6288 7.57395C13.9203 7.71382 14.1312 7.81492 14.6168 7.81492C15.1025 7.81492 15.3134 7.71382 15.6049 7.57395C15.9659 7.4007 16.415 7.185 17.2418 7.185C18.0695 7.185 18.5191 7.40032 18.881 7.57357C19.1732 7.71382 19.3841 7.81492 19.8704 7.81492C20.3575 7.81492 20.5685 7.71382 20.8614 7.57357C21.2225 7.40032 21.6722 7.185 22.4999 7.185V8.685C22.0128 8.685 21.8018 8.7861 21.5089 8.92635C21.1478 9.0996 20.6981 9.31492 19.8705 9.31492Z" fill="black"/>
<path d="M19.8705 9.31492C19.0429 9.31492 18.5939 9.0996 18.2328 8.92635C17.9398 8.7861 17.7289 8.685 17.2418 8.685C16.7562 8.685 16.5453 8.7861 16.2538 8.92597C15.8927 9.09922 15.4437 9.31492 14.6168 9.31492C13.79 9.31492 13.3409 9.09922 12.9799 8.92597C12.6884 8.7861 12.4775 8.685 11.9926 8.685C11.5077 8.685 11.2968 8.7861 11.0053 8.92597C10.6449 9.09922 10.1959 9.31492 9.36907 9.31492C8.54287 9.31492 8.09392 9.09922 7.73287 8.92597C7.4421 8.7861 7.23187 8.685 6.74775 8.685C6.26287 8.685 6.05197 8.7861 5.76045 8.92597C5.40007 9.09922 4.95113 9.31492 4.12425 9.31492C3.29738 9.31492 2.84835 9.09922 2.4873 8.92597C2.19578 8.7861 1.98487 8.685 1.5 8.685C1.08547 8.685 0.75 8.34915 0.75 7.935C0.75 7.52085 1.08547 7.185 1.5 7.185C2.3262 7.185 2.77515 7.4007 3.1362 7.57395C3.42773 7.71382 3.63863 7.81492 4.12425 7.81492C4.60913 7.81492 4.82002 7.71382 5.11155 7.57395C5.47192 7.4007 5.92087 7.185 6.74775 7.185C7.57395 7.185 8.02215 7.4007 8.38252 7.57395C8.67405 7.71382 8.8842 7.81492 9.36907 7.81492C9.85395 7.81492 10.0648 7.71382 10.3564 7.57395C10.7168 7.4007 11.1657 7.185 11.9926 7.185C12.8188 7.185 13.2677 7.4007 13.6288 7.57395C13.9203 7.71382 14.1312 7.81492 14.6168 7.81492C15.1025 7.81492 15.3134 7.71382 15.6049 7.57395C15.9659 7.4007 16.415 7.185 17.2418 7.185C18.0695 7.185 18.5191 7.40032 18.881 7.57357C19.1732 7.71382 19.3841 7.81492 19.8704 7.81492C20.3575 7.81492 20.5685 7.71382 20.8614 7.57357C21.2225 7.40032 21.6722 7.185 22.4999 7.185C22.9144 7.185 23.2499 7.52085 23.2499 7.935C23.2499 8.34915 22.9144 8.685 22.4999 8.685C22.0128 8.685 21.8018 8.7861 21.5089 8.92635C21.1478 9.0996 20.6981 9.31492 19.8705 9.31492Z" fill="black"/>
<path d="M22.5 6H1.5C1.08548 6 0.75 5.66415 0.75 5.25C0.75 4.83585 1.08548 4.5 1.5 4.5H22.5C22.9145 4.5 23.25 4.83585 23.25 5.25C23.25 5.66415 22.9145 6 22.5 6Z" fill="black"/>
<path d="M9.75 3.75H5.25C4.83548 3.75 4.5 3.41415 4.5 3C4.5 2.58585 4.83548 2.25 5.25 2.25H9.75C10.1645 2.25 10.5 2.58585 10.5 3C10.5 3.41415 10.1645 3.75 9.75 3.75Z" fill="black"/>
<path d="M14.25 3.75H12.75C12.3355 3.75 12 3.41415 12 3C12 2.58585 12.3355 2.25 12.75 2.25H14.25C14.6645 2.25 15 2.58585 15 3C15 3.41415 14.6645 3.75 14.25 3.75Z" fill="black"/>
<path d="M18.75 3.75H17.25C16.8355 3.75 16.5 3.41415 16.5 3C16.5 2.58585 16.8355 2.25 17.25 2.25H18.75C19.1645 2.25 19.5 2.58585 19.5 3C19.5 3.41415 19.1645 3.75 18.75 3.75Z" fill="black"/>
</g>
<defs>
<clipPath id="clip0_1002_393">
<rect width="24" height="24" fill="white"/>
</clipPath>
</defs>
</svg>
