<svg width="24" height="24" viewBox="0 0 24 24" fill="none" xmlns="http://www.w3.org/2000/svg">
<g clip-path="url(#clip0_1002_612)">
<path d="M22.2541 5.32313H1.74531C1.16631 5.32313 0.695312 4.85213 0.695312 4.27313V1.92563C0.695312 1.34663 1.16631 0.875626 1.74531 0.875626H22.2537C22.8327 0.875626 23.3037 1.34663 23.3037 1.92563V4.27275C23.3041 4.85175 22.8331 5.32313 22.2541 5.32313ZM1.74531 1.63125C1.58256 1.63125 1.45056 1.76363 1.45056 1.926V4.27313C1.45056 4.4355 1.58294 4.56788 1.74531 4.56788H22.2537C22.4164 4.56788 22.5484 4.4355 22.5484 4.27313V1.92563C22.5484 1.76325 22.4161 1.63088 22.2537 1.63088L1.74531 1.63125Z" fill="black"/>
<path d="M21.5791 23.1244H2.41962C2.21074 23.1244 2.04199 22.9553 2.04199 22.7468V4.94738C2.04199 4.73888 2.21074 4.56975 2.41962 4.56975C2.62849 4.56975 2.79724 4.73888 2.79724 4.94738V22.3688H21.2015V4.94738C21.2015 4.73888 21.3702 4.56975 21.5791 4.56975C21.788 4.56975 21.9567 4.73888 21.9567 4.94738V22.7468C21.9567 22.9553 21.788 23.1244 21.5791 23.1244Z" fill="black"/>
<path d="M19.7759 21.303H12.8755C12.6666 21.303 12.4979 21.1339 12.4979 20.9254C12.4979 20.7169 12.6666 20.5477 12.8755 20.5477H19.3982V5.32312H4.59998V20.5474H11.1231C11.332 20.5474 11.5007 20.7165 11.5007 20.925C11.5007 21.1335 11.332 21.3026 11.1231 21.3026H4.22235C4.01348 21.3026 3.84473 21.1335 3.84473 20.925V4.9455C3.84473 4.737 4.01348 4.56787 4.22235 4.56787H19.7762C19.9851 4.56787 20.1539 4.737 20.1539 4.9455V20.925C20.1535 21.1335 19.9847 21.303 19.7759 21.303Z" fill="black"/>
<path d="M12.8757 21.3034C12.6668 21.3034 12.498 21.1343 12.498 20.9258V17.6546C12.498 17.4461 12.6668 17.277 12.8757 17.277C13.0845 17.277 13.2533 17.4461 13.2533 17.6546V20.9258C13.2533 21.1339 13.0845 21.3034 12.8757 21.3034Z" fill="black"/>
<path d="M11.1227 21.3034C10.9139 21.3034 10.7451 21.1343 10.7451 20.9258L10.7455 17.6546C10.7455 17.4461 10.9142 17.277 11.1231 17.277C11.332 17.277 11.5007 17.4461 11.5007 17.6546L11.5004 20.9258C11.5004 21.1339 11.3316 21.3034 11.1227 21.3034Z" fill="black"/>
<path d="M19.7759 7.06875H4.22235C4.01348 7.06875 3.84473 6.89962 3.84473 6.69112C3.84473 6.48262 4.01348 6.3135 4.22235 6.3135H19.7762C19.9851 6.3135 20.1539 6.48262 20.1539 6.69112C20.1539 6.89962 19.9847 7.06875 19.7759 7.06875Z" fill="black"/>
<path d="M19.7759 8.65687H4.22235C4.01348 8.65687 3.84473 8.48775 3.84473 8.27925C3.84473 8.07075 4.01348 7.90162 4.22235 7.90162H19.7762C19.9851 7.90162 20.1539 8.07075 20.1539 8.27925C20.1539 8.48775 19.9847 8.65687 19.7759 8.65687Z" fill="black"/>
<path d="M19.7759 10.2454H4.22235C4.01348 10.2454 3.84473 10.0762 3.84473 9.86775C3.84473 9.65925 4.01348 9.49012 4.22235 9.49012H19.7762C19.9851 9.49012 20.1539 9.65925 20.1539 9.86775C20.1539 10.0762 19.9847 10.2454 19.7759 10.2454Z" fill="black"/>
<path d="M19.7759 11.8339H4.22235C4.01348 11.8339 3.84473 11.6647 3.84473 11.4562C3.84473 11.2477 4.01348 11.0786 4.22235 11.0786H19.7762C19.9851 11.0786 20.1539 11.2477 20.1539 11.4562C20.1539 11.6647 19.9847 11.8339 19.7759 11.8339Z" fill="black"/>
<path d="M19.7759 13.422H4.22235C4.01348 13.422 3.84473 13.2529 3.84473 13.0444C3.84473 12.8359 4.01348 12.6667 4.22235 12.6667H19.7762C19.9851 12.6667 20.1539 12.8359 20.1539 13.0444C20.1539 13.2529 19.9847 13.422 19.7759 13.422Z" fill="black"/>
<path d="M19.7759 15.0105H4.22235C4.01348 15.0105 3.84473 14.8414 3.84473 14.6329C3.84473 14.4244 4.01348 14.2552 4.22235 14.2552H19.7762C19.9851 14.2552 20.1539 14.4244 20.1539 14.6329C20.1539 14.8414 19.9847 15.0105 19.7759 15.0105Z" fill="black"/>
<path d="M19.7759 16.599H4.22235C4.01348 16.599 3.84473 16.4299 3.84473 16.2214C3.84473 16.0129 4.01348 15.8438 4.22235 15.8438H19.7762C19.9851 15.8438 20.1539 16.0129 20.1539 16.2214C20.1539 16.4299 19.9847 16.599 19.7759 16.599Z" fill="black"/>
</g>
<defs>
<clipPath id="clip0_1002_612">
<rect width="24" height="24" fill="white"/>
</clipPath>
</defs>
</svg>
