<svg width="64" height="64" viewBox="0 0 64 64" fill="none" xmlns="http://www.w3.org/2000/svg">
<path d="M62 17H54V13H55C55.2652 13 55.5196 12.8946 55.7071 12.7071C55.8946 12.5196 56 12.2652 56 12V10H60C60.2652 10 60.5196 9.89464 60.7071 9.70711C60.8946 9.51957 61 9.26522 61 9V1H59V8H56V6C56 5.73478 55.8946 5.48043 55.7071 5.29289C55.5196 5.10536 55.2652 5 55 5H37C36.7348 5 36.4804 5.10536 36.2929 5.29289C36.1054 5.48043 36 5.73478 36 6V12C36 12.2652 36.1054 12.5196 36.2929 12.7071C36.4804 12.8946 36.7348 13 37 13H38V17H2C1.73478 17 1.48043 17.1054 1.29289 17.2929C1.10536 17.4804 1 17.7348 1 18V58C1 58.2652 1.10536 58.5196 1.29289 58.7071C1.48043 58.8946 1.73478 59 2 59H3V62C3 62.2652 3.10536 62.5196 3.29289 62.7071C3.48043 62.8946 3.73478 63 4 63H12C12.2652 63 12.5196 62.8946 12.7071 62.7071C12.8946 62.5196 13 62.2652 13 62V59H51V62C51 62.2652 51.1054 62.5196 51.2929 62.7071C51.4804 62.8946 51.7348 63 52 63H60C60.2652 63 60.5196 62.8946 60.7071 62.7071C60.8946 62.5196 61 62.2652 61 62V59H62C62.2652 59 62.5196 58.8946 62.7071 58.7071C62.8946 58.5196 63 58.2652 63 58V18C63 17.7348 62.8946 17.4804 62.7071 17.2929C62.5196 17.1054 62.2652 17 62 17ZM40 13H52V17H40V13ZM61 57H3V55H61V57ZM13 53V23H29V53H13ZM31 53V23H33V53H31ZM35 53V23H57V53H35ZM61 53H59V22C59 21.7348 58.8946 21.4804 58.7071 21.2929C58.5196 21.1054 58.2652 21 58 21H12C11.7348 21 11.4804 21.1054 11.2929 21.2929C11.1054 21.4804 11 21.7348 11 22V28H6C5.73478 28 5.48043 28.1054 5.29289 28.2929C5.10536 28.4804 5 28.7348 5 29V33C5 33.2652 5.10536 33.5196 5.29289 33.7071C5.48043 33.8946 5.73478 34 6 34H11V41H6C5.73478 41 5.48043 41.1054 5.29289 41.2929C5.10536 41.4804 5 41.7348 5 42V46C5 46.2652 5.10536 46.5196 5.29289 46.7071C5.48043 46.8946 5.73478 47 6 47H11V53H3V19H61V53Z" fill="black"></path>
<path d="M43 40.01L49 33.01L46 32.01L51 26H45L41 33.01L44 34.01L43 40.01Z" fill="black"></path>
<path d="M55 45H37V47H55V45Z" fill="black"></path>
<path d="M55 49H37V51H55V49Z" fill="black"></path>
<path d="M26 26H16V32H26V26Z" fill="black"></path>
<path d="M27 45H15V47H27V45Z" fill="black"></path>
<path d="M27 41H15V43H27V41Z" fill="black"></path>
<path d="M19 49H15V51H19V49Z" fill="black"></path>
<path d="M27 49H23V51H27V49Z" fill="black"></path>
</svg>