<svg width="24" height="24" viewBox="0 0 24 24" fill="none" xmlns="http://www.w3.org/2000/svg">
<g clip-path="url(#clip0_1002_721)">
<mask id="mask0_1002_721" style="mask-type:luminance" maskUnits="userSpaceOnUse" x="0" y="0" width="24" height="24">
<path d="M0 1.90735e-06H24V24H0V1.90735e-06Z" fill="white"/>
</mask>
<g mask="url(#mask0_1002_721)">
<path d="M22.875 23.2969H1.125C0.891984 23.2969 0.703125 23.108 0.703125 22.875V1.125C0.703125 0.891986 0.891984 0.703127 1.125 0.703127H22.875C23.108 0.703127 23.2969 0.891986 23.2969 1.125V22.875C23.2969 23.108 23.108 23.2969 22.875 23.2969Z" stroke="black" stroke-width="1.5" stroke-miterlimit="10" stroke-linecap="round" stroke-linejoin="round"/>
<path d="M9.40044 5.03613L8.32231 3.52052L7.24414 5.03613" stroke="black" stroke-width="1.5" stroke-miterlimit="10" stroke-linecap="round" stroke-linejoin="round"/>
<path d="M14.5996 3.52049L15.6777 5.0361L16.7559 3.52049" stroke="black" stroke-width="1.5" stroke-miterlimit="10" stroke-linecap="round" stroke-linejoin="round"/>
<path d="M19.3561 23.2983H12V7.85939H19.3561V23.2983Z" stroke="black" stroke-width="1.5" stroke-miterlimit="10" stroke-linecap="round" stroke-linejoin="round"/>
<path d="M11.9996 23.2983H4.64355V7.85939H11.9996V23.2983Z" stroke="black" stroke-width="1.5" stroke-miterlimit="10" stroke-linecap="round" stroke-linejoin="round"/>
</g>
</g>
<defs>
<clipPath id="clip0_1002_721">
<rect width="24" height="24" fill="white"/>
</clipPath>
</defs>
</svg>
