<svg width="25" height="25" viewBox="0 0 25 25" fill="none" xmlns="http://www.w3.org/2000/svg">
<g clip-path="url(#clip0_1002_709)">
<path d="M17.9916 0H7.00845C5.73945 0 4.70703 1.03242 4.70703 2.30142V21.1295C4.70703 22.1303 5.35513 23.0033 6.27603 23.3118V24.2676C6.27603 24.6721 6.60396 25 7.00845 25C7.41294 25 7.74087 24.6721 7.74087 24.2676V23.431H17.2591V24.2676C17.2591 24.6721 17.5871 25 17.9916 25C18.396 25 18.724 24.6721 18.724 24.2676V23.3118C19.6448 23.0034 20.293 22.1306 20.293 21.1295V2.30142C20.293 1.03242 19.2605 0 17.9916 0ZM18.8281 21.1295C18.8281 21.3497 18.7388 21.5652 18.5831 21.7209C18.425 21.8791 18.2148 21.9661 17.9916 21.9661H7.00845C6.78516 21.9661 6.57505 21.879 6.41685 21.7208C6.26118 21.5652 6.17188 21.3497 6.17188 21.1295V10.0944H18.8281V21.1295ZM18.8281 8.62954H6.17188V2.30142C6.17188 1.84014 6.54717 1.46484 7.00845 1.46484H17.9916C18.4528 1.46484 18.8281 1.84014 18.8281 2.30142V8.62954Z" fill="black"/>
<path d="M8.57715 3.13803C8.17266 3.13803 7.84473 3.46596 7.84473 3.87045V6.22397C7.84473 6.62846 8.17266 6.95639 8.57715 6.95639C8.98164 6.95639 9.30957 6.62846 9.30957 6.22397V3.87045C9.30957 3.46591 8.98164 3.13803 8.57715 3.13803Z" fill="black"/>
<path d="M8.57715 17.9395C8.98164 17.9395 9.30957 17.6115 9.30957 17.207V12.5C9.30957 12.0955 8.98164 11.7676 8.57715 11.7676C8.17266 11.7676 7.84473 12.0955 7.84473 12.5V17.207C7.84473 17.6115 8.17261 17.9395 8.57715 17.9395Z" fill="black"/>
</g>
<defs>
<clipPath id="clip0_1002_709">
<rect width="25" height="25" fill="white"/>
</clipPath>
</defs>
</svg>
