<svg width="24" height="24" viewBox="0 0 24 24" fill="none" xmlns="http://www.w3.org/2000/svg">
<g clip-path="url(#clip0_1002_748)">
<path d="M23.7245 6.65037L12.267 0.285683C12.1018 0.192085 11.8981 0.192085 11.7329 0.285683L0.280889 6.65037C0.104704 6.74948 9.4117e-05 6.93117 9.4117e-05 7.12938V23.2448C-0.00541167 23.5421 0.231337 23.7844 0.52865 23.7844C0.534155 23.7844 0.539661 23.7844 0.539661 23.7844H23.4603C23.7576 23.7899 23.9998 23.5531 23.9998 23.2558C23.9998 23.2503 23.9998 23.2448 23.9998 23.2448V7.13488C24.0053 6.93117 23.9007 6.74948 23.7245 6.65037ZM19.7108 22.6887H4.29461V20.4314H19.7108V22.6887ZM19.7108 19.3302H4.29461V17.238H19.7108V19.3302ZM19.7108 16.1368H4.29461V14.0446H19.7108V16.1368ZM19.7108 12.9435H4.29461V10.8513H19.7108V12.9435ZM22.9042 22.6887H20.812V10.3172C20.812 10.0144 20.5862 9.75013 20.2779 9.75013H3.72751C3.42469 9.75013 3.19345 10.0144 3.19345 10.3172V22.6887H1.10125V7.45422L12.0027 1.39235L22.9042 7.45422V22.6887Z" fill="black"/>
</g>
<defs>
<clipPath id="clip0_1002_748">
<rect width="24" height="24" fill="white"/>
</clipPath>
</defs>
</svg>
