<svg width="24" height="26" viewBox="0 0 24 26" fill="none" xmlns="http://www.w3.org/2000/svg">
<path d="M14.6004 3.08696C14.6004 4.23478 12.5004 7.26087 12.5004 7.26087C12.5004 7.26087 10.4004 4.23478 10.4004 3.08696C10.4004 1.93913 11.3454 1 12.5004 1C13.6554 1 14.6004 1.93913 14.6004 3.08696Z" stroke="black" stroke-width="1.5" stroke-linecap="round" stroke-linejoin="round"/>
<path d="M7.25039 6.21747C8.40539 6.21747 11.4504 8.30442 11.4504 8.30442C11.4504 8.30442 8.40539 10.3914 7.25039 10.3914C6.09539 10.3914 5.15039 9.45225 5.15039 8.30442C5.15039 7.1566 6.09539 6.21747 7.25039 6.21747Z" stroke="black" stroke-width="1.5" stroke-linecap="round" stroke-linejoin="round"/>
<path d="M10.4004 13.5218C10.4004 12.374 12.5004 9.3479 12.5004 9.3479C12.5004 9.3479 14.6004 12.374 14.6004 13.5218C14.6004 14.6696 13.6554 15.6088 12.5004 15.6088C11.3454 15.6088 10.4004 14.6696 10.4004 13.5218Z" stroke="black" stroke-width="1.5" stroke-linecap="round" stroke-linejoin="round"/>
<path d="M17.7508 10.3914C16.5958 10.3914 13.5508 8.30442 13.5508 8.30442C13.5508 8.30442 16.5958 6.21747 17.7508 6.21747C18.9058 6.21747 19.8508 7.1566 19.8508 8.30442C19.8508 9.45225 18.9058 10.3914 17.7508 10.3914Z" stroke="black" stroke-width="1.5" stroke-linecap="round" stroke-linejoin="round"/>
<path d="M12.5 25.0001C14.6 17.6957 16.7 14.5653 23 14.5653C18.8 20.8261 18.8 25.0001 12.5 25.0001Z" stroke="black" stroke-width="1.5" stroke-linecap="round" stroke-linejoin="round"/>
<path d="M12.5 25.0001C10.4 17.6957 8.3 14.5653 2 14.5653C6.2 20.8261 6.2 25.0001 12.5 25.0001Z" stroke="black" stroke-width="1.5" stroke-linecap="round" stroke-linejoin="round"/>
</svg>
