<svg width="24" height="24" viewBox="0 0 24 24" fill="none" xmlns="http://www.w3.org/2000/svg">
<g clip-path="url(#clip0_1002_310)">
<path d="M23.2969 19.0068H21.1406V10.0068C21.1406 8.8126 20.1747 7.80371 19.0312 7.80371H4.96875C3.82533 7.80371 2.85938 8.8126 2.85938 10.0068V19.0068H0.703125C0.314812 19.0068 0 19.3216 0 19.71V22.5693C0 22.9576 0.314812 23.2725 0.703125 23.2725C1.09144 23.2725 1.40625 22.9576 1.40625 22.5693V20.4131H2.85938V21.0693C2.85938 22.2636 3.82533 23.2725 4.96875 23.2725H19.0312C20.1747 23.2725 21.1406 22.2636 21.1406 21.0693V20.4131H22.5938V22.5693C22.5938 22.9576 22.9086 23.2725 23.2969 23.2725C23.6852 23.2725 24 22.9576 24 22.5693V19.71C24 19.3216 23.6852 19.0068 23.2969 19.0068ZM19.7344 21.0693C19.7344 21.4789 19.3927 21.8662 19.0312 21.8662H18.3281V21.21C18.3281 20.8216 18.0133 20.5068 17.625 20.5068C17.2367 20.5068 16.9219 20.8216 16.9219 21.21V21.8662H15.5156V21.21C15.5156 20.8216 15.2008 20.5068 14.8125 20.5068C14.4242 20.5068 14.1094 20.8216 14.1094 21.21V21.8662H12.7031V21.21C12.7031 20.8216 12.3883 20.5068 12 20.5068C11.6117 20.5068 11.2969 20.8216 11.2969 21.21V21.8662H9.89062V21.21C9.89062 20.8216 9.57581 20.5068 9.1875 20.5068C8.79919 20.5068 8.48438 20.8216 8.48438 21.21V21.8662H7.07812V21.21C7.07812 20.8216 6.76331 20.5068 6.375 20.5068C5.98669 20.5068 5.67188 20.8216 5.67188 21.21V21.8662H4.96875C4.60734 21.8662 4.26562 21.4789 4.26562 21.0693V10.0068C4.26562 9.59724 4.60734 9.20996 4.96875 9.20996H5.67188V9.86621C5.67188 10.2545 5.98669 10.5693 6.375 10.5693C6.76331 10.5693 7.07812 10.2545 7.07812 9.86621V9.20996H8.48438V9.86621C8.48438 10.2545 8.79919 10.5693 9.1875 10.5693C9.57581 10.5693 9.89062 10.2545 9.89062 9.86621V9.20996H11.2969V9.86621C11.2969 10.2545 11.6117 10.5693 12 10.5693C12.3883 10.5693 12.7031 10.2545 12.7031 9.86621V9.20996H14.1094V9.86621C14.1094 10.2545 14.4242 10.5693 14.8125 10.5693C15.2008 10.5693 15.5156 10.2545 15.5156 9.86621V9.20996H16.9219V9.86621C16.9219 10.2545 17.2367 10.5693 17.625 10.5693C18.0133 10.5693 18.3281 10.2545 18.3281 9.86621V9.20996H19.0312C19.3927 9.20996 19.7344 9.59724 19.7344 10.0068V21.0693Z" fill="black"/>
<path d="M6.375 11.9756C5.98669 11.9756 5.67188 12.2904 5.67188 12.6787V18.3037C5.67188 18.692 5.98669 19.0068 6.375 19.0068C6.76331 19.0068 7.07812 18.692 7.07812 18.3037V12.6787C7.07812 12.2904 6.76331 11.9756 6.375 11.9756Z" fill="black"/>
<path d="M9.1875 11.9756C8.79919 11.9756 8.48438 12.2904 8.48438 12.6787V18.3037C8.48438 18.692 8.79919 19.0068 9.1875 19.0068C9.57581 19.0068 9.89062 18.692 9.89062 18.3037V12.6787C9.89062 12.2904 9.57581 11.9756 9.1875 11.9756Z" fill="black"/>
<path d="M12 11.9756C11.6117 11.9756 11.2969 12.2904 11.2969 12.6787V18.3037C11.2969 18.692 11.6117 19.0068 12 19.0068C12.3883 19.0068 12.7031 18.692 12.7031 18.3037V12.6787C12.7031 12.2904 12.3883 11.9756 12 11.9756Z" fill="black"/>
<path d="M14.8125 11.9756C14.4242 11.9756 14.1094 12.2904 14.1094 12.6787V18.3037C14.1094 18.692 14.4242 19.0068 14.8125 19.0068C15.2008 19.0068 15.5156 18.692 15.5156 18.3037V12.6787C15.5156 12.2904 15.2008 11.9756 14.8125 11.9756Z" fill="black"/>
<path d="M17.625 11.9756C17.2367 11.9756 16.9219 12.2904 16.9219 12.6787V18.3037C16.9219 18.692 17.2367 19.0068 17.625 19.0068C18.0133 19.0068 18.3281 18.692 18.3281 18.3037V12.6787C18.3281 12.2904 18.0133 11.9756 17.625 11.9756Z" fill="black"/>
<path d="M8.43282 4.22238C8.54668 4.51554 8.47778 4.90507 8.25306 5.23901C8.03626 5.56118 8.12162 5.9981 8.44379 6.2149C8.76442 6.43071 9.202 6.34774 9.41968 6.02417C9.90404 5.30445 10.0255 4.44185 9.74476 3.71599C9.5866 3.30035 9.32523 3.05862 9.23987 2.8399C9.12601 2.54679 9.19496 2.15726 9.41968 1.82332C9.63648 1.50115 9.55112 1.06423 9.22895 0.847431C8.90687 0.630587 8.46985 0.715993 8.25306 1.03817C7.7687 1.75788 7.64725 2.62048 7.92798 3.34629C8.0882 3.76751 8.3575 4.01651 8.43282 4.22238Z" fill="black"/>
<path d="M11.5969 4.22238C11.7107 4.51554 11.6418 4.90507 11.4171 5.23901C11.2003 5.56118 11.2857 5.9981 11.6079 6.2149C11.9285 6.43071 12.3661 6.34774 12.5837 6.02417C13.0681 5.30445 13.1896 4.44185 12.9088 3.71599C12.7495 3.2974 12.4833 3.04957 12.4061 2.84557C12.4054 2.8437 12.4047 2.84177 12.4039 2.8399C12.2901 2.54679 12.359 2.15726 12.5837 1.82332C12.8005 1.50115 12.7152 1.06423 12.393 0.847431C12.0709 0.630587 11.6339 0.715993 11.4171 1.03817C10.9328 1.75788 10.8113 2.62048 11.092 3.34629C11.2523 3.76751 11.5216 4.01651 11.5969 4.22238Z" fill="black"/>
<path d="M14.7609 4.22238C14.8748 4.51554 14.8059 4.90507 14.5812 5.23901C14.3644 5.56118 14.4497 5.9981 14.7719 6.2149C15.0925 6.43071 15.5301 6.34774 15.7478 6.02417C16.2322 5.30445 16.3536 4.44185 16.0729 3.71599C15.9147 3.30035 15.6534 3.05862 15.568 2.8399C15.4541 2.54679 15.5231 2.15726 15.7478 1.82332C15.9646 1.50115 15.8792 1.06423 15.5571 0.847431C15.2349 0.630587 14.798 0.715993 14.5812 1.03817C14.0968 1.75788 13.9754 2.62048 14.2561 3.34629C14.4163 3.76751 14.6856 4.01651 14.7609 4.22238Z" fill="black"/>
</g>
<defs>
<clipPath id="clip0_1002_310">
<rect width="24" height="24" fill="white"/>
</clipPath>
</defs>
</svg>
