<svg width="24" height="24" viewBox="0 0 24 24" fill="none" xmlns="http://www.w3.org/2000/svg">
<path d="M6.58759 3.06764C6.58759 3.2618 6.43018 3.4192 6.23602 3.4192H3.73163C3.53748 3.4192 3.38007 3.2618 3.38007 3.06764C3.38007 2.87348 3.53748 2.71608 3.73163 2.71608H6.23602C6.43018 2.71608 6.58759 2.87348 6.58759 3.06764ZM13.2524 2.71608H10.748C10.5539 2.71608 10.3965 2.87348 10.3965 3.06764C10.3965 3.2618 10.5539 3.4192 10.748 3.4192H13.2524C13.4466 3.4192 13.604 3.2618 13.604 3.06764C13.604 2.87348 13.4466 2.71608 13.2524 2.71608ZM17.7645 3.4192H20.2689C20.463 3.4192 20.6204 3.2618 20.6204 3.06764C20.6204 2.87348 20.463 2.71608 20.2689 2.71608H17.7645C17.5703 2.71608 17.4129 2.87348 17.4129 3.06764C17.4129 3.2618 17.5703 3.4192 17.7645 3.4192ZM22.8765 1.45312V7.28981C22.8765 7.48397 22.7191 7.64138 22.5249 7.64138H1.47559C1.28143 7.64138 1.12402 7.48397 1.12402 7.28981V1.45312C1.12402 1.25897 1.28143 1.10156 1.47559 1.10156H22.5249C22.7191 1.10156 22.8765 1.25897 22.8765 1.45312ZM1.82715 6.93825H8.14046V1.80469H1.82715V6.93825ZM8.84359 6.93825H15.1569V1.80469H8.84359V6.93825ZM22.1733 1.80469H15.86V6.93825H22.1733V1.80469ZM22.8765 12.8766V14.2164C22.8765 14.4106 22.7191 14.568 22.5249 14.568H21.4589V22.5469C21.4589 22.741 21.3015 22.8984 21.1074 22.8984H2.89313C2.69898 22.8984 2.54157 22.741 2.54157 22.5469V14.568H1.47559C1.28143 14.568 1.12402 14.4106 1.12402 14.2165V12.8767C1.12402 12.6825 1.28143 12.5251 1.47559 12.5251H19.1829V10.363C19.1829 9.74311 18.6786 9.23883 18.0587 9.23883C17.534 9.23883 17.0922 9.60023 16.9689 10.0871C17.3577 10.2413 17.6335 10.6209 17.6335 11.064C17.6335 11.2582 17.4761 11.4156 17.282 11.4156C17.0878 11.4156 16.9304 11.2582 16.9304 11.064C16.9304 10.8724 16.7745 10.7165 16.5829 10.7165C16.3914 10.7165 16.2354 10.8724 16.2354 11.064C16.2354 11.2582 16.078 11.4156 15.8839 11.4156C15.6897 11.4156 15.5323 11.2582 15.5323 11.064C15.5323 10.5989 15.8363 10.2036 16.2559 10.0658C16.3984 9.19908 17.1524 8.5357 18.0587 8.5357C19.0663 8.5357 19.886 9.35545 19.886 10.363V12.5251H22.5249C22.7191 12.525 22.8765 12.6825 22.8765 12.8766ZM3.2447 22.1953H11.6487V14.568H3.2447V22.1953ZM20.7558 14.568H12.3518V22.1953H20.7558V14.568ZM22.1733 13.2282H1.82715V13.8649H22.1733V13.2282ZM13.1799 17.7656H13.594V19.1016H13.1799C12.9858 19.1016 12.8284 19.259 12.8284 19.4531C12.8284 19.6473 12.9858 19.8047 13.1799 19.8047H13.9456C14.1397 19.8047 14.2971 19.6473 14.2971 19.4531V17.4141C14.2971 17.2199 14.1397 17.0625 13.9456 17.0625H13.1799C12.9858 17.0625 12.8284 17.2199 12.8284 17.4141C12.8284 17.6082 12.9857 17.7656 13.1799 17.7656ZM10.8205 19.1016H10.4065V17.7656H10.8205C11.0147 17.7656 11.1721 17.6082 11.1721 17.4141C11.1721 17.2199 11.0147 17.0625 10.8205 17.0625H10.0549C9.86077 17.0625 9.70337 17.2199 9.70337 17.4141V19.4531C9.70337 19.6473 9.86077 19.8047 10.0549 19.8047H10.8205C11.0147 19.8047 11.1721 19.6473 11.1721 19.4531C11.1721 19.259 11.0147 19.1016 10.8205 19.1016Z" fill="black"/>
</svg>
