<svg width="24" height="24" viewBox="0 0 24 24" fill="none" xmlns="http://www.w3.org/2000/svg">
<g clip-path="url(#clip0_1002_933)">
<mask id="mask0_1002_933" style="mask-type:luminance" maskUnits="userSpaceOnUse" x="0" y="0" width="24" height="24">
<path d="M0 1.90735e-06H24V24H0V1.90735e-06Z" fill="white"/>
</mask>
<g mask="url(#mask0_1002_933)">
<path d="M12.8906 23.2969H2.57812C1.54261 23.2969 0.703125 22.4574 0.703125 21.4219V2.57813C0.703125 1.54261 1.54261 0.703127 2.57812 0.703127H12.8906C13.9262 0.703127 14.7656 1.54261 14.7656 2.57813V21.4219C14.7656 22.4574 13.9262 23.2969 12.8906 23.2969Z" stroke="black" stroke-width="1.5" stroke-miterlimit="10" stroke-linecap="round" stroke-linejoin="round"/>
<path d="M0.703125 9.14062H14.7656" stroke="black" stroke-width="1.5" stroke-miterlimit="10" stroke-linecap="round" stroke-linejoin="round"/>
<path d="M9.14062 4.92188C9.14062 5.6985 8.511 6.32812 7.73438 6.32812C6.95775 6.32812 6.32812 5.6985 6.32812 4.92188C6.32812 4.14525 6.95775 3.51562 7.73438 3.51562C8.511 3.51562 9.14062 4.14525 9.14062 4.92188Z" stroke="black" stroke-width="1.5" stroke-miterlimit="10" stroke-linecap="round" stroke-linejoin="round"/>
<path d="M12.6562 4.92188C12.6562 5.31019 12.3414 5.625 11.9531 5.625C11.5648 5.625 11.25 5.31019 11.25 4.92188C11.25 4.53356 11.5648 4.21875 11.9531 4.21875C12.3414 4.21875 12.6562 4.53356 12.6562 4.92188Z" fill="black"/>
<path d="M2.8125 4.92188C2.8125 5.31019 3.12731 5.625 3.51562 5.625C3.90394 5.625 4.21875 5.31019 4.21875 4.92188C4.21875 4.53356 3.90394 4.21875 3.51562 4.21875C3.12731 4.21875 2.8125 4.53356 2.8125 4.92188Z" fill="black"/>
<path d="M10.7812 18.9844H4.6875C5.2988 18.0674 5.625 16.9901 5.625 15.888V15.4688C5.625 14.3038 6.56939 13.3594 7.73437 13.3594C8.89936 13.3594 9.84375 14.3038 9.84375 15.4688V15.888C9.84375 16.9901 10.17 18.0674 10.7812 18.9844Z" stroke="black" stroke-width="1.5" stroke-miterlimit="10" stroke-linecap="round" stroke-linejoin="round"/>
<path d="M7.73438 20.3906V18.9844" stroke="black" stroke-width="1.5" stroke-miterlimit="10" stroke-linecap="round" stroke-linejoin="round"/>
<path d="M7.73438 13.3594V11.9531" stroke="black" stroke-width="1.5" stroke-miterlimit="10" stroke-linecap="round" stroke-linejoin="round"/>
<path d="M17.6748 12.7031C17.2865 12.7031 16.9717 12.3883 16.9717 12C16.9717 11.6117 17.2865 11.2969 17.6748 11.2969C18.0631 11.2969 18.3779 11.6117 18.3779 12C18.3779 12.3883 18.0631 12.7031 17.6748 12.7031Z" fill="black"/>
<path d="M21.6523 8.02251C23.8455 10.2157 23.8455 13.7843 21.6523 15.9775" stroke="black" stroke-width="1.5" stroke-miterlimit="10" stroke-linecap="round" stroke-linejoin="round"/>
<path d="M19.6631 10.0113C20.7615 11.1096 20.7615 12.8904 19.6631 13.9888" stroke="black" stroke-width="1.5" stroke-miterlimit="10" stroke-linecap="round" stroke-linejoin="round"/>
</g>
</g>
<defs>
<clipPath id="clip0_1002_933">
<rect width="24" height="24" fill="white"/>
</clipPath>
</defs>
</svg>
