<svg width="24" height="24" viewBox="0 0 24 24" fill="none" xmlns="http://www.w3.org/2000/svg">
<g clip-path="url(#clip0_1002_502)">
<path d="M7.43713 3.5977C7.8794 2.78953 8.22871 2.15123 7.45181 0.983762C7.3514 0.832871 7.39232 0.629199 7.54321 0.528793C7.6941 0.428387 7.89777 0.469309 7.99818 0.620199C8.99493 2.11809 8.47316 3.07153 8.01281 3.91275C7.57054 4.72087 7.22123 5.35921 7.99818 6.52673C8.09859 6.67757 8.05766 6.88125 7.90677 6.9817C7.8509 7.01887 7.78771 7.03668 7.72527 7.03668C7.61915 7.03668 7.51504 6.98531 7.45181 6.89029C6.45501 5.39235 6.97677 4.43892 7.43713 3.5977ZM4.23177 6.83826C4.29501 6.93323 4.39912 6.98465 4.50524 6.98465C4.56768 6.98465 4.63082 6.96684 4.68674 6.92967C4.83759 6.82926 4.87851 6.62559 4.77815 6.4747C4.00124 5.30723 4.35055 4.66889 4.79282 3.86071C5.25313 3.01954 5.7749 2.06611 4.77815 0.568168C4.6777 0.417324 4.47407 0.376403 4.32318 0.476762C4.17234 0.577168 4.13141 0.78084 4.23177 0.931731C5.00868 2.0992 4.65937 2.73754 4.2171 3.54567C3.75679 4.38693 3.23502 5.34037 4.23177 6.83826ZM1.46671 6.98165C1.61756 6.88125 1.65848 6.67757 1.55812 6.52668C0.781211 5.35917 1.13052 4.72087 1.57279 3.9127C2.03315 3.07153 2.55487 2.11809 1.55812 0.620153C1.45771 0.469262 1.25409 0.428387 1.10315 0.528746C0.952305 0.629153 0.911383 0.832824 1.01174 0.983715C1.78865 2.15118 1.43934 2.78953 0.997118 3.59765C0.536758 4.43887 0.0149926 5.39231 1.01174 6.8902C1.07498 6.98517 1.17909 7.03659 1.28521 7.03659C1.34765 7.03664 1.41084 7.01887 1.46671 6.98165ZM23.0024 3.86076C23.4628 3.01959 23.9845 2.06615 22.9878 0.568215C22.8874 0.417371 22.6837 0.376449 22.5328 0.476809C22.382 0.577215 22.341 0.780887 22.4414 0.931778C23.2183 2.09925 22.869 2.73759 22.4267 3.54571C21.9664 4.38693 21.4446 5.34037 22.4414 6.83826C22.5046 6.93323 22.6087 6.98465 22.7149 6.98465C22.7773 6.98465 22.8404 6.96684 22.8964 6.92967C23.0472 6.82926 23.0881 6.62559 22.9878 6.4747C22.2108 5.30723 22.5602 4.66893 23.0024 3.86076ZM19.2214 6.83826C19.2846 6.93323 19.3888 6.98465 19.4949 6.98465C19.5573 6.98465 19.6205 6.96684 19.6764 6.92967C19.8272 6.82926 19.8681 6.62559 19.7678 6.4747C18.9909 5.30723 19.3402 4.66889 19.7825 3.86076C20.2428 3.01954 20.7646 2.06611 19.7678 0.568215C19.6674 0.417371 19.4638 0.376449 19.3128 0.476809C19.162 0.577215 19.1211 0.780887 19.2214 0.931778C19.9983 2.09925 19.649 2.73759 19.2067 3.54571C18.7464 4.38693 18.2246 5.34037 19.2214 6.83826ZM22.7265 13.8832V20.1542C22.7265 21.1532 21.5923 22.0189 19.4463 22.6577C17.4528 23.2512 14.8082 23.5781 11.9998 23.5781C9.19134 23.5781 6.54674 23.2512 4.55315 22.6577C2.40721 22.0189 1.27293 21.1531 1.27293 20.1542V13.8832C1.27293 12.8527 2.47124 11.9692 4.73821 11.3265L6.75327 9.83334C6.98404 9.66225 7.81106 9.42675 9.35671 9.0247C9.5842 8.96554 9.76387 8.91881 9.86695 8.88993C10.4981 8.71556 14.5379 9.09375 14.9542 9.20156L17.5005 9.86114C17.8311 9.94678 18.1005 10.1888 18.2212 10.5086L18.4514 11.1187C21.2098 11.7564 22.7265 12.7353 22.7265 13.8832ZM4.34549 12.4343C4.17009 12.5644 4.1332 12.813 4.26332 12.9885C4.32637 13.0735 4.41871 13.1289 4.52338 13.1444C4.62801 13.1601 4.73254 13.1338 4.81752 13.0708L7.50843 11.0767C7.54059 11.0529 7.57682 11.0352 7.61535 11.0244L9.98441 10.3615C10.0881 10.3325 10.1994 10.3562 10.2823 10.4249C10.3652 10.4937 10.4091 10.5987 10.3997 10.706C10.3143 11.6867 10.2291 12.6675 10.144 13.6483L10.0953 14.2096C10.8268 14.2652 11.5874 14.2933 12.361 14.2933C12.9176 14.2933 13.4712 14.2786 14.0107 14.2495L14.0449 13.8558C14.1297 12.8783 14.2146 11.9008 14.2997 10.9233C14.3081 10.8272 14.3584 10.7396 14.4373 10.6838C14.5161 10.6282 14.6154 10.61 14.7089 10.6342L16.773 11.1689C16.8763 11.1956 16.9602 11.2709 16.9978 11.3707L17.8165 13.5422C17.8539 13.6415 17.9277 13.7202 18.0242 13.7639C18.1207 13.8076 18.2285 13.8111 18.3276 13.7738C18.5323 13.6967 18.6361 13.4675 18.5591 13.2628L17.6074 10.7404C17.5619 10.6199 17.4604 10.5286 17.336 10.4964L14.7898 9.83685C14.3744 9.72928 10.473 9.40786 10.0427 9.52223C9.93496 9.55237 9.75271 9.59976 9.52199 9.65981C8.93057 9.81365 7.35951 10.2224 7.14051 10.3631L4.34549 12.4343ZM18.5589 14.3879C18.5542 14.3896 18.5495 14.3908 18.5449 14.3924C19.0501 14.2498 19.5348 14.0816 19.9855 13.8833C19.7374 13.7742 19.469 13.675 19.2232 13.5916C19.1585 13.943 18.9168 14.2531 18.5589 14.3879ZM4.01085 13.8817C4.0116 13.8821 4.01226 13.8824 4.01296 13.8827C4.01315 13.882 4.01376 13.8809 4.01395 13.8801V13.8865C4.01357 13.8851 4.01198 13.8826 4.01085 13.8817ZM4.01399 13.8831C6.37649 14.9217 9.66009 15.1394 11.9998 15.1394C13.8474 15.1394 16.2837 15.0032 18.3889 14.4353C18.1756 14.4772 17.9553 14.4532 17.7535 14.3617C17.4973 14.2457 17.3016 14.0368 17.2025 13.7736L16.9176 13.0181C16.2509 12.9009 15.5412 12.8087 14.8002 12.744C14.7664 13.1335 14.7325 13.523 14.6987 13.9125L14.64 14.5887C14.626 14.7503 14.4959 14.8775 14.334 14.8878C13.6925 14.9287 13.0287 14.9495 12.3611 14.9495C11.4523 14.9495 10.5607 14.9114 9.71109 14.8364C9.53076 14.8204 9.3974 14.6615 9.41306 14.4811L9.49026 13.5915C9.51562 13.2991 9.54107 13.0068 9.56643 12.7145C8.19262 12.8167 6.92995 13.008 5.80893 13.2846C5.73102 13.3038 5.63409 13.3296 5.53181 13.3582L5.20832 13.5979C4.98262 13.7653 4.70521 13.8349 4.42705 13.7935C4.38323 13.787 4.34057 13.777 4.29857 13.7653C4.1969 13.8052 4.10151 13.8446 4.01399 13.8831ZM9.70481 11.1212L7.85048 11.64L6.82982 12.3964C7.7002 12.2375 8.63488 12.1222 9.62395 12.0521C9.6509 11.7418 9.6778 11.4315 9.70481 11.1212ZM16.6499 12.3081L16.4438 11.7615L14.9199 11.3668C14.8989 11.6079 14.878 11.8492 14.857 12.0903C15.4775 12.1445 16.0773 12.2175 16.6499 12.3081ZM22.0703 20.1542V15.123C21.524 15.6039 20.6426 16.0306 19.4463 16.3868C17.4528 16.9803 14.8082 17.3072 11.9998 17.3072C9.19134 17.3072 6.54674 16.9803 4.55315 16.3868C3.3569 16.0306 2.47546 15.6039 1.92918 15.123V20.1542C1.92918 20.8039 2.98007 21.5047 4.74037 22.0288C6.6749 22.6047 9.25298 22.9219 11.9998 22.9219C14.7465 22.9219 17.3246 22.6047 19.2591 22.0288C21.0194 21.5047 22.0703 20.8039 22.0703 20.1542ZM22.0703 13.8832C22.0703 13.1665 20.7795 12.3955 18.7324 11.8634L19.1102 12.8645C19.4413 12.9685 19.8673 13.1142 20.2501 13.2826C20.4919 13.389 20.6421 13.6192 20.6421 13.8832C20.6421 14.1474 20.4918 14.3776 20.2501 14.4839C17.7859 15.568 14.4034 15.7956 11.9998 15.7956C9.59615 15.7956 6.21365 15.568 3.74943 14.4839C3.5077 14.3775 3.35746 14.1474 3.35746 13.8832C3.35746 13.6411 3.48398 13.4278 3.69126 13.3119C3.51899 13.0381 3.48773 12.7102 3.58429 12.4196C2.5282 12.8699 1.92923 13.3878 1.92923 13.8832C1.92923 14.533 2.98012 15.2338 4.74041 15.7578C6.67495 16.3337 9.25302 16.6509 11.9998 16.6509C14.7465 16.6509 17.3246 16.3337 19.2591 15.7578C21.0194 15.2338 22.0703 14.533 22.0703 13.8832ZM19.9887 13.8847C19.988 13.8844 19.9873 13.8841 19.9866 13.8838C19.9864 13.8845 19.9858 13.8856 19.9856 13.8865V13.88C19.9859 13.8814 19.9875 13.8839 19.9887 13.8847ZM10.4684 6.68765C10.4684 5.54048 11.4017 4.6072 12.5489 4.6072C13.6961 4.6072 14.6294 5.54048 14.6294 6.68765C14.6294 7.83482 13.6961 8.76815 12.5489 8.76815C11.4017 8.76815 10.4684 7.83482 10.4684 6.68765ZM11.1247 6.68765C11.1247 7.473 11.7636 8.1119 12.5489 8.1119C13.3342 8.1119 13.9731 7.473 13.9731 6.68765C13.9731 5.90236 13.3342 5.26345 12.5489 5.26345C11.7636 5.26345 11.1247 5.90236 11.1247 6.68765Z" fill="black"/>
</g>
<defs>
<clipPath id="clip0_1002_502">
<rect width="24" height="24" fill="white"/>
</clipPath>
</defs>
</svg>
