<svg width="24" height="24" viewBox="0 0 24 24" fill="none" xmlns="http://www.w3.org/2000/svg">
<path d="M15.0884 3.42456C14.792 3.42456 14.5498 3.66648 14.5498 3.96168C14.5498 4.25832 14.792 4.50024 15.0884 4.50024C15.3833 4.50024 15.6252 4.25856 15.6252 3.96168C15.6252 3.66624 15.3836 3.42456 15.0884 3.42456Z" fill="black"/>
<path d="M12.7644 3.42456C12.4695 3.42456 12.2275 3.66648 12.2275 3.96168C12.2275 4.25832 12.4695 4.50024 12.7644 4.50024C13.0608 4.50024 13.303 4.25856 13.303 3.96168C13.303 3.66624 13.0608 3.42456 12.7644 3.42456Z" fill="black"/>
<path d="M20.9196 16.5962H17.7922V5.74681V2.87353C17.7922 2.25697 17.2908 1.75513 16.6743 1.75513H2.54884C1.933 1.75513 1.43164 2.25697 1.43164 2.87353V5.74705V21.1282C1.43164 21.744 1.933 22.2451 2.54884 22.2451H16.1288H16.674H20.9194C21.8283 22.2451 22.5677 21.5052 22.5677 20.5954C22.5677 20.1358 22.3786 19.7196 22.0748 19.4201C22.3786 19.1206 22.5677 18.7046 22.5677 18.245C22.568 17.3359 21.8285 16.5962 20.9196 16.5962ZM2.42308 2.87353C2.42308 2.80441 2.48044 2.74633 2.54884 2.74633H16.674C16.7429 2.74633 16.801 2.80465 16.801 2.87353V5.25145H2.42308V2.87353ZM14.6165 21.2539H2.54884C2.48044 21.2539 2.42308 21.1963 2.42308 21.1279V6.24241H16.8012V16.5962H16.1288C15.2189 16.5962 14.479 17.3359 14.479 18.2448C14.479 18.7044 14.6681 19.1203 14.9722 19.4198C14.6681 19.7194 14.479 20.1355 14.479 20.5951C14.479 20.8294 14.5282 21.0521 14.6165 21.2539ZM20.9196 21.2539H16.6743H16.129C15.7654 21.2539 15.4702 20.9585 15.4702 20.5951C15.4702 20.2318 15.7654 19.9366 16.129 19.9366H20.9199C21.2825 19.9366 21.5768 20.2318 21.5768 20.5951C21.5768 20.9585 21.2823 21.2539 20.9196 21.2539ZM20.9196 18.9034H16.1288C15.7652 18.9034 15.47 18.6079 15.47 18.2448C15.47 17.8822 15.7652 17.5874 16.1288 17.5874H20.9196C21.2823 17.5874 21.5765 17.8822 21.5765 18.2448C21.5765 18.6079 21.2823 18.9034 20.9196 18.9034Z" fill="black"/>
<path d="M9.68559 7.58786C6.46431 7.58786 3.84375 10.2084 3.84375 13.4297C3.84375 16.6503 6.46431 19.2701 9.68559 19.2701C12.9062 19.2701 15.5262 16.65 15.5262 13.4297C15.5262 10.2087 12.9062 7.58786 9.68559 7.58786ZM9.68559 8.57906C12.1062 8.57906 14.1186 10.3625 14.4779 12.6847C14.4659 12.6924 14.4551 12.6994 14.4429 12.7073C13.677 13.195 11.8828 14.3371 9.94983 12.9473C8.42343 11.8491 7.00239 11.9561 6.07935 12.2391C5.57367 12.3941 5.16135 12.618 4.87551 12.8026C5.18415 10.4232 7.22367 8.57906 9.68559 8.57906ZM9.68559 18.2791C7.19823 18.2791 5.14239 16.3975 4.86711 13.9834C4.95039 13.9661 5.03031 13.9275 5.09799 13.866C5.10303 13.8617 5.60247 13.422 6.36975 13.1866C7.40079 12.8705 8.41071 13.0606 9.37119 13.752C10.2462 14.3811 11.1054 14.6011 11.8852 14.6011C12.9789 14.6011 13.9154 14.1675 14.5197 13.8216C14.3193 16.3131 12.2279 18.2791 9.68559 18.2791Z" fill="black"/>
<path d="M6.33142 3.46609H4.15942C3.88558 3.46609 3.66406 3.68786 3.66406 3.96145C3.66406 4.23505 3.88582 4.45705 4.15942 4.45705H6.33142C6.60502 4.45705 6.82678 4.23505 6.82678 3.96145C6.82678 3.68786 6.60478 3.46609 6.33142 3.46609Z" fill="black"/>
</svg>
