<svg width="24" height="24" viewBox="0 0 24 24" fill="none" xmlns="http://www.w3.org/2000/svg">
<g clip-path="url(#clip0_1002_368)">
<path d="M20.1701 16.125H16.5469V15.29C18.7649 14.439 20.3438 12.2873 20.3438 9.77349V7.84139C20.3438 4.5847 17.6943 1.93514 14.4375 1.93514C14.3469 1.93514 14.2568 1.93753 14.1671 1.94156C13.5013 0.754687 12.2303 0 10.8633 0C8.7762 0 7.07815 1.698 7.07815 3.78516C7.07815 4.9958 7.65734 6.12122 8.61818 6.8303C8.56123 7.15894 8.53127 7.49672 8.53127 7.84139V9.77349C8.53127 12.2873 10.1101 14.439 12.3281 15.29V16.125H8.70499C7.7861 16.125 6.94198 16.4517 6.28127 16.9952V16.6897C6.47477 16.4663 6.63556 16.2079 6.75532 15.9193C7.26663 14.6871 7.77809 13.4549 8.28996 12.2229C8.3801 12.006 8.35587 11.7583 8.22546 11.5628C8.09501 11.3674 7.87559 11.25 7.6406 11.25H6.5156C4.6151 11.25 3.82906 11.6602 3.33162 12.1367C3.31381 12.1205 3.29632 12.1043 3.28029 12.0894C2.94166 11.7755 2.37499 11.2501 1.1367 11.2501H0.703149C0.468352 11.2501 0.249071 11.3673 0.118571 11.5625C-0.011882 11.7577 -0.0363508 12.0051 0.0534149 12.222C0.49179 13.2815 1.58777 15.9201 1.58777 15.9201C1.70768 16.2089 1.8687 16.4674 2.06248 16.6909V23.2968C2.06248 23.6851 2.37729 24 2.7656 24C3.15391 24 3.46873 23.6851 3.46873 23.2968V19.9688H4.87498V19.9695V23.2968V23.2969C4.87498 23.6852 5.18979 24 5.5781 24C5.96641 24 6.28123 23.6852 6.28123 23.2969V23.2968V19.9695C6.28123 18.8518 7.03291 17.908 8.05423 17.6213C8.02924 17.7922 8.01565 17.9654 8.01565 18.1406C8.01565 20.105 9.61381 21.7031 11.5781 21.7031C12.387 21.7031 13.1797 21.424 13.8101 20.9173C14.0366 20.7353 14.2383 20.5262 14.4126 20.2967C15.0692 21.1633 16.105 21.7031 17.2509 21.7031C19.2153 21.7031 20.8134 20.105 20.8134 18.1406C20.8134 17.9609 20.7996 17.7831 20.7732 17.6077C21.8188 17.8781 22.5938 18.8344 22.5938 19.9695V23.2969C22.5938 23.6852 22.9086 24 23.2969 24C23.6853 24 24.0001 23.6852 24.0001 23.2969V19.9695C24 17.8496 22.2819 16.125 20.1701 16.125ZM2.32427 13.1206C2.56245 13.3414 2.8886 13.6438 3.42106 13.6438C3.84621 13.6438 4.0939 13.3756 4.22693 13.2315C4.41256 13.0305 4.75807 12.6563 6.5156 12.6563H6.58718C6.21012 13.5643 5.83324 14.4723 5.45642 15.3803C5.23863 15.9053 4.76918 16.2188 4.20077 16.2188H4.14199C3.57377 16.2188 3.10441 15.9054 2.88649 15.3807C2.88649 15.3807 2.08774 13.4576 1.79698 12.7564C2.02456 12.8427 2.16823 12.9759 2.32427 13.1206ZM3.46877 18.5625V17.5453C3.68445 17.5974 3.90982 17.625 4.14199 17.625H4.20077C4.43332 17.625 4.65907 17.5973 4.87502 17.545V18.5625H3.46877ZM18.8044 6.75384C17.9163 6.55266 17.1028 6.12173 16.4244 5.48836C16.1542 5.23617 15.735 5.23622 15.4648 5.48836C14.5013 6.3877 13.2447 6.88298 11.9265 6.88298C11.3047 6.88298 10.6991 6.77447 10.1234 6.56086C10.6763 4.70147 12.4009 3.34139 14.4375 3.34139C16.5439 3.34139 18.3167 4.7963 18.8044 6.75384ZM8.4844 3.78516C8.4844 2.47345 9.5516 1.40625 10.8633 1.40625C11.55 1.40625 12.1984 1.70995 12.645 2.21353C11.0652 2.71786 9.77238 3.87019 9.08018 5.35664C8.70227 4.92839 8.4844 4.37269 8.4844 3.78516ZM9.93752 9.77349V7.98352C10.5783 8.18634 11.245 8.28933 11.9265 8.28933C13.391 8.28933 14.7958 7.80834 15.9442 6.92391C16.8207 7.60092 17.8407 8.03873 18.9375 8.20917V9.77349C18.9375 12.2548 16.9189 14.2735 14.4375 14.2735C11.9562 14.2735 9.93752 12.2548 9.93752 9.77349ZM14.4375 15.6797C14.6755 15.6797 14.91 15.6652 15.1406 15.6377V17.3302C15.1406 17.7179 14.8252 18.0333 14.4375 18.0333C14.0498 18.0333 13.7344 17.7179 13.7344 17.3302V15.6377C13.965 15.6652 14.1996 15.6797 14.4375 15.6797ZM11.5781 20.2969C10.3892 20.2969 9.4219 19.3296 9.4219 18.1406C9.4219 17.9322 9.45199 17.7283 9.51026 17.5312H12.3379C12.4067 18.2547 12.8423 18.8726 13.4563 19.1966C13.0805 19.8588 12.3659 20.2969 11.5781 20.2969ZM17.2509 20.2969C16.461 20.2969 15.7575 19.873 15.3812 19.2159C16.0149 18.8975 16.467 18.2693 16.5371 17.5312H19.3188C19.377 17.7285 19.4072 17.9324 19.4072 18.1406C19.4072 19.3296 18.4399 20.2969 17.2509 20.2969Z" fill="black"/>
</g>
<defs>
<clipPath id="clip0_1002_368">
<rect width="24" height="24" fill="white"/>
</clipPath>
</defs>
</svg>
