<svg width="24" height="24" viewBox="0 0 24 24" fill="none" xmlns="http://www.w3.org/2000/svg">
<g clip-path="url(#clip0_1002_688)">
<path d="M21.7609 2.95609H2.23908C1.64544 2.95676 1.07631 3.19287 0.656551 3.61264C0.236787 4.0324 0.000669961 4.60153 0 5.19516L0 16.9323C0.000669961 17.526 0.236787 18.0951 0.656551 18.5149C1.07631 18.9346 1.64544 19.1707 2.23908 19.1714H3.2362V19.4973C3.23661 19.9074 3.39972 20.3006 3.68972 20.5906C3.97973 20.8806 4.37295 21.0438 4.78308 21.0442H6.14995C6.6325 21.0436 7.09512 20.8517 7.43633 20.5105C7.77754 20.1693 7.96947 19.7066 7.97002 19.2241V19.1716H16.0302V19.4975C16.0306 19.9076 16.1937 20.3008 16.4837 20.5908C16.7737 20.8808 17.167 21.0439 17.5771 21.0444H18.944C19.4265 21.0438 19.8891 20.8519 20.2303 20.5107C20.5716 20.1695 20.7635 19.7068 20.764 19.2243V19.1718H21.7611C22.3548 19.1711 22.9239 18.9349 23.3436 18.515C23.7634 18.0952 23.9994 17.526 24 16.9323V5.19516C23.9993 4.60152 23.7632 4.0324 23.3434 3.61263C22.9236 3.19287 22.3545 2.95676 21.7609 2.95609ZM6.84478 19.2239C6.84458 19.4082 6.77129 19.5849 6.64098 19.7152C6.51068 19.8455 6.334 19.9188 6.14972 19.919H4.78284C4.67098 19.9189 4.56372 19.8744 4.48462 19.7953C4.40551 19.7162 4.36104 19.609 4.36097 19.4971V19.1714H6.84455L6.84478 19.2239ZM19.6388 19.2239C19.6386 19.4082 19.5653 19.5849 19.435 19.7152C19.3047 19.8455 19.128 19.9188 18.9437 19.919H17.5769C17.465 19.9189 17.3577 19.8744 17.2786 19.7953C17.1995 19.7162 17.1551 19.609 17.155 19.4971V19.1714H19.6386L19.6388 19.2239ZM21.7609 18.0464H2.23908C1.94371 18.0461 1.66052 17.9286 1.45166 17.7198C1.2428 17.5109 1.12532 17.2277 1.125 16.9323V5.19516C1.12532 4.89979 1.2428 4.61661 1.45166 4.40775C1.66052 4.19889 1.94371 4.08141 2.23908 4.08109H21.7609C22.0563 4.08141 22.3394 4.19889 22.5483 4.40774C22.7572 4.6166 22.8747 4.89979 22.875 5.19516V9.73594H18.5116V6.30699C18.5113 5.99841 18.3886 5.70257 18.1704 5.48437C17.9522 5.26617 17.6563 5.14343 17.3477 5.14309H3.18684C2.87826 5.14343 2.58241 5.26617 2.3642 5.48437C2.146 5.70256 2.02325 5.99841 2.02289 6.30699V16.1484C2.02325 16.457 2.146 16.7529 2.3642 16.9711C2.58241 17.1893 2.87826 17.312 3.18684 17.3124H17.3478C17.6564 17.312 17.9522 17.1892 18.1704 16.9711C18.3886 16.7529 18.5113 16.457 18.5117 16.1484V10.8609H22.875V16.9323C22.8747 17.2277 22.7572 17.5109 22.5483 17.7198C22.3394 17.9286 22.0563 18.0461 21.7609 18.0464ZM17.3866 6.30699V16.1484C17.3861 16.1586 17.3819 16.1682 17.3747 16.1754C17.3675 16.1826 17.3579 16.1869 17.3477 16.1874H3.18684C3.17668 16.1869 3.16707 16.1826 3.15987 16.1754C3.15267 16.1682 3.1484 16.1586 3.14789 16.1484V6.30699C3.1484 6.29683 3.15267 6.28722 3.15987 6.28003C3.16707 6.27284 3.17668 6.26858 3.18684 6.26808H17.3478C17.3579 6.2686 17.3675 6.27286 17.3747 6.28005C17.3819 6.28724 17.3861 6.29684 17.3866 6.30699ZM20.6933 9.51324C21.0587 9.51323 21.4159 9.40488 21.7197 9.20189C22.0234 8.99889 22.2602 8.71037 22.4 8.37281C22.5398 8.03525 22.5764 7.66382 22.5051 7.30547C22.4339 6.94712 22.2579 6.61796 21.9995 6.35961C21.7412 6.10126 21.412 5.92532 21.0537 5.85405C20.6953 5.78277 20.3239 5.81936 19.9863 5.95918C19.6488 6.099 19.3603 6.33578 19.1573 6.63957C18.9543 6.94337 18.846 7.30053 18.846 7.6659C18.8465 8.15569 19.0413 8.62527 19.3876 8.97161C19.734 9.31796 20.2035 9.51278 20.6933 9.51334V9.51324ZM20.6933 6.94355C20.8362 6.94356 20.9759 6.98594 21.0946 7.06531C21.2134 7.14469 21.306 7.25751 21.3607 7.3895C21.4153 7.52149 21.4296 7.66673 21.4018 7.80685C21.3739 7.94697 21.3051 8.07567 21.2041 8.17669C21.103 8.27771 20.9743 8.3465 20.8342 8.37436C20.6941 8.40223 20.5488 8.38793 20.4169 8.33325C20.2849 8.27858 20.1721 8.18599 20.0927 8.06721C20.0133 7.94842 19.971 7.80876 19.971 7.6659C19.9712 7.4744 20.0474 7.29081 20.1828 7.15541C20.3182 7.02002 20.5018 6.94386 20.6933 6.94365V6.94355ZM22.404 11.9931C22.404 12.1423 22.3447 12.2853 22.2392 12.3908C22.1338 12.4963 21.9907 12.5556 21.8415 12.5556H19.5451C19.396 12.5556 19.2529 12.4963 19.1474 12.3908C19.0419 12.2853 18.9826 12.1423 18.9826 11.9931C18.9826 11.8439 19.0419 11.7008 19.1474 11.5953C19.2529 11.4898 19.396 11.4306 19.5451 11.4306H21.8415C21.9154 11.4306 21.9885 11.4451 22.0568 11.4734C22.125 11.5017 22.187 11.5431 22.2393 11.5954C22.2915 11.6476 22.3329 11.7096 22.3612 11.7779C22.3895 11.8461 22.404 11.9193 22.404 11.9932V11.9931ZM22.404 13.9341C22.404 14.0833 22.3447 14.2263 22.2392 14.3318C22.1338 14.4373 21.9907 14.4966 21.8415 14.4966H19.5451C19.396 14.4966 19.2529 14.4373 19.1474 14.3318C19.0419 14.2263 18.9826 14.0833 18.9826 13.9341C18.9826 13.7849 19.0419 13.6418 19.1474 13.5363C19.2529 13.4308 19.396 13.3716 19.5451 13.3716H21.8415C21.9154 13.3716 21.9885 13.3861 22.0568 13.4144C22.125 13.4427 22.187 13.4841 22.2393 13.5364C22.2915 13.5886 22.3329 13.6506 22.3612 13.7189C22.3895 13.7871 22.404 13.8603 22.404 13.9342V13.9341ZM22.404 15.875C22.404 16.0242 22.3447 16.1673 22.2392 16.2728C22.1338 16.3783 21.9907 16.4375 21.8415 16.4375H19.5451C19.396 16.4375 19.2529 16.3783 19.1474 16.2728C19.0419 16.1673 18.9826 16.0242 18.9826 15.875C18.9826 15.7258 19.0419 15.5828 19.1474 15.4773C19.2529 15.3718 19.396 15.3125 19.5451 15.3125H21.8415C21.9154 15.3125 21.9885 15.3271 22.0568 15.3553C22.125 15.3836 22.187 15.4251 22.2393 15.4773C22.2915 15.5296 22.3329 15.5916 22.3612 15.6598C22.3895 15.7281 22.404 15.8012 22.404 15.8751V15.875ZM8.31853 9.58407C7.87655 10.4822 8.01464 10.8371 8.17444 11.2481C8.41092 11.8561 8.54695 12.4364 7.82156 13.3644C7.76095 13.4901 7.65572 13.5889 7.52635 13.6414C7.39697 13.6939 7.2527 13.6964 7.12158 13.6484C6.99046 13.6004 6.88187 13.5054 6.81691 13.3818C6.75196 13.2582 6.7353 13.1149 6.77016 12.9797L6.77264 12.9695C6.79469 12.8714 6.84149 12.7805 6.90858 12.7055C7.33008 12.1805 7.2742 12.037 7.12613 11.6559C6.92456 11.1383 6.64908 10.4293 7.30936 9.08748C7.37525 8.95363 7.49161 8.85143 7.63285 8.80338C7.77409 8.75532 7.92863 8.76534 8.06248 8.83123C8.19633 8.89712 8.29852 9.01349 8.34657 9.15472C8.39463 9.29596 8.38461 9.4505 8.31872 9.58435L8.31853 9.58407ZM11.0214 9.58407C10.5795 10.4822 10.7175 10.8371 10.8773 11.2481C11.1138 11.8561 11.2499 12.4364 10.5245 13.3644C10.4639 13.4901 10.3586 13.5889 10.2293 13.6414C10.0999 13.6939 9.95561 13.6964 9.82449 13.6484C9.69337 13.6004 9.58477 13.5054 9.51982 13.3818C9.45487 13.2582 9.4382 13.1149 9.47306 12.9797L9.47559 12.9695C9.49764 12.8714 9.54443 12.7805 9.61153 12.7055C10.033 12.1805 9.97716 12.037 9.82908 11.6559C9.62775 11.1383 9.35203 10.4293 10.0123 9.08748C10.0782 8.95363 10.1946 8.85143 10.3358 8.80338C10.477 8.75532 10.6316 8.76534 10.7654 8.83123C10.8993 8.89712 11.0015 9.01349 11.0495 9.15472C11.0976 9.29596 11.0876 9.4505 11.0217 9.58435L11.0214 9.58407ZM13.7243 9.58407C13.2824 10.4822 13.4205 10.8371 13.5802 11.2481C13.8167 11.8561 13.9528 12.4364 13.2274 13.3644C13.1668 13.4902 13.0616 13.589 12.9322 13.6415C12.8028 13.6941 12.6585 13.6966 12.5273 13.6486C12.3962 13.6006 12.2876 13.5056 12.2226 13.3819C12.1577 13.2583 12.141 13.1149 12.176 12.9797L12.1785 12.9696C12.2005 12.8713 12.2473 12.7803 12.3144 12.7052C12.7357 12.1802 12.68 12.037 12.5317 11.6559C12.3302 11.1383 12.0547 10.4293 12.715 9.08748C12.7809 8.95363 12.8972 8.85143 13.0385 8.80338C13.1797 8.75532 13.3343 8.76534 13.4681 8.83123C13.602 8.89712 13.7041 9.01349 13.7522 9.15472C13.8003 9.29596 13.7902 9.4505 13.7243 9.58435V9.58407Z" fill="black"/>
</g>
<defs>
<clipPath id="clip0_1002_688">
<rect width="24" height="24" fill="white"/>
</clipPath>
</defs>
</svg>
