<svg width="24" height="24" viewBox="0 0 24 24" fill="none" xmlns="http://www.w3.org/2000/svg">
<g clip-path="url(#clip0_1002_690)">
<path d="M22.5938 0.304688H1.40625C0.629578 0.304688 0 0.934266 0 1.71094V22.2891C0 23.0657 0.629578 23.6953 1.40625 23.6953H22.5938C23.3704 23.6953 24 23.0657 24 22.2891V1.71094C24 0.934266 23.3704 0.304688 22.5938 0.304688ZM22.5938 22.3359H1.40625V1.71094H22.5938L22.5946 22.3359C22.5946 22.3359 22.5944 22.3359 22.5938 22.3359Z" fill="black"/>
<path d="M19.125 7.71094H4.92188C3.75689 7.71094 2.8125 8.65533 2.8125 9.82031V19.0078C2.8125 20.1728 3.75689 21.1172 4.92188 21.1172H19.125C20.29 21.1172 21.2344 20.1728 21.2344 19.0078V9.82031C21.2344 8.65533 20.29 7.71094 19.125 7.71094ZM19.8281 19.0078C19.8281 19.3961 19.5133 19.7109 19.125 19.7109H4.92188C4.53356 19.7109 4.21875 19.3961 4.21875 19.0078V9.82031C4.21875 9.432 4.53356 9.11719 4.92188 9.11719H19.125C19.5133 9.11719 19.8281 9.432 19.8281 9.82031V19.0078Z" fill="black"/>
<path d="M11.9996 2.74529C10.9078 2.74529 10.0195 3.63352 10.0195 4.72533C10.0195 5.81714 10.9078 6.70538 11.9996 6.70538C13.0914 6.70538 13.9796 5.81714 13.9796 4.72533C13.9796 3.63352 13.0914 2.74529 11.9996 2.74529ZM11.9996 5.29913C11.6832 5.29913 11.4258 5.04174 11.4258 4.72533C11.4258 4.40897 11.6832 4.15154 11.9996 4.15154C12.316 4.15154 12.5734 4.40893 12.5734 4.72533C12.5734 5.04174 12.316 5.29913 11.9996 5.29913Z" fill="black"/>
<path d="M17.2427 2.74529C16.1509 2.74529 15.2627 3.63352 15.2627 4.72533C15.2627 5.81714 16.1509 6.70538 17.2427 6.70538C18.3345 6.70538 19.2227 5.81714 19.2227 4.72533C19.2227 3.63352 18.3345 2.74529 17.2427 2.74529ZM17.2427 5.29913C16.9263 5.29913 16.6689 5.04174 16.6689 4.72533C16.6689 4.40897 16.9263 4.15154 17.2427 4.15154C17.5591 4.15154 17.8165 4.40893 17.8165 4.72533C17.8165 5.04174 17.5591 5.29913 17.2427 5.29913Z" fill="black"/>
<path d="M6.75739 2.74529C5.66558 2.74529 4.77734 3.63352 4.77734 4.72533C4.77734 5.81714 5.66558 6.70538 6.75739 6.70538C7.84916 6.70538 8.73739 5.81714 8.73739 4.72533C8.73739 3.63352 7.84916 2.74529 6.75739 2.74529ZM6.75739 5.29913C6.44098 5.29913 6.18359 5.04174 6.18359 4.72533C6.18359 4.40897 6.44098 4.15154 6.75739 4.15154C7.07375 4.15154 7.33114 4.40893 7.33114 4.72533C7.33114 5.04174 7.07375 5.29913 6.75739 5.29913Z" fill="black"/>
<path d="M18.0938 10.0547H5.90625C5.51794 10.0547 5.20312 10.3695 5.20312 10.7578C5.20312 11.1461 5.51794 11.4609 5.90625 11.4609H18.0938C18.4821 11.4609 18.7969 11.1461 18.7969 10.7578C18.7969 10.3695 18.4821 10.0547 18.0938 10.0547Z" fill="black"/>
</g>
<defs>
<clipPath id="clip0_1002_690">
<rect width="24" height="24" fill="white"/>
</clipPath>
</defs>
</svg>
