<svg width="24" height="24" viewBox="0 0 24 24" fill="none" xmlns="http://www.w3.org/2000/svg">
<path d="M1.5 16.4327C1.66325 16.4316 1.82632 16.4436 1.98765 16.4686C2.00065 16.4723 2.0138 16.474 2.02705 16.4767C2.37191 16.5462 2.70012 16.6816 2.99365 16.8755C3.58699 17.2692 4.28643 17.4721 4.9983 17.4571C5.70283 17.4739 6.39565 17.2749 6.9839 16.8868C6.9905 16.8833 6.99685 16.8799 7.0034 16.876C7.44206 16.5748 7.96461 16.4196 8.4966 16.4327C9.02988 16.4207 9.5536 16.5755 9.99465 16.8755C10.5861 17.2695 11.2842 17.4725 11.9946 17.4571C12.7065 17.4707 13.4057 17.2681 14 16.876C14.4386 16.5748 14.9612 16.4196 15.4931 16.4327C16.0297 16.4212 16.5563 16.5778 16.9995 16.8804C17.5914 17.2705 18.2879 17.4716 18.9966 17.4571C19.4742 17.4676 19.9487 17.3791 20.3904 17.1971C20.6008 17.1041 20.8046 16.997 21.0004 16.8762C21.4438 16.58 21.9668 16.4253 22.5 16.4327C22.6326 16.4327 22.7598 16.38 22.8536 16.2863C22.9473 16.1925 23 16.0653 23 15.9327C23 15.8001 22.9473 15.6729 22.8536 15.5791C22.7598 15.4854 22.6326 15.4327 22.5 15.4327C22.3056 15.4304 22.1113 15.4441 21.9192 15.4737C21.411 15.5495 20.9252 15.7338 20.4946 16.0142C20.3356 16.1126 20.1703 16.2004 19.9996 16.2769C19.6817 16.4067 19.34 16.468 18.9967 16.4569C18.4587 16.4705 17.9301 16.313 17.4872 16.0072C17.0677 15.7364 16.5963 15.5559 16.1032 15.4772L11.9832 9.46045L17.2625 6.8179C17.4947 6.70188 17.6986 6.53632 17.8599 6.33288C18.0211 6.12944 18.1357 5.8931 18.1956 5.64052C18.2555 5.38795 18.2593 5.1253 18.2066 4.87113C18.1539 4.61695 18.046 4.37744 17.8906 4.16949C17.6415 3.84794 17.2909 3.62005 16.8959 3.52281C16.5009 3.42558 16.0846 3.4647 15.7146 3.63385L8.4204 7.0865C8.16691 7.20661 7.94098 7.3778 7.75677 7.58934C7.57256 7.80088 7.43405 8.04821 7.34992 8.3158C7.2658 8.58339 7.23787 8.86548 7.26789 9.14437C7.29792 9.42326 7.38525 9.69294 7.5244 9.9365L8.4939 11.6606L2.0266 15.4672C1.85198 15.4445 1.67609 15.433 1.5 15.4327C1.36739 15.4327 1.24021 15.4854 1.14645 15.5791C1.05268 15.6729 1 15.8001 1 15.9327C1 16.0653 1.05268 16.1925 1.14645 16.2863C1.24021 16.38 1.36739 16.4327 1.5 16.4327ZM9.00365 12.5205C9.23265 12.3854 9.39913 12.1654 9.467 11.9083C9.53487 11.6511 9.49865 11.3776 9.3662 11.147L8.3921 9.4395C8.32145 9.31558 8.27715 9.1784 8.26199 9.03656C8.24682 8.89472 8.26112 8.75128 8.30398 8.61522C8.34685 8.47916 8.41735 8.35343 8.51107 8.24589C8.6048 8.13836 8.71972 8.05134 8.84865 7.9903L16.1413 4.53865C16.2727 4.47515 16.4195 4.45039 16.5644 4.46724C16.7093 4.4841 16.8465 4.54187 16.9597 4.63382C17.073 4.72576 17.1578 4.84806 17.2041 4.98642C17.2505 5.12478 17.2564 5.27347 17.2213 5.4151C17.1959 5.52459 17.1463 5.62701 17.0762 5.71487C17.0061 5.80273 16.9172 5.8738 16.816 5.9229L11.5391 8.5645C11.4094 8.62791 11.295 8.71846 11.2034 8.83001C11.1119 8.94156 11.0454 9.07149 11.0085 9.211C10.9714 9.35205 10.965 9.49945 10.9899 9.64318C11.0148 9.78691 11.0702 9.92361 11.1526 10.044L14.8884 15.4767C14.3905 15.5553 13.9149 15.7385 13.4929 16.0142C13.0529 16.3164 12.5284 16.4714 11.9949 16.4571C11.4585 16.4699 10.9318 16.3125 10.4905 16.0074C9.89924 15.6187 9.20405 15.4183 8.4966 15.4327C7.79035 15.4173 7.09624 15.6179 6.5071 16.0077C6.4995 16.0116 6.4917 16.016 6.48415 16.0204C6.04752 16.3194 5.5273 16.4723 4.9983 16.4569C4.46429 16.4698 3.93978 16.3143 3.499 16.0126C3.429 15.9715 3.35625 15.9298 3.2818 15.8882L9.00365 12.5205Z" fill="black"/>
<path d="M22.5 18.5059C21.7886 18.4914 21.0897 18.6939 20.4963 19.0865C20.0501 19.3762 19.5295 19.5303 18.9974 19.5303C18.4654 19.5303 17.9448 19.3762 17.4986 19.0865C16.8992 18.7072 16.2045 18.5059 15.4952 18.5059C14.786 18.5059 14.0913 18.7072 13.492 19.0865C13.0517 19.3878 12.5278 19.5431 11.9944 19.5303C11.4616 19.5431 10.9382 19.3878 10.4986 19.0865C9.90607 18.6939 9.20792 18.4913 8.4973 18.5059C7.78636 18.4913 7.08787 18.6939 6.495 19.0865C6.05501 19.3879 5.53135 19.5431 4.9982 19.5303C4.46512 19.5431 3.94153 19.3878 3.5016 19.0865C2.90895 18.6939 2.21071 18.4914 1.5 18.5059C1.36739 18.5059 1.24021 18.5586 1.14645 18.6523C1.05268 18.7461 1 18.8733 1 19.0059C1 19.1385 1.05268 19.2657 1.14645 19.3594C1.24021 19.4532 1.36739 19.5059 1.5 19.5059C2.03303 19.4932 2.55652 19.6486 2.99635 19.95C3.5891 20.3426 4.28747 20.5451 4.9983 20.5306C5.70921 20.5451 6.40765 20.3426 7.0005 19.95C7.44049 19.6486 7.96415 19.4933 8.4973 19.5061C9.03015 19.4934 9.55349 19.6487 9.99315 19.95C10.5856 20.3426 11.2838 20.5452 11.9944 20.5306C12.7055 20.5452 13.4042 20.3426 13.9973 19.95C14.4433 19.6603 14.9637 19.5061 15.4955 19.5061C16.0273 19.5061 16.5477 19.6603 16.9937 19.95C17.5932 20.3293 18.288 20.5306 18.9974 20.5306C19.7068 20.5306 20.4017 20.3293 21.0012 19.95C21.4419 19.6486 21.9662 19.4932 22.5 19.5059C22.6326 19.5059 22.7598 19.4532 22.8536 19.3594C22.9473 19.2657 23 19.1385 23 19.0059C23 18.8733 22.9473 18.7461 22.8536 18.6523C22.7598 18.5586 22.6326 18.5059 22.5 18.5059Z" fill="black"/>
<path d="M15.3418 11.3233C15.3418 12.03 15.5514 12.7208 15.9441 13.3084C16.3367 13.896 16.8948 14.354 17.5477 14.6244C18.2006 14.8948 18.9191 14.9655 19.6122 14.8276C20.3053 14.6897 20.942 14.3494 21.4417 13.8496C21.9413 13.3499 22.2816 12.7132 22.4195 12.0201C22.5573 11.327 22.4865 10.6085 22.2161 9.95563C21.9456 9.30273 21.4876 8.7447 20.9 8.3521C20.3123 7.9595 19.6215 7.74997 18.9148 7.75C17.9674 7.75101 17.0592 8.12781 16.3893 8.79772C15.7195 9.46764 15.3427 10.3759 15.3418 11.3233ZM18.9148 8.75C19.4237 8.75 19.9211 8.9009 20.3443 9.18361C20.7674 9.46632 21.0972 9.86816 21.2919 10.3383C21.4867 10.8084 21.5376 11.3258 21.4384 11.8249C21.3391 12.324 21.0941 12.7824 20.7343 13.1423C20.3745 13.5021 19.916 13.7472 19.4169 13.8465C18.9178 13.9458 18.4005 13.8949 17.9303 13.7002C17.4602 13.5055 17.0583 13.1758 16.7755 12.7527C16.4928 12.3296 16.3418 11.8321 16.3418 11.3232C16.3426 10.6411 16.6139 9.98702 17.0962 9.50461C17.5786 9.0222 18.2326 8.75082 18.9148 8.75Z" fill="black"/>
</svg>
