<svg width="24" height="24" viewBox="0 0 24 24" fill="none" xmlns="http://www.w3.org/2000/svg">
<path d="M23.6934 13.8424L22.2195 12.8359L22.6288 12.5089C22.9913 12.2193 22.9788 11.6619 22.6016 11.3895L9.08151 1.6257C8.47425 1.18709 7.63106 1.30109 7.16194 1.88501L2.71861 7.41561C2.2133 8.04471 2.34084 8.97167 2.99766 9.44075L6.37547 11.8529L5.01937 13.7796C4.79494 14.0985 4.87308 14.5393 5.19323 14.7618L5.67661 15.0975C4.88789 15.8586 3.83016 16.2892 2.72536 16.2892H1.40625V14.7657C1.40625 14.3774 1.09144 14.0626 0.703125 14.0626C0.314812 14.0626 0 14.3774 0 14.7657V21.9376C0 22.3259 0.314812 22.6407 0.703125 22.6407C1.09144 22.6407 1.40625 22.3259 1.40625 21.9376V20.5079H2.35931C4.88316 20.5079 7.35066 19.4465 9.10326 17.4775L9.80653 17.9659C10.1275 18.1888 10.5689 18.107 10.7887 17.7842L12.0626 15.9142L14.9588 17.9825C15.2145 18.1651 15.5606 18.1561 15.8063 17.9597L16.8557 17.1213L19.5843 19.0852C19.8874 19.3033 20.3079 19.2464 20.5423 18.956L23.8441 14.8647C24.1015 14.5456 24.0323 14.0739 23.6934 13.8424ZM2.35931 19.1016H1.40625V17.6954H2.72531C4.28887 17.6954 5.78147 17.0472 6.84825 15.9112L7.93837 16.6684C6.50817 18.2031 4.47286 19.1016 2.35931 19.1016ZM10.0259 16.4061L6.57651 14.0104L7.51987 12.6702L10.9179 15.0968L10.0259 16.4061ZM15.3436 16.5293L3.81487 8.29634L8.2582 2.76575L21.0281 11.9878L15.3436 16.5293ZM19.8657 17.555L17.9966 16.2097L21.0704 13.7539L22.2714 14.5742L19.8657 17.555Z" fill="black"/>
<path d="M17.625 12.0001C18.0133 12.0001 18.3281 11.6853 18.3281 11.297C18.3281 10.9087 18.0133 10.5939 17.625 10.5939C17.2367 10.5939 16.9219 10.9087 16.9219 11.297C16.9219 11.6853 17.2367 12.0001 17.625 12.0001Z" fill="black"/>
</svg>
