<svg width="24" height="24" viewBox="0 0 24 24" fill="none" xmlns="http://www.w3.org/2000/svg">
<path fill-rule="evenodd" clip-rule="evenodd" d="M22.3101 20.478L20.4351 14.478C20.2071 13.748 19.5301 13.25 18.7651 13.25C16.2171 13.25 7.78315 13.25 5.23515 13.25C4.47015 13.25 3.79315 13.748 3.56515 14.478L1.69015 20.478C1.52415 21.009 1.62015 21.588 1.95015 22.037C2.28015 22.485 2.80415 22.75 3.36015 22.75H20.6401C21.1961 22.75 21.7201 22.485 22.0501 22.037C22.3801 21.588 22.4761 21.009 22.3101 20.478ZM20.8781 20.926C20.9021 21.001 20.8881 21.084 20.8411 21.148C20.7941 21.212 20.7191 21.25 20.6401 21.25H3.36015C3.28115 21.25 3.20615 21.212 3.15915 21.148C3.11215 21.084 3.09815 21.001 3.12215 20.926C3.12215 20.925 4.99715 14.926 4.99715 14.926C5.02915 14.821 5.12615 14.75 5.23515 14.75H18.7651C18.8741 14.75 18.9711 14.821 19.0031 14.925L20.8781 20.926Z" fill="black"/>
<path fill-rule="evenodd" clip-rule="evenodd" d="M14.75 7C14.75 5.482 13.518 4.25 12 4.25C10.482 4.25 9.25 5.482 9.25 7C9.25 8.518 10.482 9.75 12 9.75C13.518 9.75 14.75 8.518 14.75 7ZM13.25 7C13.25 7.69 12.69 8.25 12 8.25C11.31 8.25 10.75 7.69 10.75 7C10.75 6.31 11.31 5.75 12 5.75C12.69 5.75 13.25 6.31 13.25 7Z" fill="black"/>
<path fill-rule="evenodd" clip-rule="evenodd" d="M11.25 2V3C11.25 3.414 11.586 3.75 12 3.75C12.414 3.75 12.75 3.414 12.75 3V2C12.75 1.586 12.414 1.25 12 1.25C11.586 1.25 11.25 1.586 11.25 2Z" fill="black"/>
<path fill-rule="evenodd" clip-rule="evenodd" d="M7.93459 3.99499L8.64159 4.70199C8.93459 4.99499 9.40959 4.99499 9.70259 4.70199C9.99459 4.40999 9.99459 3.93399 9.70259 3.64199L8.99559 2.93499C8.70259 2.64199 8.22759 2.64199 7.93459 2.93499C7.64159 3.22699 7.64159 3.70299 7.93459 3.99499Z" fill="black"/>
<path fill-rule="evenodd" clip-rule="evenodd" d="M7 7.75H8C8.414 7.75 8.75 7.414 8.75 7C8.75 6.586 8.414 6.25 8 6.25H7C6.586 6.25 6.25 6.586 6.25 7C6.25 7.414 6.586 7.75 7 7.75Z" fill="black"/>
<path fill-rule="evenodd" clip-rule="evenodd" d="M8.99559 11.066L9.70259 10.359C9.99459 10.066 9.99459 9.591 9.70259 9.298C9.40959 9.005 8.93459 9.005 8.64159 9.298L7.93459 10.005C7.64159 10.298 7.64159 10.773 7.93459 11.066C8.22759 11.358 8.70259 11.358 8.99559 11.066Z" fill="black"/>
<path fill-rule="evenodd" clip-rule="evenodd" d="M12.75 12V11C12.75 10.586 12.414 10.25 12 10.25C11.586 10.25 11.25 10.586 11.25 11V12C11.25 12.414 11.586 12.75 12 12.75C12.414 12.75 12.75 12.414 12.75 12Z" fill="black"/>
<path fill-rule="evenodd" clip-rule="evenodd" d="M16.0661 10.005L15.3591 9.298C15.0661 9.005 14.5911 9.005 14.2981 9.298C14.0061 9.591 14.0061 10.066 14.2981 10.359L15.0051 11.066C15.2981 11.358 15.7731 11.358 16.0661 11.066C16.3591 10.773 16.3591 10.298 16.0661 10.005Z" fill="black"/>
<path fill-rule="evenodd" clip-rule="evenodd" d="M17 6.25H16C15.586 6.25 15.25 6.586 15.25 7C15.25 7.414 15.586 7.75 16 7.75H17C17.414 7.75 17.75 7.414 17.75 7C17.75 6.586 17.414 6.25 17 6.25Z" fill="black"/>
<path fill-rule="evenodd" clip-rule="evenodd" d="M15.0051 2.93499L14.2981 3.64199C14.0061 3.93399 14.0061 4.40999 14.2981 4.70199C14.5911 4.99499 15.0661 4.99499 15.3591 4.70199L16.0661 3.99499C16.3591 3.70299 16.3591 3.22699 16.0661 2.93499C15.7731 2.64199 15.2981 2.64199 15.0051 2.93499Z" fill="black"/>
<path fill-rule="evenodd" clip-rule="evenodd" d="M15.9999 22.75C16.2149 22.75 16.4199 22.658 16.5619 22.496C16.7049 22.335 16.7709 22.121 16.7439 21.907L15.7439 13.907C15.6969 13.532 15.3779 13.25 14.9999 13.25H8.99993C8.62193 13.25 8.30293 13.532 8.25593 13.907L7.25593 21.907C7.22893 22.121 7.29493 22.335 7.43793 22.496C7.57993 22.658 7.78493 22.75 7.99993 22.75H15.9999ZM15.1499 21.25H8.84993L9.66193 14.75H14.3379L15.1499 21.25Z" fill="black"/>
<path fill-rule="evenodd" clip-rule="evenodd" d="M20.75 17.25H3.25C2.836 17.25 2.5 17.586 2.5 18C2.5 18.414 2.836 18.75 3.25 18.75H20.75C21.164 18.75 21.5 18.414 21.5 18C21.5 17.586 21.164 17.25 20.75 17.25Z" fill="black"/>
</svg>
