<svg width="24" height="24" viewBox="0 0 24 24" fill="none" xmlns="http://www.w3.org/2000/svg">
<g clip-path="url(#clip0_1002_787)">
<path d="M1.62952 13.9432C1.6658 13.9314 2.55394 13.9914 2.87245 13.0843C2.9723 12.8008 3.15286 12.554 3.39272 12.3677V20.8638L2.66972 20.8584C2.56692 20.8542 2.48011 20.8956 2.41134 20.9637C2.34258 21.0319 2.30395 21.1246 2.30395 21.2214V23.2511C2.30395 23.4515 2.46628 23.614 2.66686 23.614H8.15606C8.22872 23.614 8.29959 23.5922 8.3595 23.5516L19.8508 15.7667H23.2507C23.4513 15.7667 23.6137 15.6042 23.6137 15.4038V9.17385C23.6137 8.97341 23.4513 8.81094 23.2507 8.81094H20.5147V3.47314L21.3525 3.03941C21.5942 2.91411 21.8675 2.84802 22.1429 2.84802H22.3711C23.0555 2.84802 23.6123 2.30755 23.6123 1.64333V1.59158C23.6123 0.927408 23.0555 0.386892 22.3711 0.386892C22.1756 0.407142 21.3199 0.266424 20.1574 0.868017L2.45494 10.0321C1.48988 10.5318 0.776766 11.3594 0.446438 12.3628C0.185766 13.1555 0.799079 13.9432 1.62952 13.9432ZM4.11858 11.9608L7.14281 10.3953V18.0342L6.42052 18.027C6.30816 18.0322 6.23053 18.0641 6.16181 18.1321C6.09272 18.2002 6.05405 18.293 6.05405 18.39C6.05419 18.4625 6.05873 20.9377 6.05864 20.8838L4.11858 20.8693V11.9608ZM14.026 11.9094C13.9267 11.9053 13.835 11.9456 13.7658 12.0138C13.6967 12.082 13.6577 12.1753 13.6577 12.2724C13.6585 12.3805 13.6777 14.9513 13.6765 14.7863L11.6564 14.7517V8.05888L14.7465 6.45917V11.9201L14.026 11.9094ZM10.9305 14.7392L10.211 14.7268C10.11 14.7265 10.0196 14.7627 9.95016 14.831C9.88069 14.8993 9.84169 14.9925 9.84169 15.0898V18.0608L7.86863 18.0413V10.0196L10.9305 8.43458V14.7392H10.9305ZM22.8878 15.0409H19.7395C19.6669 15.0409 19.596 15.0627 19.5361 15.1033L8.04483 22.8882H3.02981V21.587L6.41873 21.6123C6.61814 21.6119 6.7845 21.4537 6.7845 21.2494C6.78445 21.2131 6.77958 18.5893 6.77991 18.7565L10.1965 18.7903C10.419 18.7899 10.563 18.6116 10.563 18.4274C10.563 18.379 10.5679 15.2601 10.5675 15.459L14.0331 15.5183C14.2794 15.5 14.4023 15.3346 14.4023 15.1554C14.4021 15.1191 14.3823 12.4723 14.3835 12.6407L17.8405 12.6917C18.0424 12.6926 18.2088 12.5331 18.2088 12.3288C18.2085 12.1878 18.2035 9.37991 18.2038 9.53689H22.8878V15.0409H22.8878ZM19.7888 8.81094H17.8409C17.6403 8.81094 17.478 8.97345 17.478 9.17385C17.4784 9.39327 17.4832 12.1229 17.483 11.9605L15.4724 11.9308V6.08338L19.7888 3.84889V8.81094ZM1.13616 12.5895C1.40658 11.7678 1.9935 11.0884 2.78883 10.6768L20.4913 1.51274C21.3982 1.04272 22.285 1.12142 22.3711 1.1128C22.6553 1.1128 22.8864 1.32758 22.8864 1.59163V1.64338C22.8864 1.90742 22.6553 2.1222 22.3711 2.1222H22.1429C21.7519 2.1222 21.3635 2.21647 21.0187 2.39474L3.31584 11.5589C2.78278 11.8348 2.38195 12.2909 2.18775 12.8435C2.04038 13.2634 1.66584 13.2063 1.62956 13.2174C1.27092 13.2174 1.03627 12.8923 1.13616 12.5895Z" fill="black"/>
</g>
<defs>
<clipPath id="clip0_1002_787">
<rect width="24" height="24" fill="white"/>
</clipPath>
</defs>
</svg>
