<svg width="24" height="24" viewBox="0 0 24 24" fill="none" xmlns="http://www.w3.org/2000/svg">
<g clip-path="url(#clip0_1002_883)">
<path d="M23.597 20.1348C23.1716 19.8396 22.5875 19.945 22.2923 20.3703C21.1042 22.0817 17.6463 22.0827 16.4576 20.3703C16.2824 20.1179 15.9948 19.9674 15.6875 19.9674C15.3802 19.9674 15.0925 20.1179 14.9173 20.3703C13.7293 22.0817 10.2713 22.0827 9.08265 20.3703C8.90743 20.1179 8.61976 19.9674 8.3125 19.9674C8.00523 19.9674 7.71752 20.118 7.54235 20.3703C6.35431 22.0818 2.8964 22.0827 1.70771 20.3703C1.41244 19.945 0.828245 19.8396 0.402998 20.1348C-0.0223437 20.43 -0.127812 21.0141 0.167452 21.4394C1.8886 23.9189 6.04953 24.1873 8.3125 22.2809C10.3026 23.9573 13.7207 23.9377 15.6874 22.2809C17.9498 24.1868 22.1128 23.9167 23.8324 21.4394C24.1277 21.0141 24.0222 20.43 23.597 20.1348Z" fill="black"/>
<path d="M4.59374 14.8115C5.11152 14.8115 5.53124 14.3918 5.53124 13.8741V12.4679H13.9686V13.8741C13.9686 14.3918 14.3884 14.8115 14.9061 14.8115C15.4239 14.8115 15.8436 14.3918 15.8436 13.8741V3.6561C15.8436 2.93245 16.4324 2.34371 17.1561 2.34371C17.8798 2.34371 18.4686 2.93245 18.4686 3.6561C18.4686 4.17384 18.8883 4.59355 19.4061 4.59355C19.9239 4.59355 20.3436 4.17384 20.3436 3.6561C20.3436 1.89863 18.9137 0.468811 17.1562 0.468811C15.3987 0.468811 13.9687 1.89863 13.9687 3.6561V6.37465H5.53124V3.6561C5.53124 2.93245 6.11999 2.34371 6.84373 2.34371C7.56748 2.34371 8.15622 2.93245 8.15622 3.6561C8.15622 4.17384 8.57594 4.59355 9.09372 4.59355C9.6115 4.59355 10.0312 4.17384 10.0312 3.6561C10.0312 1.89863 8.6013 0.468811 6.84373 0.468811C5.08616 0.468811 3.65625 1.89863 3.65625 3.6561V13.8741C3.65625 14.3918 4.07597 14.8115 4.59374 14.8115ZM5.53124 8.2495H13.9686V10.5931H5.53124V8.2495Z" fill="black"/>
<path d="M8.31264 18.0624C9.25646 18.8576 10.5655 19.3113 12.0001 19.3113C13.4347 19.3113 14.7437 18.8576 15.6875 18.0624C17.9499 19.9684 22.1129 19.6982 23.8325 17.221C24.1278 16.7956 24.0223 16.2115 23.597 15.9163C23.1716 15.6211 22.5875 15.7266 22.2923 16.1519C21.1042 17.8633 17.6463 17.8643 16.4576 16.1519C16.2824 15.8995 15.9948 15.749 15.6875 15.749C15.3802 15.749 15.0925 15.8995 14.9173 16.1519C13.7293 17.8633 10.2713 17.8643 9.08265 16.1519C8.90743 15.8995 8.61976 15.749 8.3125 15.749C8.00523 15.749 7.71752 15.8995 7.54235 16.1519C6.35431 17.8634 2.8964 17.8643 1.70771 16.1519C1.41244 15.7265 0.828245 15.6211 0.402998 15.9163C-0.0223437 16.2116 -0.127812 16.7956 0.167452 17.221C1.8886 19.7005 6.04953 19.9689 8.31264 18.0624Z" fill="black"/>
</g>
<defs>
<clipPath id="clip0_1002_883">
<rect width="24" height="24" fill="white"/>
</clipPath>
</defs>
</svg>
