<svg width="24" height="24" viewBox="0 0 24 24" fill="none" xmlns="http://www.w3.org/2000/svg">
<g clip-path="url(#clip0_1002_660)">
<path d="M20.0337 13.0588H18.3525C17.9626 13.0588 17.6466 12.7428 17.6466 12.353C17.6466 11.9631 17.9626 11.6471 18.3525 11.6471H20.47C20.7373 11.6471 20.9817 11.7981 21.1013 12.0373L23.9246 17.6839C24.1592 18.1532 23.818 18.7054 23.2933 18.7054H0.70673C0.182051 18.7054 -0.15922 18.1532 0.0754188 17.6839L2.89872 12.0373C3.01829 11.7981 3.26268 11.6471 3.53003 11.6471H5.64749C6.03732 11.6471 6.35333 11.9631 6.35333 12.353C6.35333 12.7428 6.03732 13.0588 5.64749 13.0588H3.96622L1.84875 17.2938H22.1512L20.0337 13.0588ZM12.9582 12.6956C13.1587 13.0299 13.0503 13.4634 12.7161 13.664C12.3818 13.8646 11.9482 13.7562 11.7477 13.4219C10.9077 12.022 10.9077 10.5664 11.7477 9.16646C12.3194 8.21361 12.3194 7.31644 11.7477 6.3636C11.5471 6.02936 11.6555 5.59579 11.9898 5.39523C12.324 5.19467 12.7576 5.30308 12.9582 5.63732C13.7981 7.03723 13.7981 8.49287 12.9582 9.89273C12.3864 10.8456 12.3864 11.7428 12.9582 12.6956ZM9.42903 12.6956C9.6296 13.0299 9.52118 13.4634 9.18694 13.664C8.85266 13.8646 8.4191 13.7562 8.21853 13.4219C7.3786 12.022 7.3786 10.5664 8.21853 9.16646C8.79027 8.21361 8.79027 7.31644 8.21853 6.3636C8.01797 6.02936 8.12638 5.59579 8.46062 5.39523C8.79491 5.19467 9.22847 5.30308 9.42903 5.63732C10.269 7.03723 10.269 8.49287 9.42903 9.89273C8.8573 10.8456 8.8573 11.7428 9.42903 12.6956ZM16.4873 12.6956C16.6879 13.0299 16.5795 13.4634 16.2452 13.664C15.9109 13.8646 15.4774 13.7562 15.2768 13.4219C14.4369 12.022 14.4369 10.5664 15.2768 9.16646C15.8485 8.21361 15.8485 7.31644 15.2768 6.3636C15.0762 6.02936 15.1847 5.59579 15.5189 5.39523C15.8532 5.19467 16.2867 5.30308 16.4873 5.63732C17.3272 7.03723 17.3272 8.49287 16.4873 9.89273C15.9156 10.8456 15.9156 11.7428 16.4873 12.6956Z" fill="black"/>
</g>
<defs>
<clipPath id="clip0_1002_660">
<rect width="24" height="24" fill="white"/>
</clipPath>
</defs>
</svg>
