<svg width="24" height="24" viewBox="0 0 24 24" fill="none" xmlns="http://www.w3.org/2000/svg">
<path d="M20.7638 0H3.2254C2.08008 0 1.14844 0.931641 1.14844 2.07697V21.923C1.14844 23.0684 2.08008 24 3.2254 24H20.7638C21.9091 24 22.8408 23.0684 22.8408 21.923V2.07697C22.8408 0.931641 21.9091 0 20.7638 0ZM2.53308 2.07697C2.53308 1.69519 2.84363 1.38464 3.2254 1.38464H20.7638C21.1456 1.38464 21.4561 1.69519 21.4561 2.07697V4.84607H2.53308V2.07697ZM21.4561 21.923C21.4561 22.3048 21.1456 22.6154 20.7638 22.6154H3.2254C2.84363 22.6154 2.53308 22.3048 2.53308 21.923V6.23071H21.4561V21.923Z" fill="black"/>
<path d="M16.6098 2.42303H15.2255C14.8432 2.42303 14.5332 2.73303 14.5332 3.11536C14.5332 3.49768 14.8432 3.80768 15.2255 3.80768H16.6098C16.9921 3.80768 17.3021 3.49768 17.3021 3.11536C17.3021 2.73303 16.9921 2.42303 16.6098 2.42303Z" fill="black"/>
<path d="M20.3022 2.42303H18.9179C18.5356 2.42303 18.2256 2.73303 18.2256 3.11536C18.2256 3.49768 18.5356 3.80768 18.9179 3.80768H20.3022C20.6845 3.80768 20.9943 3.49768 20.9943 3.11536C20.9943 2.73303 20.6845 2.42303 20.3022 2.42303Z" fill="black"/>
<path d="M5.30273 14.423C5.30273 18.1132 8.30475 21.1154 11.9949 21.1154C15.6852 21.1154 18.6872 18.1132 18.6872 14.423C18.6872 14.2434 18.6799 14.0654 18.666 13.8895C18.666 13.8885 18.6658 13.8876 18.6658 13.8869C18.3917 10.4465 15.5046 7.73071 11.9949 7.73071C8.48529 7.73071 5.59827 10.4465 5.32416 13.8869C5.32397 13.8876 5.32397 13.8885 5.32397 13.8895C5.31006 14.0654 5.30273 14.2434 5.30273 14.423ZM11.9949 19.7307C9.18713 19.7307 6.88202 17.5391 6.69928 14.777C6.84869 14.8385 6.98108 14.9198 7.13214 15.0126C7.54047 15.264 8.04895 15.577 8.99487 15.577C9.9408 15.577 10.4491 15.2642 10.8576 15.0128C11.1962 14.8044 11.4406 14.6539 11.9947 14.6539C12.5488 14.6539 12.7934 14.8044 13.132 15.0128C13.5405 15.264 14.049 15.577 14.9949 15.577C15.9408 15.577 16.4493 15.2642 16.8578 15.0128C17.0089 14.9198 17.1412 14.8385 17.2905 14.777C17.1079 17.5391 14.8028 19.7307 11.9949 19.7307ZM11.9949 9.11536C14.5565 9.11536 16.7001 10.9395 17.1951 13.357C16.7272 13.468 16.4066 13.6646 16.1321 13.8334C15.7936 14.0418 15.549 14.1923 14.9949 14.1923C14.4408 14.1923 14.1962 14.0418 13.8576 13.8334C13.4491 13.582 12.9408 13.2691 11.9947 13.2691C11.0488 13.2691 10.5405 13.582 10.132 13.8334C9.7934 14.0418 9.54877 14.1923 8.99487 14.1923C8.4408 14.1923 8.19617 14.0418 7.8576 13.8334C7.58313 13.6644 7.2627 13.4678 6.79486 13.357C7.28979 10.9395 9.43341 9.11536 11.9949 9.11536Z" fill="black"/>
</svg>
