<svg width="25" height="24" viewBox="0 0 25 24" fill="none" xmlns="http://www.w3.org/2000/svg">
<g clip-path="url(#clip0_218_3041)">
<path d="M12.5 0C10.1266 0 7.80655 0.703788 5.83316 2.02236C3.85977 3.34094 2.3217 5.21509 1.41345 7.4078C0.505199 9.60051 0.267559 12.0133 0.730582 14.3411C1.1936 16.6689 2.33649 18.8071 4.01472 20.4853C5.69295 22.1635 7.83115 23.3064 10.1589 23.7694C12.4867 24.2324 14.8995 23.9948 17.0922 23.0866C19.2849 22.1783 21.1591 20.6402 22.4776 18.6668C23.7962 16.6935 24.5 14.3734 24.5 12C24.4966 8.81846 23.2312 5.76821 20.9815 3.51852C18.7318 1.26883 15.6815 0.00344108 12.5 0ZM16.5 13H13.5V16C13.5 16.2652 13.3946 16.5196 13.2071 16.7071C13.0196 16.8946 12.7652 17 12.5 17C12.2348 17 11.9804 16.8946 11.7929 16.7071C11.6054 16.5196 11.5 16.2652 11.5 16V13H8.50001C8.23479 13 7.98043 12.8946 7.7929 12.7071C7.60536 12.5196 7.50001 12.2652 7.50001 12C7.50001 11.7348 7.60536 11.4804 7.7929 11.2929C7.98043 11.1054 8.23479 11 8.50001 11H11.5V8C11.5 7.73478 11.6054 7.48043 11.7929 7.29289C11.9804 7.10536 12.2348 7 12.5 7C12.7652 7 13.0196 7.10536 13.2071 7.29289C13.3946 7.48043 13.5 7.73478 13.5 8V11H16.5C16.7652 11 17.0196 11.1054 17.2071 11.2929C17.3946 11.4804 17.5 11.7348 17.5 12C17.5 12.2652 17.3946 12.5196 17.2071 12.7071C17.0196 12.8946 16.7652 13 16.5 13Z" fill="#0179FF"/>
</g>
<defs>
<clipPath id="clip0_218_3041">
<rect width="24" height="24" fill="white" transform="translate(0.5)"/>
</clipPath>
</defs>
</svg>
