<svg width="20" height="20" viewBox="0 0 20 20" fill="none" xmlns="http://www.w3.org/2000/svg">
<g clip-path="url(#clip0_41_4939)">
<path d="M16.6663 6.66667C18.5047 6.66667 19.9997 5.17167 19.9997 3.33333C19.9997 1.495 18.5047 0 16.6663 0C14.828 0 13.333 1.495 13.333 3.33333C13.333 5.17167 14.828 6.66667 16.6663 6.66667ZM16.6663 1.66667C17.5855 1.66667 18.333 2.41417 18.333 3.33333C18.333 4.2525 17.5855 5 16.6663 5C15.7472 5 14.9997 4.2525 14.9997 3.33333C14.9997 2.41417 15.7472 1.66667 16.6663 1.66667ZM19.393 13.5392L19.3888 13.5233L18.078 8.12833C17.6297 8.26 17.1572 8.33417 16.6663 8.33417C16.5797 8.33417 16.4955 8.32583 16.4097 8.32083L17.7738 13.9333C17.7755 13.9392 17.7797 13.9433 17.7805 13.95H17.7772C17.8455 14.2067 17.7947 14.4625 17.6363 14.6717C17.4763 14.8842 17.2397 15.0008 16.973 15.0008H2.91049C2.65633 15.0008 2.41966 14.8867 2.26216 14.6917C2.10216 14.4917 2.04216 14.235 2.08966 14.015L4.04966 6.4175C4.67133 3.62083 7.11799 1.6675 9.99966 1.6675C10.6438 1.6675 11.2688 1.7775 11.8597 1.96833C12.0163 1.4175 12.263 0.905833 12.5863 0.450833C11.7705 0.160833 10.8988 0.00166667 9.99966 0.00166667C6.33133 0 3.21549 2.49 2.42966 6.0275L0.469659 13.6267C0.305492 14.3683 0.484659 15.1358 0.962159 15.7333C1.43966 16.3267 2.15049 16.6667 2.91049 16.6667H5.91716C6.30466 18.5658 7.98716 20 9.99966 20C12.0122 20 13.6947 18.5658 14.0822 16.6667H16.9738C17.763 16.6667 18.488 16.3058 18.9655 15.6783C19.4288 15.0675 19.5813 14.295 19.3938 13.5533C19.393 13.5483 19.393 13.5442 19.393 13.5392ZM9.99966 18.3333C8.91466 18.3333 7.99799 17.6342 7.65299 16.6667H12.3455C12.0005 17.6342 11.0847 18.3333 9.99966 18.3333Z" fill="#737A8D"/>
</g>
<defs>
<clipPath id="clip0_41_4939">
<rect width="20" height="20" fill="white"/>
</clipPath>
</defs>
</svg>
