<svg width="16" height="16" viewBox="0 0 16 16" fill="none" xmlns="http://www.w3.org/2000/svg">
<g clip-path="url(#clip0_41_4934)">
<path d="M8.66662 0.666694C8.66662 0.489883 8.73686 0.320313 8.86188 0.195289C8.9869 0.0702649 9.15647 2.70474e-05 9.33328 2.70474e-05C11.1008 0.00196811 12.7954 0.70497 14.0452 1.95479C15.295 3.20461 15.998 4.89918 16 6.66669C16 6.8435 15.9297 7.01307 15.8047 7.1381C15.6797 7.26312 15.5101 7.33336 15.3333 7.33336C15.1565 7.33336 14.9869 7.26312 14.8619 7.1381C14.7369 7.01307 14.6666 6.8435 14.6666 6.66669C14.665 5.25269 14.1026 3.89706 13.1028 2.89721C12.1029 1.89736 10.7473 1.33495 9.33328 1.33336C9.15647 1.33336 8.9869 1.26312 8.86188 1.1381C8.73686 1.01307 8.66662 0.843505 8.66662 0.666694ZM9.33328 4.00003C10.0405 4.00003 10.7188 4.28098 11.2189 4.78108C11.719 5.28117 12 5.95945 12 6.66669C12 6.8435 12.0702 7.01307 12.1952 7.1381C12.3202 7.26312 12.4898 7.33336 12.6666 7.33336C12.8434 7.33336 13.013 7.26312 13.138 7.1381C13.263 7.01307 13.3333 6.8435 13.3333 6.66669C13.3322 5.60615 12.9105 4.58935 12.1605 3.83944C11.4106 3.08952 10.3938 2.66775 9.33328 2.66669C9.15647 2.66669 8.9869 2.73693 8.86188 2.86196C8.73686 2.98698 8.66662 3.15655 8.66662 3.33336C8.66662 3.51017 8.73686 3.67974 8.86188 3.80476C8.9869 3.92979 9.15647 4.00003 9.33328 4.00003ZM15.3953 11.1594C15.7816 11.5468 15.9986 12.0716 15.9986 12.6187C15.9986 13.1658 15.7816 13.6906 15.3953 14.078L14.7886 14.7774C9.32862 20.0047 -3.95805 6.72136 1.18862 1.24403L1.95528 0.57736C2.34313 0.201812 2.86324 -0.00594023 3.40309 -0.000949725C3.94293 0.00404078 4.45911 0.221373 4.83995 0.604027C4.86062 0.624694 6.09595 2.22936 6.09595 2.22936C6.4625 2.61445 6.66655 3.12598 6.66568 3.65763C6.66482 4.18928 6.45909 4.70014 6.09128 5.08403L5.31928 6.05469C5.74652 7.09277 6.37466 8.03619 7.16762 8.83076C7.96059 9.62532 8.90274 10.2554 9.93995 10.6847L10.9166 9.90803C11.3006 9.5405 11.8113 9.33502 12.3428 9.33428C12.8743 9.33353 13.3857 9.53758 13.7706 9.90403C13.7706 9.90403 15.3746 11.1387 15.3953 11.1594ZM14.478 12.1287C14.478 12.1287 12.8826 10.9014 12.8619 10.8807C12.7246 10.7445 12.539 10.6681 12.3456 10.6681C12.1522 10.6681 11.9666 10.7445 11.8293 10.8807C11.8113 10.8994 10.4666 11.9707 10.4666 11.9707C10.376 12.0428 10.2682 12.0901 10.1537 12.1079C10.0393 12.1256 9.92217 12.1133 9.81395 12.072C8.47026 11.5717 7.24977 10.7885 6.23517 9.77541C5.22057 8.76231 4.43555 7.54298 3.93328 6.20003C3.88875 6.09033 3.87423 5.97075 3.89122 5.85359C3.90821 5.73642 3.95609 5.62589 4.02995 5.53336C4.02995 5.53336 5.10128 4.18803 5.11928 4.17069C5.25546 4.03335 5.33187 3.84777 5.33187 3.65436C5.33187 3.46095 5.25546 3.27537 5.11928 3.13803C5.09862 3.11803 3.87128 1.52136 3.87128 1.52136C3.73188 1.39637 3.54995 1.32942 3.36278 1.33426C3.17561 1.33909 2.99738 1.41534 2.86462 1.54736L2.09795 2.21403C-1.66338 6.73669 9.85062 17.612 13.814 13.8667L14.4213 13.1667C14.5636 13.0349 14.6491 12.8529 14.6597 12.6592C14.6702 12.4655 14.6051 12.2752 14.478 12.1287Z" fill="#505050"/>
</g>
<defs>
<clipPath id="clip0_41_4934">
<rect width="16" height="16" fill="white"/>
</clipPath>
</defs>
</svg>
