<svg width="26" height="26" viewBox="0 0 26 26" fill="none" xmlns="http://www.w3.org/2000/svg">
<g clip-path="url(#clip0_264_2987)">
<path d="M26 13C26 5.82036 20.1796 0 13 0C5.82036 0 0 5.82036 0 13C0 19.0965 4.19744 24.2122 9.85972 25.6173V16.9728H7.17912V13H9.85972V11.2882C9.85972 6.86348 11.8622 4.8126 16.2063 4.8126C17.03 4.8126 18.4512 4.97432 19.0325 5.13552V8.73652C18.7257 8.70428 18.1927 8.68816 17.5308 8.68816C15.3993 8.68816 14.5756 9.49572 14.5756 11.595V13H18.8219L18.0924 16.9728H14.5756V25.9048C21.0127 25.1274 26.0005 19.6466 26.0005 13H26Z" fill="#0866FF"/>
<path d="M18.092 16.9727L18.8215 12.9999H14.5752V11.5949C14.5752 9.49562 15.3989 8.68806 17.5303 8.68806C18.1923 8.68806 18.7253 8.70418 19.0321 8.73642V5.13542C18.4508 4.9737 17.0296 4.8125 16.2059 4.8125C11.8618 4.8125 9.85931 6.86338 9.85931 11.2881V12.9999H7.17871V16.9727H9.85931V25.6172C10.865 25.8668 11.917 25.9999 12.9996 25.9999C13.5326 25.9999 14.0583 25.9671 14.5747 25.9047V16.9727H18.0914H18.092Z" fill="white"/>
</g>
<defs>
<clipPath id="clip0_264_2987">
<rect width="26" height="26" fill="white"/>
</clipPath>
</defs>
</svg>
