<svg width="15" height="16" viewBox="0 0 15 16" fill="none" xmlns="http://www.w3.org/2000/svg">
<path fill-rule="evenodd" clip-rule="evenodd" d="M4.38753 2.66989C3.69862 2.66753 3.03696 2.93881 2.54799 3.42411C2.05902 3.90941 1.78276 4.569 1.77993 5.25791C1.77993 7.16244 3.09352 8.96106 4.61092 10.3734C5.38808 11.0913 6.22767 11.7385 7.11973 12.3073C8.01183 11.7382 8.85143 11.0907 9.62855 10.3726C11.1459 8.96195 12.4595 7.16422 12.4595 5.2588C12.4569 4.56974 12.1808 3.90991 11.6918 3.42442C11.2028 2.93893 10.541 2.66753 9.85193 2.66989C9.46089 2.66912 9.07469 2.75631 8.72191 2.92499C8.36913 3.09368 8.0588 3.33955 7.81391 3.6444L7.11973 4.50678L6.42556 3.6444C6.18066 3.33955 5.87033 3.09368 5.51755 2.92499C5.16477 2.75631 4.77857 2.66912 4.38753 2.66989ZM7.11973 13.3495L6.68365 14.1247H6.68276L6.68098 14.1238L6.67564 14.1211L6.65873 14.1113C6.31349 13.9072 5.97512 13.6917 5.64417 13.4652C4.85297 12.9246 4.10249 12.3267 3.39878 11.6764C1.80129 10.1901 0 7.94205 0 5.25791C0 2.84076 1.96861 0.889959 4.38753 0.889959C5.4199 0.889959 6.37038 1.24595 7.11973 1.84044C7.89666 1.22355 8.85987 0.888458 9.85193 0.889959C12.2709 0.889959 14.2395 2.84076 14.2395 5.25791C14.2395 7.94205 12.4382 10.1892 10.8407 11.6764C9.85857 12.5835 8.78621 13.3878 7.64036 14.0766L7.58073 14.1113L7.56382 14.1202L7.55849 14.1238L7.5567 14.1247L7.11973 13.3495ZM7.11973 13.3495L7.55581 14.1255L7.11973 14.3703L6.68365 14.1247L7.11973 13.3495Z" fill="#7E7E7E"/>
</svg>
