<svg width="25" height="24" viewBox="0 0 25 24" fill="none" xmlns="http://www.w3.org/2000/svg">
<g clip-path="url(#clip0_218_3051)">
<path d="M19.3999 24H6.3999C3.3679 24 0.899902 21.532 0.899902 18.5V9.886C0.899902 8.056 1.8059 6.352 3.3239 5.327L9.8239 0.940999C11.6909 -0.321001 14.1079 -0.321001 15.9769 0.940999L22.4759 5.327C23.9939 6.351 24.8999 8.056 24.8999 9.886V18.5C24.8999 21.532 22.4319 24 19.3999 24ZM12.8999 2.997C12.4139 2.997 11.9259 3.141 11.5029 3.428L5.0019 7.813C4.3129 8.279 3.8999 9.053 3.8999 9.885V18.499C3.8999 19.878 5.0209 20.999 6.3999 20.999H19.3999C20.7789 20.999 21.8999 19.878 21.8999 18.499V9.886C21.8999 9.054 21.4879 8.28 20.7979 7.814L14.2979 3.428C13.8729 3.141 13.3859 2.997 12.8999 2.997Z" fill="black"/>
</g>
<defs>
<clipPath id="clip0_218_3051">
<rect width="24" height="24" fill="white" transform="translate(0.899902)"/>
</clipPath>
</defs>
</svg>
