<svg width="20" height="20" viewBox="0 0 20 20" fill="none" xmlns="http://www.w3.org/2000/svg">
<g clip-path="url(#clip0_41_4924)">
<path d="M15.8333 0.833313H4.16667C1.86917 0.833313 0 2.70248 0 4.99998V15C0 17.2975 1.86917 19.1666 4.16667 19.1666H15.8333C18.1308 19.1666 20 17.2975 20 15V4.99998C20 2.70248 18.1308 0.833313 15.8333 0.833313ZM18.3333 15C18.3333 16.3783 17.2117 17.5 15.8333 17.5H4.16667C2.78833 17.5 1.66667 16.3783 1.66667 15V4.99998C1.66667 3.62165 2.78833 2.49998 4.16667 2.49998H15.8333C17.2117 2.49998 18.3333 3.62165 18.3333 4.99998V15ZM15.8333 5.83331C15.8333 6.29331 15.46 6.66665 15 6.66665H9.16667C8.70667 6.66665 8.33333 6.29331 8.33333 5.83331C8.33333 5.37331 8.70667 4.99998 9.16667 4.99998H15C15.46 4.99998 15.8333 5.37331 15.8333 5.83331ZM6.66667 5.83331C6.66667 6.52331 6.10667 7.08331 5.41667 7.08331C4.72667 7.08331 4.16667 6.52331 4.16667 5.83331C4.16667 5.14331 4.72667 4.58331 5.41667 4.58331C6.10667 4.58331 6.66667 5.14331 6.66667 5.83331ZM15.8333 9.99998C15.8333 10.46 15.46 10.8333 15 10.8333H9.16667C8.70667 10.8333 8.33333 10.46 8.33333 9.99998C8.33333 9.53998 8.70667 9.16665 9.16667 9.16665H15C15.46 9.16665 15.8333 9.53998 15.8333 9.99998ZM6.66667 9.99998C6.66667 10.69 6.10667 11.25 5.41667 11.25C4.72667 11.25 4.16667 10.69 4.16667 9.99998C4.16667 9.30998 4.72667 8.74998 5.41667 8.74998C6.10667 8.74998 6.66667 9.30998 6.66667 9.99998ZM15.8333 14.1666C15.8333 14.6266 15.46 15 15 15H9.16667C8.70667 15 8.33333 14.6266 8.33333 14.1666C8.33333 13.7066 8.70667 13.3333 9.16667 13.3333H15C15.46 13.3333 15.8333 13.7066 15.8333 14.1666ZM6.66667 14.1666C6.66667 14.8566 6.10667 15.4166 5.41667 15.4166C4.72667 15.4166 4.16667 14.8566 4.16667 14.1666C4.16667 13.4766 4.72667 12.9166 5.41667 12.9166C6.10667 12.9166 6.66667 13.4766 6.66667 14.1666Z" fill="#737A8D"/>
</g>
<defs>
<clipPath id="clip0_41_4924">
<rect width="20" height="20" fill="white"/>
</clipPath>
</defs>
</svg>
