<svg width="18" height="18" viewBox="0 0 18 18" fill="none" xmlns="http://www.w3.org/2000/svg">
<g clip-path="url(#clip0_48_9594)">
<path d="M8.96852 18.006L8.44572 17.5579C7.72498 16.9544 1.43176 11.5193 1.43176 7.54372C1.43176 3.38129 4.80609 0.00695801 8.96852 0.00695801C13.131 0.00695801 16.5053 3.38129 16.5053 7.54372C16.5053 11.5194 10.2121 16.9544 9.49432 17.5609L8.96852 18.006ZM8.96852 1.63663C5.70768 1.64032 3.06516 4.28284 3.06147 7.54369C3.06147 10.0413 6.93329 14.0311 8.96852 15.8572C11.0038 14.0303 14.8756 10.0382 14.8756 7.54369C14.8719 4.28284 12.2294 1.64035 8.96852 1.63663Z" fill="#252933"/>
<path d="M8.96853 10.5312C7.31857 10.5312 5.98102 9.19367 5.98102 7.54372C5.98102 5.89377 7.31857 4.55621 8.96853 4.55621C10.6185 4.55621 11.956 5.89377 11.956 7.54372C11.956 9.19367 10.6185 10.5312 8.96853 10.5312ZM8.96853 6.04993C8.14355 6.04993 7.47477 6.71871 7.47477 7.54369C7.47477 8.36866 8.14355 9.03744 8.96853 9.03744C9.7935 9.03744 10.4623 8.36866 10.4623 7.54369C10.4623 6.71871 9.79354 6.04993 8.96853 6.04993Z" fill="#252933"/>
</g>
<defs>
<clipPath id="clip0_48_9594">
<rect width="18" height="18" fill="white"/>
</clipPath>
</defs>
</svg>
