<svg width="25" height="24" viewBox="0 0 25 24" fill="none" xmlns="http://www.w3.org/2000/svg">
<g clip-path="url(#clip0_218_3068)">
<path d="M8.2998 7H22.7998C23.1976 7 23.5792 6.84196 23.8605 6.56066C24.1418 6.27936 24.2998 5.89782 24.2998 5.5C24.2998 5.10218 24.1418 4.72064 23.8605 4.43934C23.5792 4.15804 23.1976 4 22.7998 4H8.2998C7.90198 4 7.52045 4.15804 7.23914 4.43934C6.95784 4.72064 6.7998 5.10218 6.7998 5.5C6.7998 5.89782 6.95784 6.27936 7.23914 6.56066C7.52045 6.84196 7.90198 7 8.2998 7Z" fill="#484C52"/>
<path d="M22.7998 11H8.2998C7.90198 11 7.52045 11.158 7.23914 11.4393C6.95784 11.7206 6.7998 12.1022 6.7998 12.5C6.7998 12.8978 6.95784 13.2794 7.23914 13.5607C7.52045 13.842 7.90198 14 8.2998 14H22.7998C23.1976 14 23.5792 13.842 23.8605 13.5607C24.1418 13.2794 24.2998 12.8978 24.2998 12.5C24.2998 12.1022 24.1418 11.7206 23.8605 11.4393C23.5792 11.158 23.1976 11 22.7998 11Z" fill="#484C52"/>
<path d="M22.7998 18H8.2998C7.90198 18 7.52045 18.158 7.23914 18.4393C6.95784 18.7206 6.7998 19.1022 6.7998 19.5C6.7998 19.8978 6.95784 20.2794 7.23914 20.5607C7.52045 20.842 7.90198 21 8.2998 21H22.7998C23.1976 21 23.5792 20.842 23.8605 20.5607C24.1418 20.2794 24.2998 19.8978 24.2998 19.5C24.2998 19.1022 24.1418 18.7206 23.8605 18.4393C23.5792 18.158 23.1976 18 22.7998 18Z" fill="#484C52"/>
<path d="M2.7998 8C4.18052 8 5.2998 6.88071 5.2998 5.5C5.2998 4.11929 4.18052 3 2.7998 3C1.41909 3 0.299805 4.11929 0.299805 5.5C0.299805 6.88071 1.41909 8 2.7998 8Z" fill="#484C52"/>
<path d="M2.7998 14.5C4.18052 14.5 5.2998 13.3807 5.2998 12C5.2998 10.6193 4.18052 9.5 2.7998 9.5C1.41909 9.5 0.299805 10.6193 0.299805 12C0.299805 13.3807 1.41909 14.5 2.7998 14.5Z" fill="#484C52"/>
<path d="M2.7998 21.5C4.18052 21.5 5.2998 20.3807 5.2998 19C5.2998 17.6193 4.18052 16.5 2.7998 16.5C1.41909 16.5 0.299805 17.6193 0.299805 19C0.299805 20.3807 1.41909 21.5 2.7998 21.5Z" fill="#484C52"/>
</g>
<defs>
<clipPath id="clip0_218_3068">
<rect width="24" height="24" fill="white" transform="translate(0.299805)"/>
</clipPath>
</defs>
</svg>
