<svg width="25" height="24" viewBox="0 0 25 24" fill="none" xmlns="http://www.w3.org/2000/svg">
<path d="M11.5523 14.018C7.2906 14.4032 4.04376 18.0043 4.10034 22.283V22.5C4.10034 23.3284 4.77192 24 5.60034 24C6.42876 24 7.10034 23.3284 7.10034 22.5V22.223C7.05524 19.5959 8.99399 17.3556 11.6003 17.023C14.3516 16.7502 16.8031 18.7594 17.0759 21.5106C17.092 21.6733 17.1002 21.8366 17.1003 22V22.5C17.1003 23.3284 17.7719 24 18.6003 24C19.4287 24 20.1003 23.3284 20.1003 22.5V22C20.0954 17.5767 16.5057 13.995 12.0825 13.9998C11.9056 14.0001 11.7288 14.0061 11.5523 14.018Z" fill="#484C52"/>
<path d="M12.1006 12C15.4143 12 18.1006 9.31369 18.1006 6C18.1006 2.68631 15.4143 0 12.1006 0C8.7869 0 6.10059 2.68631 6.10059 6C6.10387 9.31233 8.78826 11.9967 12.1006 12ZM12.1006 3C13.7574 3 15.1006 4.34316 15.1006 6C15.1006 7.65684 13.7574 9 12.1006 9C10.4437 9 9.10059 7.65684 9.10059 6C9.10059 4.34316 10.4437 3 12.1006 3Z" fill="#484C52"/>
</svg>
