<svg width="25" height="24" viewBox="0 0 25 24" fill="none" xmlns="http://www.w3.org/2000/svg">
<g clip-path="url(#clip0_218_3046)">
<path d="M24.2607 21.4452L19.6156 16.7981C23.0913 12.1533 22.1436 5.57035 17.4988 2.09463C12.854 -1.38109 6.27102 -0.433378 2.7953 4.2114C-0.68042 8.85617 0.267296 15.4392 4.91207 18.9149C8.64314 21.7069 13.7677 21.7069 17.4988 18.9149L22.1459 23.562C22.7299 24.146 23.6767 24.146 24.2607 23.562C24.8447 22.978 24.8447 22.0312 24.2607 21.4472L24.2607 21.4452ZM11.2442 18.018C7.1161 18.018 3.76969 14.6715 3.76969 10.5435C3.76969 6.41543 7.1161 3.06902 11.2442 3.06902C15.3722 3.06902 18.7186 6.41543 18.7186 10.5435C18.7142 14.6697 15.3704 18.0136 11.2442 18.018Z" fill="#484C52"/>
</g>
<defs>
<clipPath id="clip0_218_3046">
<rect width="24" height="24" fill="white" transform="translate(0.699707)"/>
</clipPath>
</defs>
</svg>
