<svg width="20" height="20" viewBox="0 0 20 20" fill="none" xmlns="http://www.w3.org/2000/svg">
<g clip-path="url(#clip0_264_2962)">
<path d="M15 13.4C14.3667 13.4 13.8 13.65 13.3667 14.0417L7.425 10.5834C7.46667 10.3917 7.5 10.2 7.5 10C7.5 9.80002 7.46667 9.60835 7.425 9.41669L13.3 5.99169C13.75 6.40835 14.3417 6.66669 15 6.66669C16.3833 6.66669 17.5 5.55002 17.5 4.16669C17.5 2.78335 16.3833 1.66669 15 1.66669C13.6167 1.66669 12.5 2.78335 12.5 4.16669C12.5 4.36669 12.5333 4.55835 12.575 4.75002L6.7 8.17502C6.25 7.75835 5.65833 7.50002 5 7.50002C3.61667 7.50002 2.5 8.61669 2.5 10C2.5 11.3834 3.61667 12.5 5 12.5C5.65833 12.5 6.25 12.2417 6.7 11.825L12.6333 15.2917C12.5917 15.4667 12.5667 15.65 12.5667 15.8334C12.5667 17.175 13.6583 18.2667 15 18.2667C16.3417 18.2667 17.4333 17.175 17.4333 15.8334C17.4333 14.4917 16.3417 13.4 15 13.4ZM15 3.33335C15.4583 3.33335 15.8333 3.70835 15.8333 4.16669C15.8333 4.62502 15.4583 5.00002 15 5.00002C14.5417 5.00002 14.1667 4.62502 14.1667 4.16669C14.1667 3.70835 14.5417 3.33335 15 3.33335ZM5 10.8334C4.54167 10.8334 4.16667 10.4584 4.16667 10C4.16667 9.54169 4.54167 9.16669 5 9.16669C5.45833 9.16669 5.83333 9.54169 5.83333 10C5.83333 10.4584 5.45833 10.8334 5 10.8334ZM15 16.6834C14.5417 16.6834 14.1667 16.3084 14.1667 15.85C14.1667 15.3917 14.5417 15.0167 15 15.0167C15.4583 15.0167 15.8333 15.3917 15.8333 15.85C15.8333 16.3084 15.4583 16.6834 15 16.6834Z" fill="#7E7E7E"/>
</g>
<defs>
<clipPath id="clip0_264_2962">
<rect width="20" height="20" fill="white"/>
</clipPath>
</defs>
</svg>
