<svg width="24" height="24" viewBox="0 0 24 24" fill="none" xmlns="http://www.w3.org/2000/svg">
<g clip-path="url(#clip0_1002_1126)">
<path d="M15.5485 13.7217H13.4019C12.6204 13.7217 11.9847 14.3575 11.9847 15.1388V18.4168C11.9847 19.1983 12.6205 19.834 13.4019 19.834H15.5485C16.33 19.834 16.9657 19.1982 16.9657 18.4168V15.1388C16.9657 14.3575 16.33 13.7217 15.5485 13.7217ZM15.4657 18.334H13.4847V15.2217H15.4657V18.334ZM23.25 0.92395H0.75C0.335766 0.92395 0 1.25972 0 1.67395V7.96359C0 8.37783 0.335766 8.71359 0.75 8.71359H4.11741V20.8879C4.11741 22.0944 5.09897 23.076 6.30548 23.076H17.6946C18.901 23.076 19.8826 22.0944 19.8826 20.8879V8.71359H23.25C23.6642 8.71359 24 8.37783 24 7.96359V1.67395C24 1.25972 23.6642 0.92395 23.25 0.92395ZM5.61741 20.8879V7.96448C5.61741 7.96415 5.61745 7.96387 5.61745 7.96359C5.61745 7.96331 5.61741 7.96298 5.61741 7.9627V5.56879H7.75022V21.576H6.30548C5.92608 21.576 5.61741 21.2673 5.61741 20.8879ZM18.3825 20.8879C18.3825 21.2673 18.0739 21.576 17.6945 21.576H9.25022V5.56879H18.3825V20.8879ZM22.5 7.21359H19.8825V5.56879H20.8699C21.2841 5.56879 21.6199 5.23303 21.6199 4.81879C21.6199 4.40456 21.2841 4.06879 20.8699 4.06879H4.86745H3.13013C2.71589 4.06879 2.38013 4.40456 2.38013 4.81879C2.38013 5.23303 2.71589 5.56879 3.13013 5.56879H4.11741V7.21359H1.5V2.42395H22.5V7.21359Z" fill="black"/>
</g>
<defs>
<clipPath id="clip0_1002_1126">
<rect width="24" height="24" fill="white"/>
</clipPath>
</defs>
</svg>
