<svg width="24" height="24" viewBox="0 0 24 24" fill="none" xmlns="http://www.w3.org/2000/svg">
<g clip-path="url(#clip0_1002_1089)">
<path d="M22.1688 11.1992L12.7035 6.3234V5.2787C13.9011 4.95432 14.7314 3.8282 14.6841 2.58203C14.6312 1.18825 13.4979 0.0549496 12.1041 0.00198082C10.5758 -0.0559098 9.31419 1.16251 9.31419 2.68595C9.31419 3.0744 9.6291 3.38931 10.0175 3.38931C10.406 3.38931 10.7209 3.0744 10.7209 2.68595C10.7209 1.96253 11.3194 1.38006 12.0507 1.40767C12.7139 1.43284 13.2532 1.97214 13.2784 2.63537C13.3012 3.23743 12.8953 3.78053 12.3133 3.92668C11.7148 4.07697 11.2968 4.60947 11.2968 5.22165V6.32368L1.83088 11.2072C0.528269 11.8788 0.263941 13.6199 1.2943 14.6504C1.70221 15.0575 2.24385 15.2817 2.81947 15.2817H4.9378V23.2967C4.9378 23.6851 5.25271 24 5.64116 24H18.3592C18.7476 24 19.0626 23.6851 19.0626 23.2967V15.2817H21.1809C22.3528 15.2817 23.3383 14.3344 23.3383 13.1172C23.3383 12.306 22.8902 11.5711 22.1688 11.1992ZM17.6558 19.5721H6.34447C6.34447 19.3046 6.34447 13.8203 6.34447 13.5669H17.6558V19.5721ZM6.34447 22.5933V20.9788H17.6558V22.5933H6.34447ZM21.1808 13.875H19.0625V12.8635C19.0625 12.4751 18.7476 12.1602 18.3591 12.1602H5.64111C5.25266 12.1602 4.93775 12.4751 4.93775 12.8635V13.875H2.81947C2.04097 13.875 1.77482 12.8188 2.47564 12.4575L12.0004 7.54361L21.5243 12.4495C22.2205 12.8085 21.9704 13.875 21.1808 13.875Z" fill="black"/>
</g>
<defs>
<clipPath id="clip0_1002_1089">
<rect width="24" height="24" fill="white"/>
</clipPath>
</defs>
</svg>
