<svg width="24" height="24" viewBox="0 0 24 24" fill="none" xmlns="http://www.w3.org/2000/svg">
<g clip-path="url(#clip0_1002_1044)">
<path d="M23.999 7.59047C23.999 6.99708 23.7679 6.43913 23.3482 6.01964L22.2347 4.90613L22.8019 4.33889C22.8051 4.3358 22.8083 4.33266 22.8115 4.32952C23.6776 3.46341 23.6776 2.05397 22.8115 1.18758C22.3919 0.767953 21.8339 0.536859 21.2405 0.536859C20.6472 0.536859 20.0892 0.767953 19.6695 1.18748C19.666 1.19105 19.6624 1.19466 19.6589 1.19831L19.0929 1.76423L17.9794 0.650672C17.5598 0.231094 17.002 0 16.4085 0C15.815 0 15.2571 0.231141 14.8376 0.650766C14.6174 0.870984 14.4535 1.12636 14.3453 1.39898C14 1.18725 13.6024 1.07377 13.1871 1.07377C12.5937 1.07377 12.0357 1.30486 11.6159 1.72462C10.75 2.59078 10.75 4.00017 11.616 4.86647L13.8033 7.05366L7.05251 13.8045L4.86518 11.6172C4.44565 11.1976 3.88774 10.9665 3.2944 10.9665C2.70096 10.9665 2.14301 11.1976 1.72315 11.6174C0.984398 12.3562 0.876305 13.49 1.39788 14.3451C1.12099 14.4554 0.866648 14.6215 0.649523 14.8387C-0.216492 15.7048 -0.216539 17.1142 0.64957 17.9805L1.76299 19.0939L1.18643 19.6704C0.766805 20.0901 0.535664 20.648 0.535664 21.2414C0.535664 21.8348 0.766805 22.3927 1.18638 22.8122C1.60596 23.2319 2.16391 23.463 2.7574 23.463C3.34549 23.463 3.89866 23.236 4.31693 22.8236C4.32082 22.8199 4.32466 22.8161 4.32846 22.8123L4.90493 22.2358L6.01845 23.3493C6.43793 23.7689 6.99584 23.9999 7.58932 24H7.58941C8.1829 24 8.7409 23.7688 9.16062 23.3491C9.3807 23.129 9.54457 22.8736 9.6528 22.6012C9.99794 22.8127 10.3955 22.9262 10.8106 22.9262H10.8107C11.4041 22.9262 11.9621 22.6951 12.3818 22.2755C12.8014 21.8558 13.0324 21.2979 13.0324 20.7045C13.0324 20.111 12.8014 19.5531 12.3818 19.1336L10.1944 16.9462L16.9454 10.1955L19.1327 12.3826C19.5523 12.8022 20.1102 13.0333 20.7036 13.0333H20.7038C21.297 13.0333 21.855 12.8022 22.2745 12.3827C22.6943 11.9631 22.9254 11.4052 22.9255 10.8117C22.9255 10.3968 22.8122 9.99956 22.6008 9.65452C22.8773 9.54422 23.1314 9.37823 23.3484 9.16134C23.7679 8.74177 23.999 8.18386 23.999 7.59047ZM3.34357 21.8084C3.34034 21.8115 3.33705 21.8148 3.33382 21.818C3.17988 21.972 2.97518 22.0568 2.7574 22.0568C2.53962 22.0568 2.33482 21.972 2.18074 21.8179C2.02676 21.6639 1.94191 21.4592 1.94191 21.2414C1.94191 21.0236 2.02676 20.8188 2.18079 20.6648L2.75726 20.0883L3.91052 21.2415L3.34357 21.8084ZM20.0873 2.75864L20.6634 2.18259C20.6661 2.17987 20.6688 2.1772 20.6714 2.17448C20.8247 2.02519 21.0263 1.94311 21.2406 1.94311C21.4584 1.94311 21.6632 2.02795 21.8171 2.18184C22.1328 2.49769 22.1351 3.01008 21.8238 3.3285C21.8213 3.33084 21.8189 3.33323 21.8165 3.33563L21.2404 3.91172L20.6639 3.33516L20.0873 2.75864ZM15.832 1.64503C15.9859 1.49105 16.1907 1.40625 16.4085 1.40625C16.6264 1.40625 16.8311 1.49105 16.9851 1.64508L19.6695 4.32956L20.7432 5.40333C20.7433 5.40342 20.7434 5.40352 20.7436 5.40361L22.354 7.01405C22.5079 7.16803 22.5928 7.37273 22.5928 7.59047C22.5928 7.80825 22.5079 8.01309 22.354 8.16703C22.1999 8.32106 21.9951 8.40591 21.7773 8.40591C21.5599 8.40591 21.3555 8.3213 21.2016 8.16783L15.8308 2.79717C15.5141 2.47917 15.5144 1.96266 15.832 1.64503ZM8.16616 22.3548C8.01208 22.5088 7.80724 22.5937 7.58932 22.5937C7.37149 22.5937 7.1667 22.5089 7.01276 22.355L5.40241 20.7446C5.40227 20.7445 5.40218 20.7443 5.40209 20.7443L5.06041 20.4026L1.64402 16.9862C1.32616 16.6682 1.32612 16.151 1.64402 15.833C1.79805 15.6789 2.0028 15.594 2.22063 15.594C2.43813 15.594 2.64255 15.6787 2.79654 15.8324L8.16907 21.205C8.48374 21.5232 8.4829 22.038 8.16616 22.3548ZM11.6261 20.7045C11.6261 20.9223 11.5413 21.1272 11.3874 21.2811C11.2333 21.4351 11.0285 21.52 10.8106 21.52C10.8106 21.52 10.8106 21.52 10.8106 21.52C10.5927 21.52 10.3879 21.4351 10.2339 21.2812L9.16648 20.2137C9.16441 20.2117 9.16254 20.2095 9.16048 20.2074L3.79146 14.8386L3.79132 14.8385L2.71765 13.7648C2.39974 13.4469 2.39974 12.9297 2.71755 12.6118C2.87168 12.4577 3.07657 12.3728 3.29445 12.3728C3.51218 12.3728 3.71688 12.4576 3.87082 12.6115L6.55488 15.2955C6.55502 15.2957 6.55516 15.2959 6.55535 15.2961L8.56863 17.3092L11.3875 20.128C11.5414 20.282 11.6261 20.4867 11.6261 20.7045ZM9.19999 15.9519L8.62338 15.3754L8.04687 14.7988L14.7977 8.04797L15.951 9.20119L9.19999 15.9519ZM21.2801 11.3882C21.1261 11.5423 20.9214 11.6271 20.7037 11.6271C20.4859 11.6271 20.281 11.5423 20.1269 11.3883L17.4443 8.70577C17.4437 8.70516 17.4432 8.7045 17.4426 8.70389L15.2949 6.55636C15.2946 6.55603 15.2942 6.55575 15.2939 6.55542L12.6105 3.87216C12.2927 3.55416 12.2927 3.03675 12.6104 2.71884C12.7645 2.56477 12.9693 2.47992 13.1872 2.47992C13.405 2.47992 13.6098 2.56477 13.7638 2.7188L14.8345 3.78942C14.8355 3.79045 14.8364 3.79158 14.8375 3.79256L20.2065 9.16144C20.207 9.16195 20.2075 9.16242 20.208 9.16284L21.2802 10.2351C21.4343 10.3891 21.5192 10.5938 21.5192 10.8117C21.5191 11.0295 21.4343 11.2342 21.2801 11.3882Z" fill="black"/>
</g>
<defs>
<clipPath id="clip0_1002_1044">
<rect width="24" height="24" fill="white"/>
</clipPath>
</defs>
</svg>
