<svg width="24" height="24" viewBox="0 0 24 24" fill="none" xmlns="http://www.w3.org/2000/svg">
<path d="M19 9.25H15.75V5C15.75 3.483 14.517 2.25 13 2.25H5C3.483 2.25 2.25 3.483 2.25 5V20.5C2.25 21.189 2.811 21.75 3.5 21.75H20.5C21.189 21.75 21.75 21.189 21.75 20.5V12C21.75 10.483 20.517 9.25 19 9.25ZM3.75 5C3.75 4.311 4.311 3.75 5 3.75H13C13.689 3.75 14.25 4.311 14.25 5V20.25H12.75V15C12.75 14.035 11.965 13.25 11 13.25H7C6.035 13.25 5.25 14.035 5.25 15V20.25H3.75V5ZM6.75 20.25V15C6.75 14.862 6.862 14.75 7 14.75H11C11.138 14.75 11.25 14.862 11.25 15V20.25H6.75ZM20.25 20.25H15.75V10.75H19C19.689 10.75 20.25 11.311 20.25 12V20.25Z" fill="black"/>
<path d="M7 8.75H8.25V10C8.25 10.414 8.586 10.75 9 10.75C9.414 10.75 9.75 10.414 9.75 10V8.75H11C11.414 8.75 11.75 8.414 11.75 8C11.75 7.586 11.414 7.25 11 7.25H9.75V6C9.75 5.586 9.414 5.25 9 5.25C8.586 5.25 8.25 5.586 8.25 6V7.25H7C6.586 7.25 6.25 7.586 6.25 8C6.25 8.414 6.586 8.75 7 8.75Z" fill="black"/>
<path d="M18 16.25C17.586 16.25 17.25 16.586 17.25 17V18C17.25 18.414 17.586 18.75 18 18.75C18.414 18.75 18.75 18.414 18.75 18V17C18.75 16.586 18.414 16.25 18 16.25Z" fill="black"/>
<path d="M18 12.25C17.586 12.25 17.25 12.586 17.25 13V14C17.25 14.414 17.586 14.75 18 14.75C18.414 14.75 18.75 14.414 18.75 14V13C18.75 12.586 18.414 12.25 18 12.25Z" fill="black"/>
</svg>
