<svg width="24" height="24" viewBox="0 0 24 24" fill="none" xmlns="http://www.w3.org/2000/svg">
<g clip-path="url(#clip0_1002_1064)">
<path d="M23.25 9.28125C23.424 9.28115 23.5909 9.21198 23.7139 9.08893C23.837 8.96588 23.9062 8.79902 23.9062 8.625V6C23.9062 5.82598 23.837 5.65912 23.7139 5.53607C23.5909 5.41302 23.424 5.34385 23.25 5.34375H22.4062V3.9375C22.4058 3.4305 22.2411 2.9373 21.9369 2.5317C21.6327 2.1261 21.2053 1.82993 20.7188 1.6875V0.75C20.7188 0.575952 20.6496 0.409032 20.5265 0.285961C20.4035 0.16289 20.2365 0.09375 20.0625 0.09375C19.8885 0.09375 19.7215 0.16289 19.5985 0.285961C19.4754 0.409032 19.4062 0.575952 19.4062 0.75V1.6875C18.9197 1.82993 18.4923 2.1261 18.1881 2.5317C17.8839 2.9373 17.7192 3.4305 17.7188 3.9375V5.34375H16.875C16.701 5.34385 16.5341 5.41302 16.4111 5.53607C16.288 5.65912 16.2188 5.82598 16.2188 6V8.625C16.2188 8.79902 16.288 8.96588 16.4111 9.08893C16.5341 9.21198 16.701 9.28115 16.875 9.28125H16.9688V19.9688H15.6562V18C15.6562 17.826 15.587 17.6591 15.4639 17.5361C15.3409 17.413 15.174 17.3438 15 17.3438H14.5312V15.9064C14.5347 14.8351 14.2379 13.7843 13.6745 12.8731C13.1111 11.9619 12.3037 11.2269 11.3438 10.7513C10.3975 10.2753 9.56589 9.59958 8.90625 8.77087V7.5C8.90625 7.32595 8.83711 7.15903 8.71404 7.03596C8.59097 6.91289 8.42405 6.84375 8.25 6.84375C8.07595 6.84375 7.90903 6.91289 7.78596 7.03596C7.66289 7.15903 7.59375 7.32595 7.59375 7.5V8.77087C6.93357 9.5998 6.10127 10.2755 5.15438 10.7513C4.19481 11.2271 3.38775 11.9623 2.8247 12.8735C2.26165 13.7846 1.96513 14.8353 1.96875 15.9064V17.3438H1.5C1.32598 17.3438 1.15912 17.413 1.03607 17.5361C0.913022 17.6591 0.843849 17.826 0.84375 18V19.9688H0.75C0.575982 19.9688 0.40912 20.038 0.286071 20.1611C0.163022 20.2841 0.0938494 20.451 0.09375 20.625V23.25C0.0938494 23.424 0.163022 23.5909 0.286071 23.7139C0.40912 23.837 0.575982 23.9062 0.75 23.9062H23.25C23.424 23.9062 23.5909 23.837 23.7139 23.7139C23.837 23.5909 23.9062 23.424 23.9062 23.25V20.625C23.9062 20.451 23.837 20.2841 23.7139 20.1611C23.5909 20.038 23.424 19.9688 23.25 19.9688H23.1562V9.28125H23.25ZM19.0312 3.9375C19.0312 3.664 19.1399 3.40169 19.3333 3.2083C19.5267 3.0149 19.789 2.90625 20.0625 2.90625C20.336 2.90625 20.5983 3.0149 20.7917 3.2083C20.9851 3.40169 21.0938 3.664 21.0938 3.9375V5.34375H19.0312V3.9375ZM3.28125 15.9064C3.27818 15.0791 3.50709 14.2675 3.94198 13.5638C4.37688 12.86 5.00035 12.2923 5.74162 11.925C6.68671 11.451 7.53689 10.8077 8.25 10.0271C8.96311 10.8077 9.81329 11.451 10.7584 11.925C11.4997 12.2923 12.1231 12.86 12.558 13.5638C12.9929 14.2675 13.2218 15.0791 13.2188 15.9064V17.3438H3.28125V15.9064ZM2.15625 18.6562H14.3438V19.9688H2.15625V18.6562ZM22.5938 22.5938H1.40625V21.2812H22.5938V22.5938ZM18.2812 19.9688V9.28125H21.8438V19.9688H18.2812ZM22.5938 7.96875H17.5312V6.65625H22.5938V7.96875Z" fill="black"/>
</g>
<defs>
<clipPath id="clip0_1002_1064">
<rect width="24" height="24" fill="white"/>
</clipPath>
</defs>
</svg>
