<svg width="24" height="24" viewBox="0 0 24 24" fill="none" xmlns="http://www.w3.org/2000/svg">
<g clip-path="url(#clip0_1002_1107)">
<path d="M17.0659 17.2382L14.6762 13.9171C14.2388 13.3092 13.5334 12.9485 12.7818 12.9485H8.88447C8.15868 12.9485 7.47438 13.285 7.03361 13.8586L4.43652 17.2382H17.0659Z" stroke="black" stroke-width="1.5" stroke-miterlimit="10" stroke-linecap="round" stroke-linejoin="round"/>
<path d="M14.7173 21.9453H17.0661V17.2383H3.60901C2.08811 17.2383 0.84375 18.4828 0.84375 20.0038V21.9453H3.44304" stroke="black" stroke-width="1.5" stroke-miterlimit="10" stroke-linecap="round" stroke-linejoin="round"/>
<path d="M6.84082 21.9452H11.3737" stroke="black" stroke-width="1.5" stroke-miterlimit="10" stroke-linecap="round" stroke-linejoin="round"/>
<path d="M13.0465 23.5313C13.9271 23.5313 14.6409 22.8212 14.6409 21.9453C14.6409 21.0693 13.9271 20.3593 13.0465 20.3593C12.166 20.3593 11.4521 21.0693 11.4521 21.9453C11.4521 22.8212 12.166 23.5313 13.0465 23.5313Z" stroke="black" stroke-width="1.5" stroke-miterlimit="10" stroke-linecap="round" stroke-linejoin="round"/>
<path d="M5.13443 23.5313C6.01498 23.5313 6.72882 22.8212 6.72882 21.9453C6.72882 21.0693 6.01498 20.3593 5.13443 20.3593C4.25387 20.3593 3.54004 21.0693 3.54004 21.9453C3.54004 22.8212 4.25387 23.5313 5.13443 23.5313Z" stroke="black" stroke-width="1.5" stroke-miterlimit="10" stroke-linecap="round" stroke-linejoin="round"/>
<path d="M9.38867 17.3236V21.8442" stroke="black" stroke-width="1.5" stroke-miterlimit="10" stroke-linecap="round" stroke-linejoin="round"/>
<path d="M19.039 11.3563H17.0664V23.5314H19.039V11.3563Z" stroke="black" stroke-width="1.5" stroke-miterlimit="10" stroke-linecap="round" stroke-linejoin="round"/>
<path d="M21.6218 11.3563H14.4827C13.6353 11.3563 12.9482 10.6693 12.9482 9.82182V2.00324C12.9482 1.15578 13.6353 0.46875 14.4827 0.46875H21.6218C22.4693 0.46875 23.1563 1.15578 23.1563 2.00324V9.82187C23.1563 10.6693 22.4693 11.3563 21.6218 11.3563Z" stroke="black" stroke-width="1.5" stroke-miterlimit="10" stroke-linecap="round" stroke-linejoin="round"/>
<path d="M17.0664 3.24756V8.57761" stroke="black" stroke-width="1.5" stroke-miterlimit="10" stroke-linecap="round" stroke-linejoin="round"/>
<path d="M20.0839 4.75167C20.0839 5.5824 19.3811 6.25584 18.5504 6.25584C18.1385 6.25584 17.0768 6.26249 17.0768 6.26249C17.0768 6.26249 17.0701 5.17046 17.0701 4.75172C17.0701 4.40779 17.0664 3.24756 17.0664 3.24756C17.0664 3.24756 18.0636 3.24756 18.5504 3.24756C19.3811 3.24751 20.0839 3.92094 20.0839 4.75167Z" stroke="black" stroke-width="1.5" stroke-miterlimit="10" stroke-linecap="round" stroke-linejoin="round"/>
</g>
<defs>
<clipPath id="clip0_1002_1107">
<rect width="24" height="24" fill="white"/>
</clipPath>
</defs>
</svg>
