<svg width="24" height="24" viewBox="0 0 24 24" fill="none" xmlns="http://www.w3.org/2000/svg">
<g clip-path="url(#clip0_1002_1134)">
<path d="M20.784 12.1642L22.1453 10.8029C24.6181 8.33014 24.6184 4.32772 22.1453 1.85469C19.6726 -0.618064 15.6702 -0.618393 13.1971 1.85469C12.6693 2.3824 2.33344 12.7184 1.8547 13.1971C-0.618094 15.6699 -0.618375 19.6723 1.8547 22.1454C4.32741 24.6181 8.32987 24.6185 10.8029 22.1454L12.1642 20.7841C13.2525 22.7018 15.3132 23.9986 17.6712 23.9986C21.1601 23.9986 23.9986 21.1602 23.9986 17.6712C23.9986 15.3132 22.7018 13.2525 20.784 12.1642ZM11.3438 17.6712C11.3438 18.2635 11.4259 18.8369 11.5787 19.3811L9.80869 21.1511C7.88545 23.0743 4.77244 23.0746 2.84897 21.1511C0.925734 19.2279 0.925453 16.1149 2.84897 14.1914L7.98014 9.06022L12.6916 13.7717C11.8477 14.847 11.3438 16.2014 11.3438 17.6712ZM16.9681 22.5421C14.5864 22.1999 12.7499 20.1462 12.7499 17.6712C12.7499 15.1962 14.5864 13.1425 16.9681 12.8003V22.5421ZM13.6765 12.7681L8.97436 8.06595L14.1914 2.84895C16.1146 0.925764 19.2276 0.925482 21.1511 2.84895C23.0743 4.77214 23.0746 7.8852 21.1511 9.80867L19.381 11.5787C18.8369 11.4258 18.2635 11.3438 17.6712 11.3438C16.1576 11.3438 14.7667 11.8783 13.6765 12.7681ZM18.3743 22.5421V12.8004C20.756 13.1426 22.5925 15.1963 22.5925 17.6712C22.5925 20.1462 20.756 22.1999 18.3743 22.5421Z" fill="black"/>
</g>
<defs>
<clipPath id="clip0_1002_1134">
<rect width="24" height="24" fill="white"/>
</clipPath>
</defs>
</svg>
