<svg width="24" height="24" viewBox="0 0 24 24" fill="none" xmlns="http://www.w3.org/2000/svg">
<g clip-path="url(#clip0_1002_981)">
<path d="M21.9758 16.1804C21.1535 15.358 19.8153 15.358 18.993 16.1804L16.8347 18.3387C16.5344 17.5393 15.7624 16.9687 14.8594 16.9687H12.5775C12.2537 16.9687 12.1107 16.7914 11.7827 16.5028C10.7602 15.603 9.39567 15.1645 8.03944 15.3005C6.78098 15.4264 5.64877 16.0149 4.81528 16.9687H2.10938C1.72106 16.9687 1.40625 17.2835 1.40625 17.6719V23.2969C1.40625 23.6852 1.72106 24 2.10938 24C2.70056 24 15.6727 24 16.2656 24C16.8289 24 17.3586 23.7805 17.757 23.382L21.9758 19.1633C22.7982 18.3409 22.7982 17.0028 21.9758 16.1804ZM4.3125 22.5937H2.8125V18.375H4.3125V22.5937ZM20.9814 18.1689L16.7627 22.3877C16.6318 22.5186 16.4506 22.5937 16.2656 22.5937C16.0348 22.5937 5.94478 22.5937 5.71875 22.5937V18.0846C6.32817 17.2894 7.20127 16.7975 8.1795 16.6997C9.14841 16.6027 10.1234 16.9157 10.8538 17.5585C11.2101 17.8721 11.6814 18.375 12.5775 18.375H14.8594C15.2471 18.375 15.5625 18.6904 15.5625 19.0781C15.5625 19.4658 15.2471 19.7812 14.8594 19.7812H11.9869C11.3121 19.7812 10.6732 20.1077 10.2777 20.6544C10.0501 20.9691 10.1207 21.4086 10.4354 21.6362C10.75 21.8638 11.1896 21.7932 11.4172 21.4785C11.549 21.2963 11.762 21.1875 11.9869 21.1875C12.7388 21.1875 14.919 21.1875 15.6833 21.1875C15.8699 21.1875 16.0486 21.1134 16.1805 20.9815L19.9873 17.1748C20.2614 16.9007 20.7073 16.9007 20.9814 17.1748C21.2556 17.4489 21.2556 17.8948 20.9814 18.1689Z" fill="black"/>
<path d="M23.2969 12.75H22.5703C22.2514 7.8495 18.6087 3.85233 13.9634 2.98903C14.0868 2.72109 14.1562 2.42325 14.1562 2.10938C14.1562 0.946266 13.21 0 12.0469 0C10.8838 0 9.9375 0.946266 9.9375 2.10938C9.9375 2.42287 10.0068 2.72039 10.13 2.98809C5.48559 3.84548 1.75622 7.83183 1.4302 12.75H0.703125C0.314812 12.75 0 13.0648 0 13.4531C0 13.8414 0.314812 14.1562 0.703125 14.1562H23.2969C23.6852 14.1562 24 13.8414 24 13.4531C24 13.0648 23.6852 12.75 23.2969 12.75ZM12.0469 1.40625C12.4346 1.40625 12.75 1.72167 12.75 2.10938C12.75 2.49708 12.4346 2.8125 12.0469 2.8125C11.6592 2.8125 11.3438 2.49708 11.3438 2.10938C11.3438 1.72167 11.6592 1.40625 12.0469 1.40625ZM2.84044 12.75C3.21342 8.05786 7.27753 4.20938 12.0469 4.20938C16.8529 4.20938 20.8044 7.98534 21.1612 12.75H2.84044Z" fill="black"/>
</g>
<defs>
<clipPath id="clip0_1002_981">
<rect width="24" height="24" fill="white"/>
</clipPath>
</defs>
</svg>
