<svg width="24" height="24" viewBox="0 0 24 24" fill="none" xmlns="http://www.w3.org/2000/svg">
<g clip-path="url(#clip0_1002_988)">
<path d="M23.7941 16.4714L21.9351 14.6124V8.23592L23.1487 7.79839C23.4273 7.6979 23.6131 7.43369 23.6134 7.13747C23.6136 6.84134 23.4282 6.57676 23.1497 6.47594L12.0461 2.45473C11.8914 2.39872 11.7219 2.39872 11.5673 2.45473L0.463694 6.47594C0.186268 6.57643 0.00112922 6.83937 4.33015e-06 7.13442C-0.00102682 7.42947 0.18219 7.69377 0.45882 7.79628L4.55666 9.31427V13.9477C4.55666 14.0915 4.60072 14.2319 4.68298 14.3498C4.72821 14.4147 5.15665 14.9998 6.25361 15.5519C7.63943 16.2495 9.45707 16.6032 11.656 16.6032C13.8532 16.6032 15.6801 16.2503 17.0857 15.554C18.1935 15.0053 18.6361 14.4263 18.683 14.3621C18.7708 14.2418 18.818 14.0968 18.818 13.9478V9.35964L20.5291 8.74278V14.6124L18.6701 16.4714C18.5382 16.6032 18.4641 16.782 18.4641 16.9685C18.4641 17.1549 18.5382 17.3338 18.6701 17.4656L20.5291 19.3245V20.8842C20.5291 21.2725 20.8438 21.5873 21.2321 21.5873C21.6204 21.5873 21.9352 21.2725 21.9352 20.8842V19.3245L23.7941 17.4656C24.0687 17.1911 24.0687 16.7459 23.7941 16.4714ZM11.8067 3.86351L20.8415 7.1355L11.6593 10.4459L2.74713 7.14445L11.8067 3.86351ZM17.4119 13.6675C15.0084 15.8302 7.86638 15.5822 5.96278 13.6745V9.83519L11.4117 11.8537C11.4982 11.8674 11.5798 11.942 11.8944 11.8559L17.4119 9.86669L17.4119 13.6675ZM21.2321 18.0391L20.1614 16.9685L21.2321 15.8978L22.3027 16.9685L21.2321 18.0391Z" fill="black"/>
</g>
<defs>
<clipPath id="clip0_1002_988">
<rect width="24" height="24" fill="white"/>
</clipPath>
</defs>
</svg>
