<svg width="24" height="24" viewBox="0 0 24 24" fill="none" xmlns="http://www.w3.org/2000/svg">
<g clip-path="url(#clip0_1002_1042)">
<path d="M1.57738 23.6016H22.5464C22.9316 23.6012 23.301 23.4479 23.5734 23.1755C23.8458 22.9031 23.9991 22.5337 23.9995 22.1485V12.9247C23.9991 12.5395 23.8458 12.1701 23.5734 11.8977C23.301 11.6253 22.9317 11.4721 22.5464 11.4716H18.0605L17.6698 7.63364C17.6312 7.24457 17.4491 6.88383 17.159 6.62173C16.8689 6.35963 16.4916 6.21497 16.1006 6.21595H13.9589V4.79067C13.9584 4.21374 13.8443 3.64255 13.623 3.10973C13.4018 2.57691 13.0777 2.09288 12.6694 1.68529C11.8448 0.86211 10.727 0.400227 9.56178 0.401247C8.98485 0.401752 8.41367 0.515887 7.88085 0.737135C7.34802 0.958384 6.864 1.28241 6.4564 1.69072C5.63323 2.51534 5.17134 3.63319 5.17236 4.79836V6.21609H3.03017C2.63929 6.21513 2.26205 6.35973 1.97195 6.62172C1.68186 6.8837 1.49969 7.2443 1.46094 7.63326L0.00814328 21.864C-0.0142476 22.0836 0.00966121 22.3053 0.078325 22.515C0.146989 22.7247 0.25888 22.9177 0.40677 23.0814C0.55466 23.2452 0.735258 23.3761 0.936896 23.4657C1.13853 23.5553 1.35673 23.6016 1.57738 23.6016ZM22.4995 12.9716V22.1016H13.3695V12.9716H22.4995ZM6.67494 4.79067C6.67886 4.0263 6.98552 3.29463 7.52777 2.75588C8.07001 2.21713 8.80365 1.9152 9.56803 1.91622C10.3324 1.91724 11.0652 2.22111 11.606 2.7613C12.1469 3.30149 12.4516 4.03398 12.4535 4.79836V6.21609H6.67494V4.79067ZM1.50041 22.0163L2.95316 7.78547C2.95464 7.76622 2.96345 7.74829 2.97777 7.73535C2.9921 7.72242 3.01084 7.71547 3.03013 7.71595H5.17232V9.10064C5.17309 9.29987 5.25298 9.49064 5.39441 9.63097C5.53584 9.7713 5.72723 9.8497 5.92646 9.84893C6.1257 9.84815 6.31647 9.76826 6.4568 9.62683C6.59713 9.4854 6.67553 9.29401 6.67475 9.09478V7.71595H12.4535V9.10064C12.4556 9.29939 12.5362 9.48923 12.6778 9.62874C12.8194 9.76826 13.0104 9.84612 13.2092 9.84535C13.4079 9.84457 13.5983 9.76523 13.7388 9.62461C13.8793 9.484 13.9584 9.29354 13.959 9.09478V7.71595H16.1005C16.1198 7.71549 16.1385 7.72244 16.1528 7.73539C16.1671 7.74833 16.1759 7.76627 16.1774 7.78551L16.5524 11.4716H13.3227C12.9374 11.4721 12.568 11.6253 12.2956 11.8977C12.0232 12.1701 11.87 12.5395 11.8695 12.9247V22.1016H1.57738C1.56655 22.1016 1.55585 22.0993 1.54596 22.0949C1.53608 22.0905 1.52722 22.0841 1.51997 22.0761C1.51272 22.068 1.50723 22.0586 1.50386 22.0483C1.50049 22.038 1.49931 22.0271 1.50041 22.0163ZM14.6039 14.8817V14.5135C14.6039 14.3146 14.683 14.1238 14.8236 13.9832C14.9643 13.8425 15.155 13.7635 15.3539 13.7635C15.5529 13.7635 15.7436 13.8425 15.8843 13.9832C16.0249 14.1238 16.1039 14.3146 16.1039 14.5135V14.8817C16.1039 15.3672 16.2968 15.8328 16.6401 16.1761C16.9834 16.5194 17.449 16.7123 17.9345 16.7123C18.4201 16.7123 18.8857 16.5194 19.229 16.1761C19.5723 15.8328 19.7652 15.3672 19.7652 14.8817V14.5135C19.7652 14.3146 19.8442 14.1238 19.9848 13.9832C20.1255 13.8425 20.3162 13.7635 20.5152 13.7635C20.7141 13.7635 20.9048 13.8425 21.0455 13.9832C21.1861 14.1238 21.2652 14.3146 21.2652 14.5135V14.8817C21.2652 15.765 20.9143 16.6122 20.2896 17.2368C19.665 17.8614 18.8179 18.2123 17.9345 18.2123C17.0512 18.2123 16.2041 17.8614 15.5795 17.2368C14.9548 16.6122 14.6039 15.765 14.6039 14.8817ZM3.07874 19.8472C3.07874 19.6482 3.15775 19.4575 3.29841 19.3168C3.43906 19.1762 3.62982 19.0972 3.82874 19.0972H8.41358C8.61249 19.0972 8.80326 19.1762 8.94391 19.3168C9.08456 19.4575 9.16358 19.6482 9.16358 19.8472C9.16358 20.0461 9.08456 20.2368 8.94391 20.3775C8.80326 20.5181 8.61249 20.5972 8.41358 20.5972H3.82874C3.62982 20.5972 3.43906 20.5181 3.29841 20.3775C3.15775 20.2368 3.07874 20.0461 3.07874 19.8472Z" fill="black"/>
</g>
<defs>
<clipPath id="clip0_1002_1042">
<rect width="24" height="24" fill="white"/>
</clipPath>
</defs>
</svg>
