<svg width="24" height="24" viewBox="0 0 24 24" fill="none" xmlns="http://www.w3.org/2000/svg">
<mask id="mask0_1002_1019" style="mask-type:luminance" maskUnits="userSpaceOnUse" x="0" y="0" width="24" height="24">
<path d="M0 1.90735e-06H24V24H0V1.90735e-06Z" fill="white"/>
</mask>
<g mask="url(#mask0_1002_1019)">
<path d="M20.4375 19.0312H7.78125C7.00462 19.0312 6.375 18.4016 6.375 17.625C6.375 16.8484 7.00462 16.2188 7.78125 16.2188" stroke="black" stroke-width="1.5" stroke-miterlimit="10" stroke-linecap="round" stroke-linejoin="round"/>
<path d="M12 20.4375C12 21.2141 11.3704 21.8438 10.5938 21.8438C9.81712 21.8438 9.1875 21.2141 9.1875 20.4375C9.1875 19.6609 9.81712 19.0312 10.5938 19.0312C11.3704 19.0312 12 19.6609 12 20.4375Z" stroke="black" stroke-width="1.5" stroke-miterlimit="10" stroke-linecap="round" stroke-linejoin="round"/>
<path d="M19.0312 20.4375C19.0312 21.2141 18.4017 21.8438 17.625 21.8438C16.8484 21.8438 16.2188 21.2141 16.2188 20.4375C16.2188 19.6609 16.8484 19.0312 17.625 19.0312C18.4017 19.0312 19.0312 19.6609 19.0312 20.4375Z" stroke="black" stroke-width="1.5" stroke-miterlimit="10" stroke-linecap="round" stroke-linejoin="round"/>
<path d="M4.26952 4.96875H23.2969L20.7038 15.1536C20.5473 15.7796 19.9848 16.2188 19.3395 16.2188H7.78125L3.69975 3.14348C3.51642 2.55619 2.97262 2.15625 2.35739 2.15625H0.703125" stroke="black" stroke-width="1.5" stroke-miterlimit="10" stroke-linecap="round" stroke-linejoin="round"/>
<path d="M6.02539 10.5938H21.8438" stroke="black" stroke-width="1.5" stroke-miterlimit="10" stroke-linecap="round" stroke-linejoin="round"/>
<path d="M10.5938 4.96875L12 16.2188" stroke="black" stroke-width="1.5" stroke-miterlimit="10" stroke-linecap="round" stroke-linejoin="round"/>
<path d="M17.625 4.96875L16.2188 16.2188" stroke="black" stroke-width="1.5" stroke-miterlimit="10" stroke-linecap="round" stroke-linejoin="round"/>
</g>
</svg>
