<svg width="24" height="24" viewBox="0 0 24 24" fill="none" xmlns="http://www.w3.org/2000/svg">
<path d="M6.75 5.25H8.25V6.75H6.75V5.25Z" fill="black"/>
<path d="M6.75 8.25H8.25V9.75H6.75V8.25Z" fill="black"/>
<path d="M6.75 11.25H8.25V12.75H6.75V11.25Z" fill="black"/>
<path d="M6.75 14.25H8.25V15.75H6.75V14.25Z" fill="black"/>
<path d="M9.75 5.25H11.25V6.75H9.75V5.25Z" fill="black"/>
<path d="M15.75 11.25H17.25V12.75H15.75V11.25Z" fill="black"/>
<path d="M15.75 8.25H17.25V9.75H15.75V8.25Z" fill="black"/>
<path d="M9.75 8.25H11.25V9.75H9.75V8.25Z" fill="black"/>
<path d="M15.75 14.25H17.25V15.75H15.75V14.25Z" fill="black"/>
<path d="M9.75 11.25H11.25V12.75H9.75V11.25Z" fill="black"/>
<path d="M15.75 17.25H17.25V18.75H15.75V17.25Z" fill="black"/>
<path d="M9.75 14.25H11.25V15.75H9.75V14.25Z" fill="black"/>
<path d="M21 20.25H20.25V6C20.25 5.80109 20.171 5.61032 20.0303 5.46967C19.8897 5.32902 19.6989 5.25 19.5 5.25H14.25V3C14.25 2.80109 14.171 2.61032 14.0303 2.46967C13.8897 2.32902 13.6989 2.25 13.5 2.25H4.5C4.30109 2.25 4.11032 2.32902 3.96967 2.46967C3.82902 2.61032 3.75 2.80109 3.75 3V20.25H3C2.80109 20.25 2.61032 20.329 2.46967 20.4697C2.32902 20.6103 2.25 20.8011 2.25 21C2.25 21.1989 2.32902 21.3897 2.46967 21.5303C2.61032 21.671 2.80109 21.75 3 21.75H21C21.1989 21.75 21.3897 21.671 21.5303 21.5303C21.671 21.3897 21.75 21.1989 21.75 21C21.75 20.8011 21.671 20.6103 21.5303 20.4697C21.3897 20.329 21.1989 20.25 21 20.25ZM5.25 3.75H12.75V18C12.75 18.1989 12.829 18.3897 12.9697 18.5303C13.1103 18.671 13.3011 18.75 13.5 18.75C13.6989 18.75 13.8897 18.671 14.0303 18.5303C14.171 18.3897 14.25 18.1989 14.25 18V6.75H18.75V20.25H11.25V18C11.25 17.8011 11.171 17.6103 11.0303 17.4697C10.8897 17.329 10.6989 17.25 10.5 17.25H7.5C7.30109 17.25 7.11032 17.329 6.96967 17.4697C6.82902 17.6103 6.75 17.8011 6.75 18V20.25H5.25V3.75ZM9.75 20.25H8.25V18.75H9.75V20.25Z" fill="black"/>
</svg>
