<svg width="24" height="24" viewBox="0 0 24 24" fill="none" xmlns="http://www.w3.org/2000/svg">
<path d="M21.9242 22.619V14.2108H22.6781C22.9558 14.2108 23.1807 13.9018 23.1807 13.5203C23.1807 13.1388 22.9558 12.8298 22.6781 12.8298H16.9505V1.97375L18.3368 1.34641C18.6004 1.22695 18.7436 0.836808 18.6569 0.474629C18.57 0.112451 18.2857 -0.0843473 18.0224 0.0347676L16.2996 0.814365C16.2996 0.814365 16.2976 0.815402 16.2966 0.815747L3.33211 6.6838C3.33211 6.6838 3.33009 6.68483 3.32909 6.68518L1.59179 7.47168C1.32817 7.59114 1.18492 7.98128 1.27163 8.34346C1.34124 8.63383 1.53776 8.8182 1.74886 8.8182C1.80088 8.8182 1.85391 8.8068 1.90618 8.78332L2.97801 8.29824V22.619H0.502618C0.224921 22.619 0 22.928 0 23.3095C0 23.691 0.224921 24 0.502618 24H23.4974C23.7751 24 24 23.691 24 23.3095C24 22.928 23.7751 22.619 23.4974 22.619H21.9244H21.9242ZM9.77617 13.5203V22.619H3.98299V7.84318L15.9453 2.4288V12.8298H15.1411V7.06773C15.1411 6.68621 14.9162 6.3772 14.6385 6.3772H11.9997C11.7221 6.3772 11.4971 6.68621 11.4971 7.06773V12.8298H10.2788C10.0011 12.8298 9.77617 13.1388 9.77617 13.5203ZM14.1359 7.75825V12.8298H12.5024V7.75825H14.1359ZM18.8605 22.619H17.4577V18.5304H18.8605V22.619ZM20.919 22.619H19.8657V17.8399C19.8657 17.4583 19.6408 17.1493 19.3631 17.1493H16.9551C16.6774 17.1493 16.4524 17.4583 16.4524 17.8399V22.619H10.7814V14.2108H20.919V22.619Z" fill="black"/>
<path d="M14.2767 15.3112H12.362C12.0843 15.3112 11.8594 15.6202 11.8594 16.0017V18.6322C11.8594 19.0137 12.0843 19.3227 12.362 19.3227H14.2767C14.5544 19.3227 14.7793 19.0137 14.7793 18.6322V16.0017C14.7793 15.6202 14.5544 15.3112 14.2767 15.3112ZM13.7741 17.9417H12.8646V16.6922H13.7741V17.9417Z" fill="black"/>
<path d="M8.10482 8.93939H5.99383C5.71613 8.93939 5.49121 9.2484 5.49121 9.62991V19.9114C5.49121 20.2929 5.71613 20.602 5.99383 20.602H8.10482C8.38252 20.602 8.60744 20.2929 8.60744 19.9114V9.62991C8.60744 9.2484 8.38252 8.93939 8.10482 8.93939ZM7.60221 19.2209H6.49645V17.2875H7.60221V19.2209ZM7.60221 15.9064H6.49645V13.6349H7.60221V15.9064ZM7.60221 12.2539H6.49645V10.3204H7.60221V12.2539Z" fill="black"/>
</svg>
