<svg width="24" height="24" viewBox="0 0 24 24" fill="none" xmlns="http://www.w3.org/2000/svg">
<g clip-path="url(#clip0_1002_1202)">
<path d="M23.0723 1.58716H12.7627C12.2522 1.58716 11.8364 2.00247 11.8364 2.51341V9.21606L11.5284 9.0506C11.1478 8.84481 10.6945 8.84716 10.3153 9.05622L9.78375 9.34122V6.58591C9.78375 6.13825 9.41953 5.77403 8.97187 5.77403H0.811875C0.364219 5.77403 0 6.13825 0 6.58591V22.0378C0 22.245 0.167812 22.4123 0.374531 22.4123H5.53406H9.09656H12.757H16.3209H23.0086C23.5552 22.4123 24 21.9684 24 21.4223V2.51341C24 2.00294 23.5837 1.58716 23.0723 1.58716ZM10.6716 9.71575C10.673 9.71481 10.6744 9.71388 10.6762 9.71341C10.8314 9.62716 11.017 9.62622 11.1731 9.7106L18.1205 13.4376C18.2423 13.5033 18.3314 13.6125 18.3713 13.7451C18.4111 13.8778 18.3966 14.0184 18.3305 14.1412C18.1959 14.3925 17.8809 14.4867 17.6283 14.3517L17.0297 14.0306C17.0161 14.0222 17.0016 14.0142 16.9866 14.0076L11.1047 10.8506C10.9941 10.7911 10.8609 10.7911 10.7503 10.8506L4.85672 14.0128C4.84922 14.0165 4.84172 14.0203 4.83422 14.025L4.22531 14.3517C3.97312 14.4867 3.65813 14.392 3.52313 14.1403C3.4575 14.0184 3.44344 13.8783 3.48328 13.7456C3.52312 13.6129 3.61266 13.5033 3.73406 13.4376L5.86547 12.2943C5.86875 12.2925 5.87156 12.2911 5.87484 12.2892L7.76344 11.2762C7.77094 11.2725 7.77891 11.2683 7.78594 11.264L10.6716 9.71575ZM19.9284 21.6632H17.1956C17.2027 21.6187 17.2073 21.5733 17.2073 21.5264V17.7567H19.8834C19.9073 17.7567 19.9284 17.7778 19.9284 17.8017V21.6632ZM16.4578 21.5264C16.4578 21.6004 16.395 21.6632 16.3209 21.6632H13.132V18.0187C13.132 17.8115 12.9642 17.6442 12.7575 17.6442H9.09703C8.89031 17.6442 8.7225 17.812 8.7225 18.0187V21.6632H5.535C5.46094 21.6632 5.39813 21.6004 5.39813 21.5264V14.5734L10.9284 11.6062L16.4587 14.5739V21.5264H16.4578ZM7.22297 10.7156L6.06703 11.3358V9.37263H7.22297V10.7156ZM0.749531 6.58591C0.749531 6.55169 0.777656 6.52356 0.811875 6.52356H8.97187C9.00609 6.52356 9.03422 6.55169 9.03422 6.58591V9.74388L7.9725 10.3134V9.36044C7.9725 8.95403 7.64109 8.6231 7.23375 8.6231H6.05531C5.64891 8.6231 5.31797 8.95403 5.31797 9.36044V11.7379L3.37969 12.7776C3.08156 12.9379 2.86359 13.2051 2.76562 13.5295C2.66812 13.8543 2.70234 14.1975 2.86313 14.4956C3.19359 15.1101 3.96375 15.3417 4.57922 15.0122L4.64766 14.9751V21.5259C4.64766 21.5728 4.65234 21.6178 4.65938 21.6628H0.749531V6.58591ZM9.47156 21.6632V18.3933H12.383V21.6632H9.47156ZM23.2505 21.4228C23.2505 21.5554 23.1422 21.6632 23.0086 21.6632H20.678V17.8022C20.678 17.3639 20.3217 17.0076 19.8834 17.0076H17.2073V14.9765L17.2748 15.0126H17.2753C17.4656 15.1143 17.6709 15.1631 17.873 15.1631C18.1369 15.1631 18.3956 15.0801 18.6108 14.9273C18.6745 15.1743 18.8986 15.3576 19.1644 15.3576H21.0192C21.3352 15.3576 21.592 15.1003 21.592 14.7834V12.93C21.592 12.6136 21.3352 12.3558 21.0192 12.3558H19.1644C18.8747 12.3558 18.6352 12.5728 18.5977 12.8526C18.5588 12.8254 18.518 12.8001 18.4753 12.7776L15.0338 10.9312H16.672C16.988 10.9312 17.2448 10.6739 17.2448 10.357V8.50216C17.2448 8.18622 16.988 7.92935 16.672 7.92935H14.8172C14.5008 7.92935 14.243 8.18622 14.243 8.50216V10.357C14.243 10.4137 14.2514 10.4681 14.2669 10.5197L12.5859 9.61825V2.51341C12.5859 2.41591 12.6652 2.33669 12.7627 2.33669H23.0723C23.1703 2.33669 23.2505 2.41591 23.2505 2.51341V21.4228ZM19.3411 14.6076V13.1048H20.8425V14.6076H19.3411ZM14.9925 10.1817V8.67888H16.4953V10.1817H14.9925ZM16.672 3.50341H14.8172C14.5008 3.50341 14.243 3.76028 14.243 4.07622V5.93106C14.243 6.247 14.5003 6.50388 14.8172 6.50388H16.672C16.988 6.50388 17.2448 6.247 17.2448 5.93106V4.07622C17.2444 3.76028 16.9875 3.50341 16.672 3.50341ZM16.4953 5.75435H14.9925V4.25294H16.4953V5.75435ZM21.0197 3.50341H19.1648C18.8489 3.50341 18.592 3.76028 18.592 4.07622V5.93106C18.592 6.247 18.8489 6.50388 19.1648 6.50388H21.0197C21.3356 6.50388 21.5925 6.247 21.5925 5.93106V4.07622C21.592 3.76028 21.3352 3.50341 21.0197 3.50341ZM20.843 5.75435H19.3416V4.25294H20.843V5.75435ZM21.0197 7.92935H19.1648C18.8489 7.92935 18.592 8.18622 18.592 8.50216V10.357C18.592 10.6734 18.8489 10.9312 19.1648 10.9312H21.0197C21.3356 10.9312 21.5925 10.6739 21.5925 10.357V8.50216C21.592 8.18622 21.3352 7.92935 21.0197 7.92935ZM20.843 10.1817H19.3416V8.67888H20.843V10.1817Z" fill="black"/>
</g>
<defs>
<clipPath id="clip0_1002_1202">
<rect width="24" height="24" fill="white"/>
</clipPath>
</defs>
</svg>
