<svg width="24" height="24" viewBox="0 0 24 24" fill="none" xmlns="http://www.w3.org/2000/svg">
<path fill-rule="evenodd" clip-rule="evenodd" d="M2.08627 22.0243V3.46761H1.49989C1.24109 3.46761 1.03129 3.25782 1.03129 2.99902V1.49948C1.03129 1.24068 1.24109 1.03088 1.49989 1.03088H14.1065C14.3653 1.03088 14.5751 1.24068 14.5751 1.49948V2.99902C14.5751 3.25782 14.3653 3.46761 14.1065 3.46761H13.5202V22.0243H19.1262C19.3554 20.9895 19.8977 17.7976 18.6214 15.0763C18.3475 14.9032 17.8194 14.6422 17.2541 14.8069C16.8021 14.9386 16.3556 15.3443 15.9652 16.1995C15.8578 16.4348 15.5795 16.5386 15.3443 16.4312C15.109 16.3238 15.0052 16.0455 15.1126 15.8103C15.663 14.6049 16.3548 14.0927 16.9919 13.9071C17.2713 13.8257 17.5455 13.808 17.8032 13.8301C17.437 13.5233 16.8938 13.2211 16.0941 13.0432C15.8417 12.987 15.6823 12.7364 15.7385 12.484C15.7946 12.2315 16.0452 12.0722 16.2977 12.1283C17.5941 12.4168 18.3644 12.9767 18.8182 13.4972C19.1438 12.6894 19.823 11.7007 21.2367 11.2265C21.4819 11.1442 21.7477 11.2765 21.83 11.5217C21.9123 11.7669 21.78 12.0328 21.5348 12.115C20.5923 12.4312 20.0763 13.0459 19.7943 13.605C19.8868 13.5778 19.9852 13.5554 20.0895 13.5394C20.7172 13.4428 21.5968 13.5716 22.7546 14.3645C22.968 14.5106 23.0226 14.8025 22.8765 15.0159C22.7304 15.2293 22.4385 15.2839 22.2251 15.1378C21.3522 14.54 20.7053 14.3929 20.232 14.4657C19.8914 14.5181 19.6638 14.6871 19.5337 14.818C20.7629 17.577 20.337 20.735 20.0809 22.0243H22.4899C22.7485 22.0243 22.9585 22.2343 22.9585 22.4929C22.9585 22.7515 22.7485 22.9615 22.4899 22.9615H19.5035C19.4974 22.9616 19.4913 22.9616 19.4851 22.9615H1.49985C1.24122 22.9615 1.03125 22.7515 1.03125 22.4929C1.03125 22.2343 1.24122 22.0243 1.49985 22.0243H2.08623H2.08627ZM12.583 22.0243V3.46761H3.02347V22.0243H5.8351V17.9943C5.8351 17.7355 6.0449 17.5257 6.3037 17.5257H9.30277C9.56157 17.5257 9.77137 17.7355 9.77137 17.9943V22.0243H12.583ZM6.77231 22.0243H8.83416V18.4629H6.77231V22.0243ZM11.5052 13.3381V15.5277C11.5052 15.7865 11.2954 15.9963 11.0366 15.9963H8.84702C8.58821 15.9963 8.37841 15.7865 8.37841 15.5277V13.3381C8.37841 13.0793 8.58821 12.8696 8.84702 12.8696H11.0366C11.2954 12.8696 11.5052 13.0793 11.5052 13.3381ZM10.568 13.8068H9.31562V15.0591H10.568V13.8068ZM7.22805 9.12072V11.3103C7.22805 11.5691 7.01825 11.7789 6.75946 11.7789H4.56987C4.31106 11.7789 4.10127 11.5691 4.10127 11.3103V9.12072C4.10127 8.86191 4.31106 8.65212 4.56987 8.65212H6.75946C7.01825 8.65212 7.22805 8.86191 7.22805 9.12072ZM6.29085 9.58932H5.03847V10.8417H6.29085V9.58932ZM7.22805 4.90328V7.09286C7.22805 7.35167 7.01825 7.56147 6.75946 7.56147H4.56987C4.31106 7.56147 4.10127 7.35167 4.10127 7.09286V4.90328C4.10127 4.64448 4.31106 4.43469 4.56987 4.43469H6.75946C7.01825 4.43469 7.22805 4.64448 7.22805 4.90328ZM6.29085 5.37189H5.03847V6.62427H6.29085V5.37189ZM11.5052 9.12072V11.3103C11.5052 11.5691 11.2954 11.7789 11.0366 11.7789H8.84702C8.58821 11.7789 8.37841 11.5691 8.37841 11.3103V9.12072C8.37841 8.86191 8.58821 8.65212 8.84702 8.65212H11.0366C11.2954 8.65212 11.5052 8.86191 11.5052 9.12072ZM10.568 9.58932H9.31562V10.8417H10.568V9.58932ZM11.5052 4.90328V7.09286C11.5052 7.35167 11.2954 7.56147 11.0366 7.56147H8.84702C8.58821 7.56147 8.37841 7.35167 8.37841 7.09286V4.90328C8.37841 4.64448 8.58821 4.43469 8.84702 4.43469H11.0366C11.2954 4.43469 11.5052 4.64448 11.5052 4.90328ZM10.568 5.37189H9.31562V6.62427H10.568V5.37189ZM7.22805 13.3381V15.5277C7.22805 15.7865 7.01825 15.9963 6.75946 15.9963H4.56987C4.31106 15.9963 4.10127 15.7865 4.10127 15.5277V13.3381C4.10127 13.0793 4.31106 12.8696 4.56987 12.8696H6.75946C7.01825 12.8696 7.22805 13.0793 7.22805 13.3381ZM6.29085 13.8068H5.03847V15.0591H6.29085V13.8068ZM13.0516 2.53047H13.638V1.96814H1.96851V2.53047H13.0516Z" fill="black"/>
</svg>
