<svg width="24" height="24" viewBox="0 0 24 24" fill="none" xmlns="http://www.w3.org/2000/svg">
<path d="M23.306 5.1072L17.2327 2.36595C17.1346 2.3217 17.0222 2.3217 16.9242 2.36595L14.9147 3.27294V3.13967C14.9147 2.93258 14.7468 2.76467 14.5397 2.76467H12.9912C12.7841 2.76467 12.6162 2.93258 12.6162 3.13967V4.31037L12.0001 4.58848L7.07607 2.36595C6.97801 2.3217 6.8656 2.3217 6.76754 2.36595L4.7581 3.27294V3.13967C4.7581 2.93258 4.5902 2.76467 4.3831 2.76467H2.83459C2.62749 2.76467 2.45959 2.93258 2.45959 3.13967V4.31037L0.694182 5.1072C0.459291 5.21323 0.333197 5.46355 0.387525 5.71592C0.441854 5.9683 0.659775 6.14454 0.917447 6.14454H1.46846V11.8682H0.984947C0.777854 11.8682 0.609947 12.0361 0.609947 12.2432V13.5309C0.609947 13.738 0.777854 13.9059 0.984947 13.9059H1.46846V19.6295H0.984947C0.777854 19.6295 0.609947 19.7974 0.609947 20.0045V21.2922C0.609947 21.4993 0.777854 21.6672 0.984947 21.6672H23.0152C23.2223 21.6672 23.3902 21.4993 23.3902 21.2922V20.0045C23.3902 19.7974 23.2223 19.6295 23.0152 19.6295H22.5317V13.906H23.0152C23.2223 13.906 23.3902 13.7381 23.3902 13.531V12.2433C23.3902 12.0362 23.2223 11.8683 23.0152 11.8683H22.5317V6.14459H23.0827C23.3404 6.14459 23.5583 5.9683 23.6127 5.71592C23.667 5.46355 23.5409 5.21323 23.306 5.1072ZM13.3662 3.51467H14.1647V3.61147L13.3662 3.97189V3.51467ZM3.20959 3.51467H4.0081V3.61147L3.20959 3.97189V3.51467ZM1.87726 5.39609L6.92185 3.11919L11.6251 5.24206V11.8682H2.21846V5.76959C2.21846 5.57384 2.06856 5.41315 1.87726 5.39609ZM1.35995 12.6182H11.6251V13.1559H1.35995V12.6182ZM2.21846 13.906H11.6251V19.6296H8.98787V16.2687C8.98787 16.0616 8.81996 15.8937 8.61287 15.8937H5.23074C5.02365 15.8937 4.85574 16.0616 4.85574 16.2687V19.6296H2.21846V13.906ZM5.60574 19.6296V16.6437H8.23787V19.6296H5.60574ZM22.6402 20.9173H1.35995V20.3796H22.6402V20.9173ZM18.3945 19.6296H15.7624V16.6437H18.3945V19.6296ZM21.7817 19.6296H19.1445V16.2687C19.1445 16.0616 18.9766 15.8937 18.7695 15.8937H15.3874C15.1803 15.8937 15.0124 16.0616 15.0124 16.2687V19.6296H12.3751V13.906H21.7817V19.6296ZM22.6402 13.156H12.3751V12.6183H22.6402V13.156ZM12.3751 11.8682V5.24206L17.0784 3.11919L22.123 5.39609C21.9317 5.41315 21.7817 5.57384 21.7817 5.76959V11.8682H12.3751ZM4.68938 10.7561H9.15423C9.36132 10.7561 9.52923 10.5882 9.52923 10.3811V7.88909C9.52923 6.45139 8.35956 5.28167 6.92181 5.28167C5.4841 5.28167 4.31438 6.45134 4.31438 7.88909V10.3811C4.31438 10.5882 4.48224 10.7561 4.68938 10.7561ZM5.06438 8.39394H6.54681V10.0061H5.06438V8.39394ZM7.29676 10.0061V8.39394H8.77918V10.0061H7.29676ZM8.76249 7.64394H7.29676V6.06978C8.06335 6.22756 8.65852 6.8593 8.76249 7.64394ZM6.54676 6.06978V7.64394H5.08103C5.18504 6.8593 5.78017 6.22756 6.54676 6.06978ZM17.0784 5.28172C15.6406 5.28172 14.471 6.45139 14.471 7.88914V10.3812C14.471 10.5882 14.6389 10.7562 14.846 10.7562H19.3108C19.5179 10.7562 19.6858 10.5882 19.6858 10.3812V7.88914C19.6858 6.45139 18.5161 5.28172 17.0784 5.28172ZM18.9191 7.64394H17.4534V6.06978C18.22 6.22756 18.8151 6.8593 18.9191 7.64394ZM16.7034 6.06978V7.64394H15.2377C15.3417 6.8593 15.9368 6.22756 16.7034 6.06978ZM15.221 8.39394H16.7034V10.0061H15.221V8.39394ZM17.4534 10.0061V8.39394H18.9358V10.0061H17.4534Z" fill="black"/>
</svg>
