<svg width="24" height="24" viewBox="0 0 24 24" fill="none" xmlns="http://www.w3.org/2000/svg">
<path d="M21.5 12H20.5V4.01003L20.58 4.00003C20.85 3.96003 21.04 3.70003 21 3.43003C20.96 3.16003 20.69 2.97003 20.43 3.02003L7.93 5.02003C7.66 5.06003 7.47 5.32003 7.51 5.59003C7.55 5.82003 7.76 6.00003 8 6.00003C8.03 6.00003 8.05 6.00003 8.08 5.99003L8.5 5.93003V9.50003H3C2.72 9.50003 2.5 9.72003 2.5 10C2.5 10.28 2.72 10.5 3 10.5H3.5V12H2.5C2.22 12 2 12.22 2 12.5V19.5C2 19.78 2.22 20 2.5 20H21.5C21.78 20 22 19.78 22 19.5V12.5C22 12.22 21.78 12 21.5 12ZM19.5 4.17003V12H9.5V5.77003L19.5 4.17003ZM8.5 12H7V10.5H8.5V12ZM4.5 10.5H6V12H4.5V10.5ZM5 19V15H13V19H5ZM17 19V16H19V19H17ZM21 19H20V15.5C20 15.22 19.78 15 19.5 15H16.5C16.22 15 16 15.22 16 15.5V19H14V14.5C14 14.22 13.78 14 13.5 14H4.5C4.22 14 4 14.22 4 14.5V19H3V13H21V19Z" fill="black"/>
<path d="M11 11H18C18.28 11 18.5 10.78 18.5 10.5V7.5C18.5 7.22 18.28 7 18 7H11C10.72 7 10.5 7.22 10.5 7.5V10.5C10.5 10.78 10.72 11 11 11ZM11.5 8H17.5V10H11.5V8Z" fill="black"/>
</svg>
