<svg width="24" height="24" viewBox="0 0 24 24" fill="none" xmlns="http://www.w3.org/2000/svg">
<g clip-path="url(#clip0_1002_1185)">
<path d="M23.6 23.2H21.2V10C21.2 9.7791 21.0209 9.6 20.8 9.6H15.2V0.4C15.2 0.1791 15.0209 0 14.8 0H4.4C4.1791 0 4 0.1791 4 0.4V23.2H0.4C0.1791 23.2 0 23.3791 0 23.6C0 23.8209 0.1791 24 0.4 24H23.6C23.8209 24 24 23.8209 24 23.6C24 23.3791 23.8209 23.2 23.6 23.2ZM8.4 23.2H6.8V19.6C6.8 19.3791 6.9791 19.2 7.2 19.2H8C8.2209 19.2 8.4 19.3791 8.4 19.6V23.2ZM10 10V23.2H9.2V19.6C9.2 18.9373 8.66275 18.4 8 18.4H7.2C6.53725 18.4 6 18.9373 6 19.6V23.2H4.8V0.8H14.4V9.6H10.4C10.1791 9.6 10 9.7791 10 10ZM20.4 23.2H10.8V10.4H20.4V23.2Z" fill="black"/>
<path d="M12.8 5.59998H10.4C10.1791 5.59998 10 5.77908 10 5.99998V8.39998C10 8.62088 10.1791 8.79998 10.4 8.79998H12.8C13.0209 8.79998 13.2 8.62088 13.2 8.39998V5.99998C13.2 5.77908 13.0209 5.59998 12.8 5.59998ZM12.4 7.99998H10.8V6.39998H12.4V7.99998Z" fill="black"/>
<path d="M12.8 1.59998H10.4C10.1791 1.59998 10 1.77908 10 1.99998V4.39998C10 4.62088 10.1791 4.79998 10.4 4.79998H12.8C13.0209 4.79998 13.2 4.62088 13.2 4.39998V1.99998C13.2 1.77908 13.0209 1.59998 12.8 1.59998ZM12.4 3.99998H10.8V2.39998H12.4V3.99998Z" fill="black"/>
<path d="M8.8 5.59998H6.4C6.1791 5.59998 6 5.77908 6 5.99998V8.39998C6 8.62088 6.1791 8.79998 6.4 8.79998H8.8C9.0209 8.79998 9.2 8.62088 9.2 8.39998V5.99998C9.2 5.77908 9.0209 5.59998 8.8 5.59998ZM8.4 7.99998H6.8V6.39998H8.4V7.99998Z" fill="black"/>
<path d="M8.8 1.59998H6.4C6.1791 1.59998 6 1.77908 6 1.99998V4.39998C6 4.62088 6.1791 4.79998 6.4 4.79998H8.8C9.0209 4.79998 9.2 4.62088 9.2 4.39998V1.99998C9.2 1.77908 9.0209 1.59998 8.8 1.59998ZM8.4 3.99998H6.8V2.39998H8.4V3.99998Z" fill="black"/>
<path d="M8.8 9.59998H6.4C6.1791 9.59998 6 9.77908 6 9.99998V12.4C6 12.6209 6.1791 12.8 6.4 12.8H8.8C9.0209 12.8 9.2 12.6209 9.2 12.4V9.99998C9.2 9.77908 9.0209 9.59998 8.8 9.59998ZM8.4 12H6.8V10.4H8.4V12Z" fill="black"/>
<path d="M8.8 13.6H6.4C6.1791 13.6 6 13.7791 6 14V16.4C6 16.6209 6.1791 16.8 6.4 16.8H8.8C9.0209 16.8 9.2 16.6209 9.2 16.4V14C9.2 13.7791 9.0209 13.6 8.8 13.6ZM8.4 16H6.8V14.4H8.4V16Z" fill="black"/>
<path d="M16.4 18.4H18.8C19.0209 18.4 19.2 18.2209 19.2 18V15.6C19.2 15.3791 19.0209 15.2 18.8 15.2H16.4C16.1791 15.2 16 15.3791 16 15.6V18C16 18.2209 16.1791 18.4 16.4 18.4ZM16.8 16H18.4V17.6H16.8V16Z" fill="black"/>
<path d="M16.4 14.4H18.8C19.0209 14.4 19.2 14.2209 19.2 14V11.6C19.2 11.3791 19.0209 11.2 18.8 11.2H16.4C16.1791 11.2 16 11.3791 16 11.6V14C16 14.2209 16.1791 14.4 16.4 14.4ZM16.8 12H18.4V13.6H16.8V12Z" fill="black"/>
<path d="M16.4 22.4H18.8C19.0209 22.4 19.2 22.2209 19.2 22V19.6C19.2 19.3791 19.0209 19.2 18.8 19.2H16.4C16.1791 19.2 16 19.3791 16 19.6V22C16 22.2209 16.1791 22.4 16.4 22.4ZM16.8 20H18.4V21.6H16.8V20Z" fill="black"/>
<path d="M12.4 18.4H14.8C15.0209 18.4 15.2 18.2209 15.2 18V15.6C15.2 15.3791 15.0209 15.2 14.8 15.2H12.4C12.1791 15.2 12 15.3791 12 15.6V18C12 18.2209 12.1791 18.4 12.4 18.4ZM12.8 16H14.4V17.6H12.8V16Z" fill="black"/>
<path d="M12.4 14.4H14.8C15.0209 14.4 15.2 14.2209 15.2 14V11.6C15.2 11.3791 15.0209 11.2 14.8 11.2H12.4C12.1791 11.2 12 11.3791 12 11.6V14C12 14.2209 12.1791 14.4 12.4 14.4ZM12.8 12H14.4V13.6H12.8V12Z" fill="black"/>
<path d="M12.4 22.4H14.8C15.0209 22.4 15.2 22.2209 15.2 22V19.6C15.2 19.3791 15.0209 19.2 14.8 19.2H12.4C12.1791 19.2 12 19.3791 12 19.6V22C12 22.2209 12.1791 22.4 12.4 22.4ZM12.8 20H14.4V21.6H12.8V20Z" fill="black"/>
</g>
<defs>
<clipPath id="clip0_1002_1185">
<rect width="24" height="24" fill="white"/>
</clipPath>
</defs>
</svg>
