<svg width="24" height="24" viewBox="0 0 24 24" fill="none" xmlns="http://www.w3.org/2000/svg">
<path fill-rule="evenodd" clip-rule="evenodd" d="M8 3.50027C7.86193 3.50027 7.75 3.6122 7.75 3.75027V20.5006H11.25V17.0008C11.25 16.5865 11.5858 16.2508 12 16.2508C12.4142 16.2508 12.75 16.5865 12.75 17.0008V20.5006H16.25V3.75027C16.25 3.6122 16.1381 3.50027 16 3.50027H8ZM17.75 20.5006H19.8354V10.2444C19.8354 10.1063 19.7235 9.99441 19.5854 9.99441H17.75V20.5006ZM17.75 8.49441V3.75027C17.75 2.78377 16.9665 2.00027 16 2.00027H8C7.0335 2.00027 6.25 2.78377 6.25 3.75027V8.49441H4.41455C3.44805 8.49441 2.66455 9.27792 2.66455 10.2444V20.5054C2.29057 20.5479 2 20.8653 2 21.2506C2 21.6648 2.33579 22.0006 2.75 22.0006H11.9588C11.9725 22.0014 11.9862 22.0017 12 22.0017C12.0138 22.0017 12.0275 22.0014 12.0412 22.0006H21.25C21.6642 22.0006 22 21.6648 22 21.2506C22 20.8653 21.7094 20.5479 21.3354 20.5054V10.2444C21.3354 9.27792 20.5519 8.49441 19.5854 8.49441H17.75ZM4.16455 20.5006H6.25V9.99441H4.41455C4.27648 9.99441 4.16455 10.1063 4.16455 10.2444V20.5006ZM12 5.25076C12.4142 5.25076 12.75 5.58654 12.75 6.00076V7.00418H13.7534C14.1676 7.00418 14.5034 7.33996 14.5034 7.75418C14.5034 8.16839 14.1676 8.50418 13.7534 8.50418H12.75V9.5076C12.75 9.92181 12.4142 10.2576 12 10.2576C11.5858 10.2576 11.25 9.92181 11.25 9.5076V8.50418H10.2466C9.83237 8.50418 9.49658 8.16839 9.49658 7.75418C9.49658 7.33996 9.83237 7.00418 10.2466 7.00418H11.25V6.00076C11.25 5.58654 11.5858 5.25076 12 5.25076ZM10.0132 12.8753C10.0132 12.4611 10.349 12.1253 10.7632 12.1253H13.2368C13.651 12.1253 13.9868 12.4611 13.9868 12.8753C13.9868 13.2895 13.651 13.6253 13.2368 13.6253H10.7632C10.349 13.6253 10.0132 13.2895 10.0132 12.8753Z" fill="black"/>
</svg>
