<svg width="24" height="24" viewBox="0 0 24 24" fill="none" xmlns="http://www.w3.org/2000/svg">
<path d="M9.94011 14.0602C9.75291 13.873 9.44859 13.873 9.26139 14.0602L6.24027 17.0813V14.4C6.24027 14.1351 6.02523 13.92 5.76027 13.92C5.49531 13.92 5.28027 14.1351 5.28027 14.4V18.24C5.28027 18.3024 5.29275 18.3648 5.31771 18.4234C5.36571 18.5405 5.45979 18.6346 5.57787 18.6836C5.63547 18.7066 5.69787 18.72 5.76027 18.72H9.60027C9.86523 18.72 10.0803 18.505 10.0803 18.24C10.0803 17.9751 9.86523 17.76 9.60027 17.76H6.91899L9.93915 14.7399C10.1273 14.5517 10.1273 14.2484 9.94011 14.0602Z" fill="black"/>
<path d="M18.4233 5.31651C18.3647 5.29347 18.3023 5.28003 18.2399 5.28003H14.3999C14.135 5.28003 13.9199 5.49507 13.9199 5.76003C13.9199 6.02499 14.135 6.24003 14.3999 6.24003H17.0812L14.061 9.26019C13.8738 9.44739 13.8738 9.75171 14.061 9.93891C14.1542 10.033 14.277 10.08 14.3999 10.08C14.5228 10.08 14.6457 10.033 14.7398 9.93987L17.7599 6.91875V9.60003C17.7599 9.86499 17.975 10.08 18.2399 10.08C18.5049 10.08 18.7199 9.86499 18.7199 9.60003V5.76003C18.7199 5.69763 18.7074 5.63523 18.6825 5.57667C18.6345 5.45955 18.5404 5.36547 18.4233 5.31651Z" fill="black"/>
<path d="M19.2004 2.40002H4.80039C3.47751 2.40002 2.40039 3.47618 2.40039 4.80002V19.2C2.40039 20.5239 3.47751 21.6 4.80039 21.6H19.2004C20.5233 21.6 21.6004 20.5239 21.6004 19.2V4.80002C21.6004 3.47618 20.5233 2.40002 19.2004 2.40002ZM20.6404 19.2C20.6404 19.9939 19.9943 20.64 19.2004 20.64H4.80039C4.00647 20.64 3.36039 19.9939 3.36039 19.2V4.80002C3.36039 4.0061 4.00647 3.36002 4.80039 3.36002H19.2004C19.9943 3.36002 20.6404 4.0061 20.6404 4.80002V19.2Z" fill="black"/>
</svg>
