<svg width="24" height="24" viewBox="0 0 24 24" fill="none" xmlns="http://www.w3.org/2000/svg">
<path d="M13.6106 18.1571H10.3896V21.8367H13.6106V18.1571Z" stroke="black" stroke-width="1.3" stroke-miterlimit="10" stroke-linecap="round" stroke-linejoin="round"/>
<path d="M13.6017 5.19891H17.1194V21.8367H6.87988V5.19891H10.4163" stroke="black" stroke-width="1.3" stroke-miterlimit="10" stroke-linecap="round" stroke-linejoin="round"/>
<path d="M21.0003 11.2825H17.1201V21.8367H21.0003V11.2825Z" stroke="black" stroke-width="1.3" stroke-miterlimit="10" stroke-linecap="round" stroke-linejoin="round"/>
<path d="M6.88018 11.2825H3V21.8367H6.88018V11.2825Z" stroke="black" stroke-width="1.3" stroke-miterlimit="10" stroke-linecap="round" stroke-linejoin="round"/>
<path d="M9.82715 18.1571H14.1721" stroke="black" stroke-width="1.3" stroke-miterlimit="10" stroke-linecap="round" stroke-linejoin="round"/>
<path d="M11.0305 13.2139H8.67285V16.2562H11.0305V13.2139Z" stroke="black" stroke-width="1.3" stroke-miterlimit="10" stroke-linecap="round" stroke-linejoin="round"/>
<path d="M15.3264 13.2139H12.9688V16.2562H15.3264V13.2139Z" stroke="black" stroke-width="1.3" stroke-miterlimit="10" stroke-linecap="round" stroke-linejoin="round"/>
<path d="M11.0305 8.26736H8.67285V11.3096H11.0305V8.26736Z" stroke="black" stroke-width="1.3" stroke-miterlimit="10" stroke-linecap="round" stroke-linejoin="round"/>
<path d="M15.3264 8.26736H12.9688V11.3096H15.3264V8.26736Z" stroke="black" stroke-width="1.3" stroke-miterlimit="10" stroke-linecap="round" stroke-linejoin="round"/>
<path d="M19.0602 16.2562H17.1201V21.8367H19.0602V16.2562Z" stroke="black" stroke-width="1.3" stroke-miterlimit="10" stroke-linecap="round" stroke-linejoin="round"/>
<path d="M6.8805 16.2562H4.94043V21.8367H6.8805V16.2562Z" stroke="black" stroke-width="1.3" stroke-miterlimit="10" stroke-linecap="round" stroke-linejoin="round"/>
<path d="M12.4166 2.39749L12.9217 3.22657L13.8661 3.4509C14.2217 3.53539 14.3618 3.96657 14.1237 4.24403L13.4915 4.98079L13.5701 5.94854C13.5997 6.31302 13.233 6.57949 12.8956 6.43874L11.9998 6.06498L11.104 6.43874C10.7666 6.57949 10.3999 6.31302 10.4295 5.94854L10.5081 4.98079L9.87591 4.24403C9.63783 3.96657 9.77786 3.53539 10.1335 3.4509L11.0779 3.22657L11.583 2.39749C11.7732 2.08524 12.2264 2.08524 12.4166 2.39749Z" stroke="black" stroke-width="1.3" stroke-miterlimit="10" stroke-linecap="round" stroke-linejoin="round"/>
</svg>
