<svg width="24" height="24" viewBox="0 0 24 24" fill="none" xmlns="http://www.w3.org/2000/svg">
<path d="M21.3167 4.6035H19.2999V3.44325C19.2999 2.418 18.4659 1.584 17.4407 1.584H6.5597C5.5352 1.584 4.70045 2.418 4.70045 3.44325V4.6035H2.6837C1.6592 4.6035 0.825195 5.4375 0.825195 6.462V20.5568C0.825195 21.582 1.6592 22.416 2.68445 22.416H21.3174C22.3419 22.416 23.1767 21.582 23.1767 20.5568V6.462C23.1752 5.4375 22.3412 4.6035 21.3167 4.6035ZM6.5597 2.934H17.4407C17.7212 2.934 17.9492 3.16275 17.9492 3.44325V21.066H14.6799V18.483C14.6799 17.697 14.0402 17.058 13.2549 17.058H10.7469C9.96095 17.058 9.32195 17.697 9.32195 18.483V21.066H6.0512V3.44325C6.0512 3.16275 6.2792 2.934 6.5597 2.934ZM13.3284 21.066H10.6712V18.483C10.6712 18.4417 10.7049 18.408 10.7462 18.408H13.2542C13.2954 18.408 13.3292 18.4417 13.3292 18.483L13.3284 21.066ZM2.1752 20.5568V6.462C2.1752 6.1815 2.4032 5.95275 2.6837 5.95275H4.70045V21.0653H2.6837C2.4032 21.066 2.1752 20.8372 2.1752 20.5568ZM21.8252 20.5568C21.8252 20.8372 21.5972 21.066 21.3167 21.066H19.2999V5.9535H21.3167C21.5972 5.9535 21.8252 6.18225 21.8252 6.46275V20.5568Z" fill="black"/>
<path d="M7.90156 5.9535H8.62531C8.99806 5.9535 9.30031 5.65125 9.30031 5.2785C9.30031 4.90575 8.99806 4.6035 8.62531 4.6035H7.90156C7.52881 4.6035 7.22656 4.90575 7.22656 5.2785C7.22656 5.65125 7.52881 5.9535 7.90156 5.9535Z" fill="black"/>
<path d="M11.6389 5.9535H12.3626C12.7354 5.9535 13.0376 5.65125 13.0376 5.2785C13.0376 4.90575 12.7354 4.6035 12.3626 4.6035H11.6389C11.2661 4.6035 10.9639 4.90575 10.9639 5.2785C10.9639 5.65125 11.2661 5.9535 11.6389 5.9535Z" fill="black"/>
<path d="M15.3752 5.9535H16.0989C16.4717 5.9535 16.7739 5.65125 16.7739 5.2785C16.7739 4.90575 16.4717 4.6035 16.0989 4.6035H15.3752C15.0024 4.6035 14.7002 4.90575 14.7002 5.2785C14.7002 5.65125 15.0024 5.9535 15.3752 5.9535Z" fill="black"/>
<path d="M7.90156 8.92726H8.62531C8.99806 8.92726 9.30031 8.62501 9.30031 8.25226C9.30031 7.87951 8.99806 7.57726 8.62531 7.57726H7.90156C7.52881 7.57726 7.22656 7.87951 7.22656 8.25226C7.22656 8.62501 7.52881 8.92726 7.90156 8.92726Z" fill="black"/>
<path d="M11.6389 8.92726H12.3626C12.7354 8.92726 13.0376 8.62501 13.0376 8.25226C13.0376 7.87951 12.7354 7.57726 12.3626 7.57726H11.6389C11.2661 7.57726 10.9639 7.87951 10.9639 8.25226C10.9639 8.62501 11.2661 8.92726 11.6389 8.92726Z" fill="black"/>
<path d="M15.3752 8.92726H16.0989C16.4717 8.92726 16.7739 8.62501 16.7739 8.25226C16.7739 7.87951 16.4717 7.57726 16.0989 7.57726H15.3752C15.0024 7.57726 14.7002 7.87951 14.7002 8.25226C14.7002 8.62501 15.0024 8.92726 15.3752 8.92726Z" fill="black"/>
<path d="M7.90156 11.9018H8.62531C8.99806 11.9018 9.30031 11.5995 9.30031 11.2268C9.30031 10.854 8.99806 10.5518 8.62531 10.5518H7.90156C7.52881 10.5518 7.22656 10.854 7.22656 11.2268C7.22656 11.5995 7.52881 11.9018 7.90156 11.9018Z" fill="black"/>
<path d="M11.6389 11.9018H12.3626C12.7354 11.9018 13.0376 11.5995 13.0376 11.2268C13.0376 10.854 12.7354 10.5518 12.3626 10.5518H11.6389C11.2661 10.5518 10.9639 10.854 10.9639 11.2268C10.9639 11.5995 11.2661 11.9018 11.6389 11.9018Z" fill="black"/>
<path d="M15.3752 11.9018H16.0989C16.4717 11.9018 16.7739 11.5995 16.7739 11.2268C16.7739 10.854 16.4717 10.5518 16.0989 10.5518H15.3752C15.0024 10.5518 14.7002 10.854 14.7002 11.2268C14.7002 11.5995 15.0024 11.9018 15.3752 11.9018Z" fill="black"/>
<path d="M7.90156 14.8762H8.62531C8.99806 14.8762 9.30031 14.574 9.30031 14.2012C9.30031 13.8285 8.99806 13.5262 8.62531 13.5262H7.90156C7.52881 13.5262 7.22656 13.8285 7.22656 14.2012C7.22656 14.574 7.52881 14.8762 7.90156 14.8762Z" fill="black"/>
<path d="M11.6389 14.8762H12.3626C12.7354 14.8762 13.0376 14.574 13.0376 14.2012C13.0376 13.8285 12.7354 13.5262 12.3626 13.5262H11.6389C11.2661 13.5262 10.9639 13.8285 10.9639 14.2012C10.9639 14.574 11.2661 14.8762 11.6389 14.8762Z" fill="black"/>
<path d="M15.3752 14.8762H16.0989C16.4717 14.8762 16.7739 14.574 16.7739 14.2012C16.7739 13.8285 16.4717 13.5262 16.0989 13.5262H15.3752C15.0024 13.5262 14.7002 13.8285 14.7002 14.2012C14.7002 14.574 15.0024 14.8762 15.3752 14.8762Z" fill="black"/>
</svg>
