<svg width="24" height="24" viewBox="0 0 24 24" fill="none" xmlns="http://www.w3.org/2000/svg">
<g clip-path="url(#clip0_1002_1286)">
<mask id="mask0_1002_1286" style="mask-type:luminance" maskUnits="userSpaceOnUse" x="0" y="0" width="24" height="24">
<path d="M0 1.90735e-06H24V24H0V1.90735e-06Z" fill="white"/>
</mask>
<g mask="url(#mask0_1002_1286)">
<path d="M10.0186 23.2969H14.0364" stroke="black" stroke-width="1.5" stroke-miterlimit="10" stroke-linecap="round" stroke-linejoin="round"/>
<path d="M19.5318 6.82992C19.5318 7.87204 20.3748 8.71692 21.4149 8.71692C22.4548 8.71692 23.2979 7.87204 23.2979 6.82992V2.00789C23.2979 1.36242 22.8985 0.837044 22.2902 0.715309L1.7328 0.703122C1.12127 0.802732 0.701172 1.32464 0.701172 1.96556V6.82992C0.701172 7.87204 1.54427 8.71692 2.58423 8.71692C3.6242 8.71692 4.46725 7.87204 4.46725 6.82992V3.83845" stroke="black" stroke-width="1.5" stroke-miterlimit="10" stroke-linecap="round" stroke-linejoin="round"/>
<path d="M8.23292 6.82992C8.23292 7.87204 7.38988 8.71692 6.34986 8.71692C5.30989 8.71692 4.4668 7.87204 4.4668 6.82992" stroke="black" stroke-width="1.5" stroke-miterlimit="10" stroke-linecap="round" stroke-linejoin="round"/>
<path d="M11.9995 6.82992C11.9995 7.87204 11.1564 8.71692 10.1164 8.71692C9.07649 8.71692 8.2334 7.87204 8.2334 6.82992L8.23349 3.83845" stroke="black" stroke-width="1.5" stroke-miterlimit="10" stroke-linecap="round" stroke-linejoin="round"/>
<path d="M15.7651 6.82992C15.7651 7.87204 14.9221 8.71692 13.8821 8.71692C12.8421 8.71692 11.999 7.87204 11.999 6.82992V3.83845" stroke="black" stroke-width="1.5" stroke-miterlimit="10" stroke-linecap="round" stroke-linejoin="round"/>
<path d="M19.5317 3.83844V6.82991C19.5317 7.87208 18.6887 8.71691 17.6487 8.71691C16.6087 8.71691 15.7656 7.87208 15.7656 6.82991V3.83844" stroke="black" stroke-width="1.5" stroke-miterlimit="10" stroke-linecap="round" stroke-linejoin="round"/>
<path d="M0.703125 11.1782V23.2969" stroke="black" stroke-width="1.5" stroke-miterlimit="10" stroke-linecap="round" stroke-linejoin="round"/>
<path d="M5.30126 23.2969V18.466C5.30126 17.9624 4.89302 17.5542 4.38949 17.5542H0.776367" stroke="black" stroke-width="1.5" stroke-miterlimit="10" stroke-linecap="round" stroke-linejoin="round"/>
<path d="M0.703125 20.2544H5.30147" stroke="black" stroke-width="1.5" stroke-miterlimit="10" stroke-linecap="round" stroke-linejoin="round"/>
<path d="M23.2969 11.1782V23.2969" stroke="black" stroke-width="1.5" stroke-miterlimit="10" stroke-linecap="round" stroke-linejoin="round"/>
<path d="M18.7715 23.2969V18.466C18.7715 17.9624 19.1797 17.5542 19.6833 17.5542H23.2963" stroke="black" stroke-width="1.5" stroke-miterlimit="10" stroke-linecap="round" stroke-linejoin="round"/>
<path d="M23.296 20.2544H18.7969" stroke="black" stroke-width="1.5" stroke-miterlimit="10" stroke-linecap="round" stroke-linejoin="round"/>
<path d="M13.8754 16.3271H8.74144C7.37297 16.3271 6.26367 15.2178 6.26367 13.8494H17.7353V13.8495C17.7353 15.2179 16.626 16.3272 15.2575 16.3272H13.8754" stroke="black" stroke-width="1.5" stroke-miterlimit="10" stroke-linecap="round" stroke-linejoin="round"/>
<path d="M12.0273 16.3271V23.2803" stroke="black" stroke-width="1.5" stroke-miterlimit="10" stroke-linecap="round" stroke-linejoin="round"/>
<path d="M0.701172 3.83844H23.2979" stroke="black" stroke-width="1.5" stroke-miterlimit="10" stroke-linecap="round" stroke-linejoin="round"/>
</g>
</g>
<defs>
<clipPath id="clip0_1002_1286">
<rect width="24" height="24" fill="white"/>
</clipPath>
</defs>
</svg>
