<svg width="24" height="24" viewBox="0 0 24 24" fill="none" xmlns="http://www.w3.org/2000/svg">
<g clip-path="url(#clip0_1002_1258)">
<path d="M17.0513 12.9342H13.7902C12.8977 12.9342 12.1719 13.66 12.1719 14.5525V17.0535C12.1719 17.9461 12.8977 18.6718 13.7902 18.6718H17.0513C17.9438 18.6718 18.6696 17.9461 18.6696 17.0535V14.5525C18.6696 13.66 17.9438 12.9342 17.0513 12.9342ZM17.4927 17.0535C17.4927 17.2987 17.2916 17.4949 17.0513 17.4949H13.7902C13.545 17.4949 13.3488 17.2938 13.3488 17.0535V14.5525C13.3488 14.3073 13.5499 14.1112 13.7902 14.1112H17.0513C17.2965 14.1112 17.4927 14.3122 17.4927 14.5525V17.0535Z" fill="black"/>
<path d="M24 8.38823C24 8.28525 23.9755 8.18717 23.9215 8.0989L20.3514 1.82182C20.2485 1.64038 20.0523 1.52268 19.8414 1.52268H4.15366C3.94279 1.52268 3.74663 1.63547 3.64365 1.82182L0.0784634 8.0989C0.0294238 8.18717 0 8.28525 0 8.38823C0 9.79567 0.848386 11.002 2.05966 11.5366V21.8888C2.05966 22.2125 2.32448 22.4773 2.64814 22.4773H5.89947C5.90437 22.4773 5.90928 22.4773 5.91418 22.4773H10.4749C10.4798 22.4773 10.4847 22.4773 10.4896 22.4773H21.347C21.6706 22.4773 21.9354 22.2125 21.9354 21.8888V11.6101C21.9354 11.5856 21.9354 11.566 21.9305 11.5464C23.1467 11.0119 24 9.80057 24 8.38823ZM4.49693 2.70454H19.4982L22.2885 7.61341H1.71148L4.49693 2.70454ZM17.0805 8.78545C16.8942 9.84471 15.9673 10.649 14.8541 10.649C13.7409 10.649 12.8141 9.84471 12.6277 8.78545H17.0805ZM11.3772 8.78545C11.1908 9.84471 10.264 10.649 9.1508 10.649C8.0376 10.649 7.11075 9.84471 6.91949 8.78545H11.3772ZM1.21618 8.78545H5.67389C5.48754 9.84471 4.55578 10.649 3.44258 10.649C2.32938 10.6539 1.40253 9.84471 1.21618 8.78545ZM9.88639 21.3004H6.50266V14.9497C6.50266 14.4888 6.87536 14.1112 7.34123 14.1112H9.05272C9.51369 14.1112 9.8913 14.4839 9.8913 14.9497V21.3004H9.88639ZM20.7585 21.3004H11.0633V14.9497C11.0633 13.8414 10.161 12.9342 9.04781 12.9342H7.33633C6.22803 12.9342 5.3208 13.8365 5.3208 14.9497V21.3053H3.23662V11.8259C3.30527 11.8308 3.37393 11.8308 3.44258 11.8308C4.62934 11.8308 5.67879 11.2276 6.29669 10.3106C6.91459 11.2276 7.96404 11.8308 9.1508 11.8308C10.3376 11.8308 11.3821 11.2276 12.0049 10.3106C12.6228 11.2276 13.6723 11.8308 14.8541 11.8308C16.0409 11.8308 17.0854 11.2276 17.7033 10.3106C18.3212 11.2276 19.3707 11.8308 20.5574 11.8308C20.6261 11.8308 20.6898 11.8259 20.7585 11.8259V21.3004ZM20.5574 10.6539C19.4442 10.6539 18.5174 9.84961 18.331 8.79036H22.7887C22.5975 9.84471 21.6706 10.6539 20.5574 10.6539Z" fill="black"/>
</g>
<defs>
<clipPath id="clip0_1002_1258">
<rect width="24" height="24" fill="white"/>
</clipPath>
</defs>
</svg>
