<svg width="24" height="24" viewBox="0 0 24 24" fill="none" xmlns="http://www.w3.org/2000/svg">
<path d="M21.2004 7.65952H19.7433L12.2273 2.48472C12.0906 2.39058 11.9102 2.39058 11.7734 2.48472L4.2575 7.65952H2.80039C2.5793 7.65952 2.40039 7.83862 2.40039 8.05952V10.1943C2.40039 10.4152 2.5793 10.5943 2.80039 10.5943H3.30352V21.1859C3.30352 21.4068 3.48242 21.5859 3.70352 21.5859C3.92461 21.5859 4.10352 21.4068 4.10352 21.1859V14.3972H19.8973V21.1859C19.8973 21.4068 20.0762 21.5859 20.2973 21.5859C20.5184 21.5859 20.6973 21.4068 20.6973 21.1859V10.5943H21.2004C21.4215 10.5943 21.6004 10.4152 21.6004 10.1943V8.05952C21.6004 7.83862 21.4215 7.65952 21.2004 7.65952ZM12.0004 3.29976L18.3324 7.65952H5.66836L12.0004 3.29976ZM19.8973 13.5972H4.10352V12.4958H19.8973V13.5972ZM19.8973 11.6958H4.10352V10.5943H19.8973V11.6958ZM20.8004 9.79429H20.2973H3.70352H3.20039V8.45952H4.38203H19.6187H20.8004V9.79429Z" fill="black"/>
<path d="M12 4.41675C11.2742 4.41675 10.6836 5.00737 10.6836 5.73315C10.6836 6.45894 11.2742 7.04937 12 7.04937C12.7258 7.04937 13.3164 6.45894 13.3164 5.73315C13.3164 5.00737 12.7258 4.41675 12 4.41675ZM12 6.24937C11.7152 6.24937 11.4836 6.01772 11.4836 5.73315C11.4836 5.44839 11.7152 5.21675 12 5.21675C12.2848 5.21675 12.5164 5.44839 12.5164 5.73315C12.5164 6.01772 12.2848 6.24937 12 6.24937Z" fill="black"/>
<path d="M5.79258 21.5859H10.9973C11.2184 21.5859 11.3973 21.4068 11.3973 21.1859V16.4302C11.3973 16.2093 11.2184 16.0302 10.9973 16.0302H9.13672H7.65273H5.79258C5.57148 16.0302 5.39258 16.2093 5.39258 16.4302V21.1859C5.39258 21.4068 5.57148 21.5859 5.79258 21.5859ZM8.05273 16.8302H8.73672V17.7669H8.05273V16.8302ZM6.19258 16.8302H7.25273V18.1669C7.25273 18.3878 7.43164 18.5669 7.65273 18.5669H9.13672C9.35781 18.5669 9.53672 18.3878 9.53672 18.1669V16.8302H10.5973V20.7859H6.19258V16.8302Z" fill="black"/>
<path d="M18.2082 21.5859C18.4293 21.5859 18.6082 21.4068 18.6082 21.1859V16.4302C18.6082 16.2093 18.4293 16.0302 18.2082 16.0302H16.348H14.8641H13.0035C12.7824 16.0302 12.6035 16.2093 12.6035 16.4302V21.1859C12.6035 21.4068 12.7824 21.5859 13.0035 21.5859H18.2082ZM15.2641 16.8302H15.948V17.7669H15.2641V16.8302ZM13.4035 16.8302H14.4641V18.1669C14.4641 18.3878 14.643 18.5669 14.8641 18.5669H16.348C16.5691 18.5669 16.748 18.3878 16.748 18.1669V16.8302H17.8082V20.7859H13.4035V16.8302Z" fill="black"/>
</svg>
