<svg width="24" height="24" viewBox="0 0 24 24" fill="none" xmlns="http://www.w3.org/2000/svg">
<g clip-path="url(#clip0_1002_1389)">
<path d="M22.7668 22.4953H21.4168V10.4813C21.4168 10.2422 21.2996 10.0125 21.1074 9.87188L14.0855 4.78594V0.75C14.0855 0.3375 13.748 0 13.3355 0C13.1809 0 13.0309 0.046875 12.9043 0.135938L2.88711 7.14375C2.68555 7.28437 2.56836 7.51406 2.56836 7.75781V22.4953H1.23242C0.815234 22.4953 0.482422 22.8328 0.482422 23.2453C0.482422 23.6578 0.819922 23.9953 1.23242 23.9953H22.7668C23.184 23.9953 23.5168 23.6578 23.5168 23.2453C23.5168 22.8328 23.1793 22.4953 22.7668 22.4953ZM4.06836 8.15156L12.5809 2.19375V22.4953H4.06836V8.15156ZM14.0855 22.4953V6.64219L19.9168 10.8656V22.5H14.0855V22.4953Z" fill="black"/>
<path d="M16.4203 10.8469H17.5781C17.7563 10.8469 17.8969 10.9875 17.8969 11.1656V12.3234C17.8969 12.5016 17.7563 12.6422 17.5781 12.6422H16.4203C16.2422 12.6422 16.1016 12.5016 16.1016 12.3234V11.1656C16.1016 10.9875 16.2469 10.8469 16.4203 10.8469Z" fill="black"/>
<path d="M16.4203 13.7484H17.5781C17.7563 13.7484 17.8969 13.889 17.8969 14.0672V15.225C17.8969 15.4031 17.7563 15.5437 17.5781 15.5437H16.4203C16.2422 15.5437 16.1016 15.4031 16.1016 15.225V14.0672C16.1016 13.8937 16.2469 13.7484 16.4203 13.7484Z" fill="black"/>
<path d="M16.4203 16.6547H17.5781C17.7563 16.6547 17.8969 16.7953 17.8969 16.9734V18.1312C17.8969 18.3094 17.7563 18.45 17.5781 18.45H16.4203C16.2422 18.45 16.1016 18.3094 16.1016 18.1312V16.9734C16.1016 16.7953 16.2469 16.6547 16.4203 16.6547Z" fill="black"/>
<path d="M16.4203 19.5563H17.5781C17.7563 19.5563 17.8969 19.6969 17.8969 19.875V21.0328C17.8969 21.211 17.7563 21.3516 17.5781 21.3516H16.4203C16.2422 21.3516 16.1016 21.211 16.1016 21.0328V19.875C16.1016 19.7016 16.2469 19.5563 16.4203 19.5563Z" fill="black"/>
<path d="M9.47305 19.5563H10.6309C10.809 19.5563 10.9496 19.6969 10.9496 19.875V21.0328C10.9496 21.211 10.809 21.3516 10.6309 21.3516H9.47305C9.29492 21.3516 9.1543 21.211 9.1543 21.0328V19.875C9.1543 19.7016 9.29961 19.5563 9.47305 19.5563Z" fill="black"/>
<path d="M6.01797 19.5563H7.17578C7.35391 19.5563 7.49453 19.6969 7.49453 19.875V21.0328C7.49453 21.211 7.35391 21.3516 7.17578 21.3516H6.01797C5.83984 21.3516 5.69922 21.211 5.69922 21.0328V19.875C5.69922 19.7016 5.84453 19.5563 6.01797 19.5563Z" fill="black"/>
<path d="M9.47305 16.6547H10.6309C10.809 16.6547 10.9496 16.7953 10.9496 16.9734V18.1312C10.9496 18.3094 10.809 18.45 10.6309 18.45H9.47305C9.29492 18.45 9.1543 18.3094 9.1543 18.1312V16.9734C9.1543 16.7953 9.29961 16.6547 9.47305 16.6547Z" fill="black"/>
<path d="M6.01797 16.6547H7.17578C7.35391 16.6547 7.49453 16.7953 7.49453 16.9734V18.1312C7.49453 18.3094 7.35391 18.45 7.17578 18.45H6.01797C5.83984 18.45 5.69922 18.3094 5.69922 18.1312V16.9734C5.69922 16.7953 5.84453 16.6547 6.01797 16.6547Z" fill="black"/>
<path d="M9.47305 13.7484H10.6309C10.809 13.7484 10.9496 13.889 10.9496 14.0672V15.225C10.9496 15.4031 10.809 15.5437 10.6309 15.5437H9.47305C9.29492 15.5437 9.1543 15.4031 9.1543 15.225V14.0672C9.1543 13.8937 9.29961 13.7484 9.47305 13.7484Z" fill="black"/>
<path d="M6.01797 13.7484H7.17578C7.35391 13.7484 7.49453 13.889 7.49453 14.0672V15.225C7.49453 15.4031 7.35391 15.5437 7.17578 15.5437H6.01797C5.83984 15.5437 5.69922 15.4031 5.69922 15.225V14.0672C5.69922 13.8937 5.84453 13.7484 6.01797 13.7484Z" fill="black"/>
<path d="M9.47305 10.8469H10.6309C10.809 10.8469 10.9496 10.9875 10.9496 11.1656V12.3234C10.9496 12.5016 10.809 12.6422 10.6309 12.6422H9.47305C9.29492 12.6422 9.1543 12.5016 9.1543 12.3234V11.1656C9.1543 10.9875 9.29961 10.8469 9.47305 10.8469Z" fill="black"/>
<path d="M6.01797 10.8469H7.17578C7.35391 10.8469 7.49453 10.9875 7.49453 11.1656V12.3234C7.49453 12.5016 7.35391 12.6422 7.17578 12.6422H6.01797C5.83984 12.6422 5.69922 12.5016 5.69922 12.3234V11.1656C5.69922 10.9875 5.84453 10.8469 6.01797 10.8469Z" fill="black"/>
<path d="M9.47305 7.94061H10.6309C10.809 7.94061 10.9496 8.08124 10.9496 8.25936V9.41718C10.9496 9.5953 10.809 9.73593 10.6309 9.73593H9.47305C9.29492 9.73593 9.1543 9.5953 9.1543 9.41718V8.25936C9.1543 8.08593 9.29961 7.94061 9.47305 7.94061Z" fill="black"/>
<path d="M6.01797 7.94061H7.17578C7.35391 7.94061 7.49453 8.08124 7.49453 8.25936V9.41718C7.49453 9.5953 7.35391 9.73593 7.17578 9.73593H6.01797C5.83984 9.73593 5.69922 9.5953 5.69922 9.41718V8.25936C5.69922 8.08593 5.84453 7.94061 6.01797 7.94061Z" fill="black"/>
<path d="M9.47305 5.03906H10.6309C10.809 5.03906 10.9496 5.17969 10.9496 5.35781V6.51562C10.9496 6.69375 10.809 6.83438 10.6309 6.83438H9.47305C9.29492 6.83438 9.1543 6.69375 9.1543 6.51562V5.35781C9.1543 5.17969 9.29961 5.03906 9.47305 5.03906Z" fill="black"/>
</g>
<defs>
<clipPath id="clip0_1002_1389">
<rect width="24" height="24" fill="white"/>
</clipPath>
</defs>
</svg>
