<svg xmlns="http://www.w3.org/2000/svg" xml:space="preserve" width="512px" height="512px" version="1.1" style="shape-rendering:geometricPrecision; text-rendering:geometricPrecision; image-rendering:optimizeQuality; fill-rule:evenodd; clip-rule:evenodd" viewBox="0 0 512 512" xmlns:xlink="http://www.w3.org/1999/xlink">
 <defs>
  <style type="text/css">
   
    .fil0 {fill:black}
   
  </style>
 </defs>
 <g id="Layer_x0020_1">
  <metadata id="CorelCorpID_0Corel-Layer"></metadata>
  <g id="_220249224">
   <g>
    <g>
     <g id="_220247880">
      <path class="fil0" d="M335 486l-169 0c-3,0 -7,-3 -7,-7l0 -334c0,-4 4,-7 7,-7l169 0c4,0 7,3 7,7l0 334c0,4 -3,7 -7,7zm-162 -14l155 0 0 -320 -155 0 0 320z"></path>
     </g>
     <g id="_220248096">
      <path class="fil0" d="M363 152c0,0 0,0 -1,0l-223 0c-3,0 -6,-2 -7,-5 -1,-2 0,-5 2,-7l112 -112c1,-1 3,-2 5,-2 1,0 3,1 5,2l111 111c2,2 3,4 3,6 0,4 -4,7 -7,7zm-207 -14l190 0 -95 -95 -95 95z"></path>
     </g>
     <g id="_220249032">
      <path class="fil0" d="M494 273c0,0 0,0 0,0l-159 0c-4,0 -7,-3 -7,-7l0 -92c0,-4 3,-7 7,-7l138 0c3,0 6,2 7,5l21 92c0,1 0,1 0,2 0,4 -3,7 -7,7zm-152 -14l143 0 -18 -78 -125 0 0 78zm-176 14l-159 0c-2,0 -4,-1 -5,-3 -2,-1 -2,-4 -2,-6l21 -92c1,-3 4,-5 7,-5l138 0c4,0 7,3 7,7l0 92c0,4 -3,7 -7,7zm-150 -14l143 0 0 -78 -125 0 -18 78z"></path>
     </g>
     <g id="_220249008">
      <path class="fil0" d="M166 486l-137 0c-4,0 -7,-3 -7,-7l0 -213c0,-4 3,-7 7,-7l137 0c4,0 7,3 7,7 0,4 -3,7 -7,7l-130 0 0 199 130 0c4,0 7,3 7,7 0,4 -3,7 -7,7z"></path>
     </g>
     <g>
      <g id="_220249320">
       <path class="fil0" d="M133 436l-70 0c-4,0 -7,-3 -7,-7l0 -113c0,-4 3,-7 7,-7l70 0c4,0 7,3 7,7l0 113c0,4 -3,7 -7,7zm-63 -14l56 0 0 -99 -56 0 0 99z"></path>
      </g>
      <g id="_220249440">
       <path class="fil0" d="M98 436c-4,0 -7,-3 -7,-7l0 -113c0,-4 3,-7 7,-7 4,0 7,3 7,7l0 113c0,4 -3,7 -7,7z"></path>
      </g>
     </g>
     <g id="_220249416">
      <path class="fil0" d="M472 486l-137 0c-4,0 -7,-3 -7,-7 0,-4 3,-7 7,-7l130 0 0 -199 -130 0c-4,0 -7,-3 -7,-7 0,-4 3,-7 7,-7l137 0c4,0 7,3 7,7l0 213c0,4 -3,7 -7,7z"></path>
     </g>
     <g>
      <g id="_220249560">
       <path class="fil0" d="M439 436l-71 0c-4,0 -7,-3 -7,-7l0 -113c0,-4 3,-7 7,-7l71 0c3,0 7,3 7,7l0 113c0,4 -4,7 -7,7zm-64 -14l57 0 0 -99 -57 0 0 99z"></path>
      </g>
      <g id="_220249680">
       <path class="fil0" d="M403 436c-3,0 -7,-3 -7,-7l0 -113c0,-4 4,-7 7,-7 4,0 7,3 7,7l0 113c0,4 -3,7 -7,7z"></path>
      </g>
     </g>
     <g id="_220249752">
      <path class="fil0" d="M301 486l-101 0c-4,0 -7,-3 -7,-7l0 -114c0,-9 8,-16 17,-16l82 0c9,0 16,7 16,16l0 114c0,4 -3,7 -7,7zm-94 -14l87 0 0 -107c0,-1 -1,-2 -2,-2l-82 0c-2,0 -3,1 -3,2l0 107 0 0z"></path>
     </g>
     <g id="_220249656">
      <path class="fil0" d="M299 265l-96 0c-4,0 -7,-3 -7,-7l0 -71c0,-4 3,-7 7,-7l96 0c3,0 7,3 7,7l0 71c0,4 -4,7 -7,7zm-89 -14l82 0 0 -57 -82 0 0 57z"></path>
     </g>
     <g id="_220249896">
      <path class="fil0" d="M251 265c-4,0 -7,-3 -7,-7l0 -71c0,-4 3,-7 7,-7 4,0 7,3 7,7l0 71c0,4 -3,7 -7,7z"></path>
     </g>
     <g id="_220249968">
      <path class="fil0" d="M299 229l-96 0c-4,0 -7,-3 -7,-7 0,-4 3,-7 7,-7l96 0c3,0 7,3 7,7 0,4 -4,7 -7,7z"></path>
     </g>
    </g>
    <g id="_220250040">
     <path class="fil0" d="M505 486l-498 0c-4,0 -7,-3 -7,-7 0,-4 3,-7 7,-7l498 0c4,0 7,3 7,7 0,4 -3,7 -7,7z"></path>
    </g>
   </g>
  </g>
 </g>
</svg>