<svg width="9" height="9" viewBox="0 0 9 9" fill="none" xmlns="http://www.w3.org/2000/svg">
<g clip-path="url(#clip0_217_432)">
<path d="M8.31131 5.19801C8.11866 4.97963 7.84103 4.85436 7.54987 4.85436H1.11708V2.30901C1.11708 2.02427 1.24573 1.74258 1.48713 1.59124C1.85583 1.36 2.30613 1.47376 2.53906 1.78456L2.62675 1.90137L2.46322 2.83954C2.44359 2.95262 2.46695 3.06909 2.52891 3.16558C2.6728 3.38971 2.97683 3.44456 3.18979 3.28476L4.41067 2.36927C4.60263 2.22538 4.65105 1.95723 4.52138 1.75511L4.51698 1.748C4.43673 1.62273 4.30029 1.54418 4.15166 1.53741L3.16778 1.49373L3.10887 1.41519C2.88609 1.11826 2.56953 0.893115 2.20523 0.821C1.26605 0.635126 0.439941 1.35221 0.439941 2.25856C0.439941 2.25856 0.441296 4.19178 0.441973 4.94103C0.441973 5.13605 0.4545 5.32869 0.478538 5.52235C0.512733 5.79625 0.558779 6.16563 0.558779 6.16563C0.643759 6.84446 0.972847 7.44102 1.45091 7.871L1.29618 8.49735C1.25115 8.67882 1.36186 8.86233 1.54333 8.90736C1.57076 8.91413 1.59784 8.91717 1.62493 8.91717C1.77695 8.91717 1.91508 8.81391 1.95334 8.65986L2.04712 8.28033C2.42259 8.47128 2.84614 8.57861 3.2917 8.57861H5.80286C6.21692 8.57861 6.61203 8.48618 6.96753 8.3196L7.05183 8.65986C7.08975 8.81391 7.22823 8.91717 7.38024 8.91717C7.40733 8.91717 7.43441 8.91379 7.46184 8.90736C7.64331 8.86233 7.75402 8.67882 7.70899 8.49735L7.57018 7.93533C8.08819 7.50128 8.44741 6.87899 8.53645 6.16597L8.55744 5.99635C8.59333 5.70721 8.50395 5.41672 8.31097 5.19834L8.31131 5.19801ZM7.88573 5.91205L7.86473 6.08167C7.73506 7.11904 6.84869 7.90147 5.80319 7.90147H3.29204C2.24654 7.90147 1.36051 7.11904 1.23084 6.08167L1.16211 5.53149H7.54987C7.64839 5.53149 7.73879 5.57212 7.80379 5.64593C7.8688 5.72008 7.89791 5.8142 7.88573 5.91205Z" fill="#28385E"/>
</g>
<defs>
<clipPath id="clip0_217_432">
<rect width="8.12563" height="8.12563" fill="white" transform="translate(0.439941 0.791473)"/>
</clipPath>
</defs>
</svg>
