<svg width="10" height="9" viewBox="0 0 10 9" fill="none" xmlns="http://www.w3.org/2000/svg">
<g clip-path="url(#clip0_217_437)">
<path d="M1.64198 6.93405H1.35178V7.22425V7.90139C1.35178 7.92815 1.33022 7.94975 1.30341 7.94975C1.27661 7.94975 1.25504 7.92815 1.25504 7.90139V3.16144C1.25504 2.38828 1.88453 1.7588 2.65768 1.7588H7.39763C8.17079 1.7588 8.80027 2.38828 8.80027 3.16144V7.90139C8.80027 7.92834 8.77886 7.94975 8.7519 7.94975C8.72495 7.94975 8.70354 7.92834 8.70354 7.90139V7.22425V6.93405H8.41334H1.64198ZM8.41334 5.48305H8.70354V5.19284V3.16144C8.70354 2.44117 8.1179 1.85553 7.39763 1.85553H2.65768C1.93742 1.85553 1.35178 2.44117 1.35178 3.16144V5.19284V5.48305H1.64198H2.31912H2.60932V5.19284C2.60932 4.60624 3.08678 4.12877 3.67339 4.12877H4.01195C4.32916 4.12877 4.61407 4.26786 4.81004 4.49L5.02753 4.73652L5.24516 4.49013C5.44128 4.26809 5.72631 4.12877 6.04336 4.12877H6.38193C6.96854 4.12877 7.446 4.60624 7.446 5.19284V5.48305H7.7362H8.41334ZM5.07602 5.19284V5.48305H5.36623H7.05906H7.34927V5.19284C7.34927 4.65913 6.91564 4.22551 6.38193 4.22551H6.04336C5.50965 4.22551 5.07602 4.65913 5.07602 5.19284ZM2.70605 5.19284V5.48305H2.99625H4.68909H4.97929V5.19284C4.97929 4.65913 4.54567 4.22551 4.01195 4.22551H3.67339C3.13967 4.22551 2.70605 4.65913 2.70605 5.19284ZM1.35178 6.54712V6.83732H1.64198H8.41334H8.70354V6.54712V5.86998V5.57978H8.41334H1.64198H1.35178V5.86998V6.54712Z" fill="#28385E" stroke="black" stroke-width="0.580402"/>
</g>
<defs>
<clipPath id="clip0_217_437">
<rect width="8.12563" height="8.12563" fill="white" transform="translate(0.964844 0.791473)"/>
</clipPath>
</defs>
</svg>
