<svg width="11" height="10" viewBox="0 0 11 10" fill="none" xmlns="http://www.w3.org/2000/svg">
<path fill-rule="evenodd" clip-rule="evenodd" d="M3.66593 1.42497C3.16277 1.42325 2.67951 1.62138 2.32239 1.97583C1.96526 2.33027 1.76349 2.81202 1.76143 3.31517C1.76143 4.70617 2.72083 6.01982 3.82908 7.05137C4.39669 7.57569 5.00989 8.04838 5.66143 8.46382C6.31298 8.04817 6.92619 7.57527 7.49378 7.05072C8.60203 6.02047 9.56143 4.70747 9.56143 3.31582C9.55953 2.81255 9.35784 2.33064 9.00069 1.97606C8.64355 1.62147 8.1602 1.42325 7.65693 1.42497C7.37133 1.42441 7.08926 1.48809 6.8316 1.61129C6.57394 1.73449 6.34729 1.91407 6.16843 2.13672L5.66143 2.76657L5.15443 2.13672C4.97556 1.91407 4.74891 1.73449 4.49125 1.61129C4.23359 1.48809 3.95152 1.42441 3.66593 1.42497ZM5.66143 9.22497L5.34293 9.79112H5.34228L5.34098 9.79047L5.33708 9.78852L5.32473 9.78137C5.07258 9.63231 4.82544 9.47492 4.58373 9.30947C4.00586 8.91466 3.45774 8.47799 2.94378 8.00297C1.77703 6.91747 0.461426 5.27557 0.461426 3.31517C0.461426 1.54977 1.89923 0.124973 3.66593 0.124973C4.41993 0.124973 5.11413 0.384973 5.66143 0.819173C6.22886 0.368613 6.93236 0.123877 7.65693 0.124973C9.42363 0.124973 10.8614 1.54977 10.8614 3.31517C10.8614 5.27557 9.54583 6.91682 8.37908 8.00297C7.66178 8.66552 6.87856 9.25293 6.04168 9.75602L5.99813 9.78137L5.98578 9.78787L5.98188 9.79047L5.98058 9.79112L5.66143 9.22497ZM5.66143 9.22497L5.97993 9.79177L5.66143 9.97052L5.34293 9.79112L5.66143 9.22497Z" fill="white"/>
</svg>
