<svg width="15" height="15" viewBox="0 0 15 15" fill="none" xmlns="http://www.w3.org/2000/svg">
<path fill-rule="evenodd" clip-rule="evenodd" d="M4.76791 2.60513C4.07899 2.60277 3.41733 2.87405 2.92836 3.35935C2.43939 3.84465 2.16313 4.50424 2.1603 5.19316C2.1603 7.09768 3.47389 8.89631 4.99129 10.3087C5.76845 11.0266 6.60804 11.6738 7.5001 12.2426C8.3922 11.6735 9.2318 11.026 10.0089 10.3078C11.5263 8.8972 12.8399 7.09946 12.8399 5.19405C12.8373 4.50498 12.5612 3.84515 12.0722 3.35966C11.5832 2.87417 10.9214 2.60277 10.2323 2.60513C9.84126 2.60436 9.45506 2.69155 9.10228 2.86024C8.7495 3.02892 8.43917 3.27479 8.19428 3.57965L7.5001 4.44202L6.80593 3.57965C6.56103 3.27479 6.25071 3.02892 5.89792 2.86024C5.54514 2.69155 5.15894 2.60436 4.76791 2.60513ZM7.5001 13.2847L7.06402 14.0599H7.06313L7.06135 14.059L7.05601 14.0563L7.0391 14.0465C6.69386 13.8424 6.35549 13.627 6.02454 13.4004C5.23334 12.8599 4.48287 12.262 3.77915 11.6116C2.18166 10.1253 0.380371 7.87729 0.380371 5.19316C0.380371 2.77601 2.34898 0.8252 4.76791 0.8252C5.80027 0.8252 6.75075 1.18119 7.5001 1.77568C8.27703 1.15879 9.24025 0.8237 10.2323 0.8252C12.6512 0.8252 14.6198 2.77601 14.6198 5.19316C14.6198 7.87729 12.8185 10.1245 11.2211 11.6116C10.2389 12.5187 9.16658 13.323 8.02073 14.0118L7.9611 14.0465L7.9442 14.0554L7.93886 14.059L7.93708 14.0599L7.5001 13.2847ZM7.5001 13.2847L7.93619 14.0608L7.5001 14.3055L7.06402 14.0599L7.5001 13.2847Z" fill="#7E7E7E"/>
</svg>
