<svg width="59" height="66" viewBox="0 0 59 66" fill="none" xmlns="http://www.w3.org/2000/svg">
<path d="M1.9092 65.6442C0.858248 65.6442 0 64.7922 0 63.7412V29.4517C0 22.7493 2.19396 16.4309 6.34429 11.1794C7.17497 10.1214 8.10079 9.10079 9.09225 8.1501C9.75446 7.51148 10.4648 6.89286 11.1994 6.31527C12.5768 5.2206 14.0769 4.23875 15.6507 3.40281C26.2495 -2.26285 39.6636 -0.735086 48.7576 7.10236C49.3244 7.59302 49.863 8.09253 50.3607 8.58999C55.3296 13.5659 58.3647 20.1479 58.9086 27.1246C58.9276 27.3349 58.9418 27.5657 58.9554 27.7967C58.9851 28.3292 59 28.8833 59 29.4517V63.7412C59 64.7922 58.1479 65.6442 57.097 65.6442H1.9092Z" fill="white"/>
<path opacity="0.36" d="M10.9353 47.6229C14.7307 47.6229 17.8075 44.5461 17.8075 40.7507C17.8075 36.9552 14.7307 33.8784 10.9353 33.8784C7.13981 33.8784 4.06299 36.9552 4.06299 40.7507C4.06299 44.5461 7.13981 47.6229 10.9353 47.6229Z" fill="#7886F3"/>
<path d="M11.0021 53.588C10.9258 53.588 10.8638 53.5261 10.8638 53.4495V38.8584C10.8638 38.7819 10.9257 38.72 11.0021 38.72C11.0785 38.72 11.1403 38.7819 11.1403 38.8584V53.4495C11.1404 53.5261 11.0785 53.588 11.0021 53.588Z" fill="#0A213B"/>
<path d="M10.952 42.7816C10.9134 42.7816 10.8751 42.7654 10.8477 42.7339L8.85576 40.4431C8.8055 40.3856 8.81178 40.2981 8.86935 40.248C8.92704 40.1977 9.01449 40.2036 9.06449 40.2616L11.0564 42.5523C11.1065 42.6099 11.1004 42.6973 11.0428 42.7475C11.0166 42.7704 10.9843 42.7816 10.952 42.7816Z" fill="#0A213B"/>
<path d="M11.0019 45.5207C10.9715 45.5207 10.9409 45.5104 10.9154 45.49C10.8559 45.4419 10.8464 45.355 10.8944 45.2955L12.7368 43.0046C12.7845 42.9451 12.8714 42.9359 12.9313 42.9836C12.9907 43.0316 13.0002 43.1186 12.9523 43.1781L11.1099 45.4689C11.0827 45.5031 11.0426 45.5207 11.0019 45.5207Z" fill="#0A213B"/>
<path opacity="0.36" d="M49.3718 47.6955C53.1672 47.6955 56.244 44.6186 56.244 40.8232C56.244 37.0277 53.1672 33.9509 49.3718 33.9509C45.5763 33.9509 42.4995 37.0277 42.4995 40.8232C42.4995 44.6186 45.5763 47.6955 49.3718 47.6955Z" fill="#7886F3"/>
<path d="M49.4377 53.6603C49.3614 53.6603 49.2993 53.5984 49.2993 53.5218V38.9307C49.2993 38.8542 49.3612 38.7922 49.4377 38.7922C49.5141 38.7922 49.5759 38.8542 49.5759 38.9307V53.5218C49.5759 53.5984 49.5139 53.6603 49.4377 53.6603Z" fill="#0A213B"/>
<path d="M49.3882 42.8538C49.3496 42.8538 49.3113 42.8376 49.2838 42.8061L47.2918 40.5156C47.2415 40.458 47.2478 40.3706 47.3054 40.3204C47.363 40.2703 47.4503 40.2761 47.5005 40.334L49.4925 42.6245C49.5428 42.6821 49.5365 42.7694 49.479 42.8197C49.4527 42.8426 49.4204 42.8538 49.3882 42.8538Z" fill="#0A213B"/>
<path d="M49.4375 45.5926C49.4071 45.5926 49.3764 45.5824 49.3509 45.562C49.2914 45.514 49.282 45.427 49.3299 45.3675L51.1726 43.077C51.2203 43.0172 51.3074 43.0083 51.3671 43.056C51.4265 43.104 51.436 43.191 51.3881 43.2504L49.5454 45.5409C49.5182 45.5749 49.4781 45.5926 49.4375 45.5926Z" fill="#0A213B"/>
<path opacity="0.36" d="M57.2366 51.6696V63.7411H2.04248V51.381C5.01442 50.8069 8.00534 50.3153 11.0025 49.903C12.8866 49.6428 14.7738 49.4177 16.6609 49.2274C17.5045 49.1386 18.3483 49.0593 19.1951 48.9864C19.2776 48.9769 19.3569 48.9705 19.4394 48.9674C20.2292 48.8977 21.0189 48.8342 21.8087 48.7771C21.8912 48.7739 21.9705 48.7677 22.053 48.7613C23.3185 48.6724 24.584 48.5994 25.8496 48.5424C25.932 48.536 26.0114 48.5329 26.0938 48.5329C26.8836 48.4948 27.6765 48.4664 28.4662 48.441C28.5487 48.4378 28.628 48.4346 28.7105 48.4346C29.4305 48.4124 30.1472 48.3965 30.8673 48.3838C31.3239 48.3774 31.7776 48.3711 32.231 48.3711C32.84 48.3616 33.449 48.3616 34.0579 48.3679H34.2863C34.8064 48.3711 35.3234 48.3774 35.8437 48.3901C36.0688 48.3933 36.2971 48.3996 36.5224 48.4028C36.5986 48.406 36.6746 48.4091 36.7508 48.4091C36.7856 48.4123 36.8173 48.4123 36.8523 48.4123C37.715 48.4376 38.5808 48.4725 39.4436 48.5169C39.5197 48.5201 39.5958 48.5233 39.6719 48.5296C40.4172 48.5677 41.1626 48.6184 41.9079 48.6755C41.9841 48.6819 42.0601 48.6882 42.1363 48.6945C42.7262 48.742 43.3193 48.796 43.9093 48.8531C43.9379 48.8595 43.9664 48.8595 43.9982 48.8625C45.8188 49.0497 47.6362 49.297 49.4377 49.6174C49.4663 49.6207 49.4916 49.6239 49.517 49.6301C50.1958 49.7475 50.8713 49.8807 51.5438 50.0203C51.9751 50.1122 52.4065 50.2075 52.8378 50.3058C53.0726 50.3597 53.3041 50.4168 53.5388 50.4739C53.7576 50.5279 53.9797 50.5817 54.1985 50.6389C54.3444 50.677 54.4872 50.7151 54.6331 50.753C55.5239 50.9908 56.412 51.2668 57.2366 51.6696Z" fill="#7886F3"/>
<path d="M18.4189 15.9925V11.9741H20.3025V15.867L18.4189 15.9925Z" fill="#0A213B"/>
<path d="M43.9108 16.1808V59.6877L16.6611 59.7448V16.7459L24.3211 9.83936L31.9184 16.1808H43.9108Z" fill="#FF9D8A"/>
<path d="M26.3779 59.7372H21.5898V54.9664C21.5898 53.6442 22.6617 52.5723 23.9839 52.5723C25.3061 52.5723 26.378 53.6441 26.378 54.9664V59.7372H26.3779Z" fill="#F6E1C4"/>
<path d="M26.0679 59.7374H21.8999V55.1549C21.8999 54.0039 22.8329 53.0708 23.9839 53.0708C25.1348 53.0708 26.0678 54.0038 26.0678 55.1549L26.0679 59.7374Z" fill="#0A213B"/>
<path d="M43.911 16.1807L44.0267 59.6876L32.2324 59.8589V16.2121L43.911 16.1807Z" fill="#7886F3"/>
<path d="M36.7511 20.3333H34.0566V26.6433H36.7511V20.3333Z" fill="#F6E1C4"/>
<path d="M36.5216 20.6467H34.2871V26.2944H36.5216V20.6467Z" fill="#0A213B"/>
<path d="M36.6964 22.4016H34.1553V22.5643H36.6964V22.4016Z" fill="#F6E1C4"/>
<path d="M37.1129 26.4224H33.7393V26.9105H37.1129V26.4224Z" fill="#F6E1C4"/>
<path d="M42.1364 20.3333H39.4419V26.6433H42.1364V20.3333Z" fill="#F6E1C4"/>
<path d="M41.9068 20.6467H39.6724V26.2944H41.9068V20.6467Z" fill="#0A213B"/>
<path d="M42.0817 22.4016H39.5405V22.5643H42.0817V22.4016Z" fill="#F6E1C4"/>
<path d="M42.4981 26.4224H39.1245V26.9105H42.4981V26.4224Z" fill="#F6E1C4"/>
<path d="M36.7511 28.8093H34.0566V35.1195H36.7511V28.8093Z" fill="#F6E1C4"/>
<path d="M36.5216 29.123H34.2871V34.7708H36.5216V29.123Z" fill="#0A213B"/>
<path d="M36.6964 30.8779H34.1553V31.0406H36.6964V30.8779Z" fill="#F6E1C4"/>
<path d="M37.1129 34.8987H33.7393V35.3868H37.1129V34.8987Z" fill="#F6E1C4"/>
<path d="M42.1364 28.8093H39.4419V35.1195H42.1364V28.8093Z" fill="#F6E1C4"/>
<path d="M41.9068 29.123H39.6724V34.7708H41.9068V29.123Z" fill="#0A213B"/>
<path d="M42.0817 30.8779H39.5405V31.0406H42.0817V30.8779Z" fill="#F6E1C4"/>
<path d="M42.4981 34.8987H39.1245V35.3868H42.4981V34.8987Z" fill="#F6E1C4"/>
<path d="M36.7511 37.2856H34.0566V43.5958H36.7511V37.2856Z" fill="#F6E1C4"/>
<path d="M36.5216 37.5994H34.2871V43.2471H36.5216V37.5994Z" fill="#0A213B"/>
<path d="M36.6964 39.354H34.1553V39.5167H36.6964V39.354Z" fill="#F6E1C4"/>
<path d="M37.1129 43.375H33.7393V43.8631H37.1129V43.375Z" fill="#F6E1C4"/>
<path d="M42.1364 37.2856H39.4419V43.5958H42.1364V37.2856Z" fill="#F6E1C4"/>
<path d="M41.9068 37.5994H39.6724V43.2471H41.9068V37.5994Z" fill="#0A213B"/>
<path d="M42.0817 39.354H39.5405V39.5167H42.0817V39.354Z" fill="#F6E1C4"/>
<path d="M42.4981 43.375H39.1245V43.8631H42.4981V43.375Z" fill="#F6E1C4"/>
<path d="M36.7511 45.762H34.0566V52.072H36.7511V45.762Z" fill="#F6E1C4"/>
<path d="M36.5216 46.0757H34.2871V51.7234H36.5216V46.0757Z" fill="#0A213B"/>
<path d="M36.6964 47.8303H34.1553V47.993H36.6964V47.8303Z" fill="#F6E1C4"/>
<path d="M37.1129 51.8513H33.7393V52.3394H37.1129V51.8513Z" fill="#F6E1C4"/>
<path d="M42.1364 45.762H39.4419V52.072H42.1364V45.762Z" fill="#F6E1C4"/>
<path d="M41.9068 46.0757H39.6724V51.7234H41.9068V46.0757Z" fill="#0A213B"/>
<path d="M42.0817 47.8303H39.5405V47.993H42.0817V47.8303Z" fill="#F6E1C4"/>
<path d="M42.4981 51.8513H39.1245V52.3394H42.4981V51.8513Z" fill="#F6E1C4"/>
<path d="M24.3213 9.83936H37.6008L44.9783 17.0598L32.1698 16.997L24.3213 9.83936Z" fill="#0A213B"/>
<path d="M22.0545 20.3333H19.1958V26.6433H22.0545V20.3333Z" fill="#F6E1C4"/>
<path d="M21.8106 20.6467H19.4399V26.2944H21.8106V20.6467Z" fill="#0A213B"/>
<path d="M21.9963 22.4016H19.3003V22.5643H21.9963V22.4016Z" fill="#F6E1C4"/>
<path d="M22.438 26.4224H18.8589V26.9105H22.438V26.4224Z" fill="#F6E1C4"/>
<path d="M28.7093 20.3333H25.8506V26.6433H28.7093V20.3333Z" fill="#F6E1C4"/>
<path d="M28.4654 20.6467H26.0947V26.2944H28.4654V20.6467Z" fill="#0A213B"/>
<path d="M28.6511 22.4016H25.9551V22.5643H28.6511V22.4016Z" fill="#F6E1C4"/>
<path d="M29.0928 26.4224H25.5137V26.9105H29.0928V26.4224Z" fill="#F6E1C4"/>
<path d="M22.0545 28.666H19.1958V34.9761H22.0545V28.666Z" fill="#F6E1C4"/>
<path d="M21.8106 28.9797H19.4399V34.6275H21.8106V28.9797Z" fill="#0A213B"/>
<path d="M21.9963 30.7344H19.3003V30.8971H21.9963V30.7344Z" fill="#F6E1C4"/>
<path d="M22.438 34.7554H18.8589V35.2435H22.438V34.7554Z" fill="#F6E1C4"/>
<path d="M28.7093 28.666H25.8506V34.9761H28.7093V28.666Z" fill="#F6E1C4"/>
<path d="M28.4654 28.9797H26.0947V34.6275H28.4654V28.9797Z" fill="#0A213B"/>
<path d="M28.6511 30.7344H25.9551V30.8971H28.6511V30.7344Z" fill="#F6E1C4"/>
<path d="M29.0928 34.7554H25.5137V35.2435H29.0928V34.7554Z" fill="#F6E1C4"/>
<path d="M22.0545 36.9431H19.1958V43.2533H22.0545V36.9431Z" fill="#F6E1C4"/>
<path d="M21.8106 37.2566H19.4399V42.9043H21.8106V37.2566Z" fill="#0A213B"/>
<path d="M21.9963 39.0115H19.3003V39.1742H21.9963V39.0115Z" fill="#F6E1C4"/>
<path d="M22.438 43.0322H18.8589V43.5203H22.438V43.0322Z" fill="#F6E1C4"/>
<path d="M28.7093 36.9431H25.8506V43.2533H28.7093V36.9431Z" fill="#F6E1C4"/>
<path d="M28.4654 37.2566H26.0947V42.9043H28.4654V37.2566Z" fill="#0A213B"/>
<path d="M28.6511 39.0115H25.9551V39.1742H28.6511V39.0115Z" fill="#F6E1C4"/>
<path d="M29.0928 43.0322H25.5137V43.5203H29.0928V43.0322Z" fill="#F6E1C4"/>
<path d="M22.0545 45.2197H19.1958V51.5299H22.0545V45.2197Z" fill="#F6E1C4"/>
<path d="M21.8106 45.5337H19.4399V51.1814H21.8106V45.5337Z" fill="#0A213B"/>
<path d="M21.9963 47.2883H19.3003V47.451H21.9963V47.2883Z" fill="#F6E1C4"/>
<path d="M22.438 51.3091H18.8589V51.7972H22.438V51.3091Z" fill="#F6E1C4"/>
<path d="M28.7093 45.2197H25.8506V51.5299H28.7093V45.2197Z" fill="#F6E1C4"/>
<path d="M28.4654 45.5337H26.0947V51.1814H28.4654V45.5337Z" fill="#0A213B"/>
<path d="M28.6511 47.2883H25.9551V47.451H28.6511V47.2883Z" fill="#F6E1C4"/>
<path d="M29.0928 51.3091H25.5137V51.7972H29.0928V51.3091Z" fill="#F6E1C4"/>
<path d="M26.0163 16.8556C26.0163 18.0432 25.0536 19.0061 23.8658 19.0061C22.6782 19.0061 21.7153 18.0433 21.7153 16.8556C21.7153 15.6679 22.6781 14.7051 23.8658 14.7051C25.0536 14.7052 26.0163 15.6679 26.0163 16.8556Z" fill="#F6E1C4"/>
<path d="M23.8661 18.7549C24.9151 18.7549 25.7654 17.9046 25.7654 16.8556C25.7654 15.8067 24.9151 14.9563 23.8661 14.9563C22.8172 14.9563 21.9668 15.8067 21.9668 16.8556C21.9668 17.9046 22.8172 18.7549 23.8661 18.7549Z" fill="#0A213B"/>
<path d="M23.9759 14.7993H23.7876V19.0061H23.9759V14.7993Z" fill="#F6E1C4"/>
<path d="M25.9849 16.9969V16.8086H21.7781V16.9969H25.9849Z" fill="#F6E1C4"/>
<path d="M25.0058 63.7409H2.04889C2.04569 63.7347 2.04569 63.7314 2.04248 63.725V53.1092C3.10497 52.9158 4.23092 53.0966 5.11584 53.7215C6.92054 55.0028 7.37723 57.4419 7.68802 59.6303C8.51268 58.59 9.59106 57.6987 10.8724 57.3468C12.1538 56.9915 13.6477 57.2548 14.5675 58.2126C15.6078 59.2972 15.7124 60.9466 15.7601 62.4468C17.9201 60.2678 21.8719 60.2551 24.0446 62.4214C24.4317 62.8022 24.7616 63.2526 25.0058 63.7409Z" fill="#0A213B"/>
<path d="M57.237 55.9197V63.7411H36.5669C37.3851 62.7705 38.5397 62.0918 39.7862 61.8698C41.3276 61.5971 42.98 62.0316 44.1854 63.0307C44.0332 62.4819 44.1505 61.9523 44.4328 61.4733C44.8483 60.7691 45.6254 60.1855 46.3993 59.8494C46.4025 59.8494 46.4057 59.8462 46.4088 59.8462C47.5221 59.3704 48.7844 59.1293 49.9547 59.437C51.1315 59.7447 52.1845 60.6803 52.4001 61.8761C52.5079 60.2586 53.2882 58.7425 54.4427 57.6101C54.5346 57.5214 54.6299 57.4357 54.725 57.3532C55.4577 56.7063 56.314 56.2115 57.237 55.9197Z" fill="#0A213B"/>
<path d="M9.95959 18.8374C9.92087 18.8374 9.88933 18.8064 9.88869 18.7677C9.88792 18.7283 9.9192 18.6961 9.95843 18.6955L15.1143 18.6056C15.1538 18.5997 15.1859 18.636 15.1865 18.6754C15.1873 18.7147 15.156 18.7469 15.1168 18.7475L9.96087 18.8374C9.96036 18.8374 9.9601 18.8374 9.95959 18.8374Z" fill="#7886F3"/>
<path d="M9.81261 19.6333C9.77389 19.6333 9.74235 19.6023 9.74171 19.5635C9.74094 19.5242 9.77223 19.492 9.81146 19.4913L14.9675 19.4019C14.968 19.4019 14.9683 19.4019 14.9688 19.4019C15.0075 19.4019 15.039 19.4329 15.0397 19.4716C15.0404 19.511 15.0092 19.5431 14.9699 19.5438L9.8139 19.6333C9.81338 19.6333 9.81313 19.6333 9.81261 19.6333Z" fill="#7886F3"/>
<path d="M9.713 20.4288C9.67429 20.4288 9.64274 20.3979 9.6421 20.359C9.64133 20.3196 9.67262 20.2875 9.71185 20.2868L14.8678 20.1973C14.9057 20.1934 14.9392 20.2277 14.9399 20.2671C14.9407 20.3064 14.9094 20.3386 14.8702 20.3393L9.71429 20.4288C9.71377 20.4288 9.71352 20.4288 9.713 20.4288Z" fill="#7886F3"/>
<path d="M9.71691 21.2225C9.67819 21.2225 9.64665 21.1915 9.64601 21.1528C9.64524 21.1134 9.67652 21.0813 9.71576 21.0806L14.8718 20.9907C14.9054 20.9898 14.9433 21.0214 14.944 21.0605C14.9447 21.0999 14.9135 21.132 14.8742 21.1327L9.71819 21.2225C9.71768 21.2225 9.71729 21.2225 9.71691 21.2225Z" fill="#7886F3"/>
<path d="M9.75549 22.0155C9.71677 22.0155 9.68523 21.9845 9.68458 21.9458C9.68381 21.9064 9.7151 21.8742 9.75433 21.8736L14.9104 21.7837C14.9109 21.7837 14.9111 21.7837 14.9116 21.7837C14.9504 21.7837 14.9819 21.8147 14.9825 21.8534C14.9833 21.8928 14.952 21.925 14.9128 21.9256L9.75677 22.0155C9.75638 22.0155 9.756 22.0155 9.75549 22.0155Z" fill="#7886F3"/>
<path d="M10.0284 22.8043C9.98971 22.8043 9.95817 22.7733 9.95753 22.7346C9.95676 22.6952 9.98805 22.6631 10.0273 22.6624L15.1833 22.5729C15.2191 22.5701 15.2547 22.6033 15.2555 22.6427C15.2563 22.682 15.225 22.7142 15.1857 22.7149L10.0297 22.8043C10.0292 22.8043 10.0288 22.8043 10.0284 22.8043Z" fill="#7886F3"/>
<path d="M10.3136 23.5934C10.2749 23.5934 10.2433 23.5624 10.2427 23.5237C10.2419 23.4843 10.2732 23.4521 10.3124 23.4515L15.4685 23.3616C15.5064 23.3538 15.5399 23.392 15.5406 23.4314C15.5414 23.4707 15.5101 23.5029 15.4709 23.5036L10.3149 23.5934C10.3145 23.5934 10.3141 23.5934 10.3136 23.5934Z" fill="#7886F3"/>
<path d="M48.8603 38.2787C52.5599 38.2787 55.559 35.2796 55.559 31.58C55.559 27.8804 52.5599 24.8813 48.8603 24.8813C45.1607 24.8813 42.1616 27.8804 42.1616 31.58C42.1616 35.2796 45.1607 38.2787 48.8603 38.2787Z" fill="#FF6A6C"/>
<path d="M46.4086 57.3215H44.4326V63.7411H46.4086V57.3215Z" fill="#F6E1C4"/>
<path d="M46.4073 57.3206V58.8102L44.4326 58.152V57.3206H46.4073Z" fill="#0A213B"/>
<path d="M54.7273 57.6111H35.8438V46.2341H54.5583L54.654 52.1508L54.7273 57.6111Z" fill="#F6E1C4"/>
<path d="M53.6576 56.2218L36.8535 56.3556V47.3103H53.5164L53.5496 51.9417L53.6576 56.2218Z" fill="#FF6A6C"/>
<path d="M51.058 19.8018L50.4356 20.0915C50.1632 20.2183 49.9443 20.4373 49.8174 20.7098L49.5276 21.3321C49.4969 21.398 49.403 21.398 49.3724 21.3321L49.0826 20.7098C48.9558 20.4373 48.7368 20.2185 48.4644 20.0915L47.8419 19.8018C47.776 19.771 47.776 19.6773 47.8419 19.6465L48.4644 19.3567C48.7367 19.2299 48.9557 19.011 49.0826 18.7385L49.3724 18.1162C49.403 18.0501 49.4969 18.0501 49.5276 18.1162L49.8174 18.7385C49.9442 19.011 50.1632 19.2298 50.4356 19.3567L51.058 19.6465C51.124 19.6773 51.124 19.771 51.058 19.8018Z" fill="#F6E1C4"/>
<path d="M11.2087 57.8243L10.5864 58.1141C10.3139 58.2409 10.0951 58.4599 9.96814 58.7322L9.67838 59.3545C9.64761 59.4205 9.55376 59.4205 9.52312 59.3545L9.23336 58.7322C9.10656 58.4598 8.88757 58.2409 8.61525 58.1141L7.99278 57.8243C7.92688 57.7936 7.92688 57.6999 7.99278 57.6691L8.61525 57.3793C8.88757 57.2525 9.10656 57.0335 9.23336 56.7612L9.52312 56.1389C9.55376 56.0728 9.64774 56.0728 9.67838 56.1389L9.96814 56.7612C10.0951 57.0335 10.3139 57.2525 10.5864 57.3793L11.2087 57.6691C11.2747 57.6997 11.2747 57.7936 11.2087 57.8243Z" fill="#F6E1C4"/>
<path d="M8.18284 31.2769L7.5605 31.5666C7.28805 31.6934 7.06919 31.9124 6.94226 32.1847L6.6525 32.8071C6.62173 32.8731 6.52788 32.8731 6.49724 32.8071L6.20748 32.1847C6.08068 31.9123 5.86169 31.6934 5.58924 31.5666L4.96691 31.2769C4.90101 31.2461 4.90101 31.1524 4.96691 31.1216L5.58924 30.8318C5.86157 30.705 6.08055 30.4861 6.20748 30.2136L6.49724 29.5913C6.52788 29.5252 6.62186 29.5252 6.6525 29.5913L6.94226 30.2136C7.06919 30.4861 7.28805 30.7049 7.5605 30.8318L8.18284 31.1216C8.24887 31.1524 8.24887 31.2462 8.18284 31.2769Z" fill="#F6E1C4"/>
<path d="M32.6179 5.92859L31.9956 6.21835C31.7231 6.34515 31.5042 6.56401 31.3773 6.83646L31.0876 7.4588C31.0568 7.5247 30.9629 7.5247 30.9323 7.4588L30.6425 6.83646C30.5157 6.56401 30.2968 6.34515 30.0244 6.21835L29.402 5.92859C29.3361 5.89782 29.3361 5.80397 29.402 5.77333L30.0244 5.48357C30.2968 5.35677 30.5157 5.13779 30.6425 4.86546L30.9323 4.24313C30.9629 4.1771 31.0568 4.1771 31.0876 4.24313L31.3773 4.86546C31.5042 5.13779 31.7231 5.35677 31.9956 5.48357L32.6179 5.77333C32.6838 5.8041 32.6838 5.89795 32.6179 5.92859Z" fill="#F6E1C4"/>
</svg>
