<svg width="51" height="45" viewBox="0 0 51 45" fill="none" xmlns="http://www.w3.org/2000/svg">
<path d="M48.5107 43.4285C47.7216 43.7402 47.0201 43.7012 46.1726 43.7889C43.6161 44.0101 41.8322 44.0996 37.0637 43.6136C31.3976 43.018 25.2192 41.9534 19.6157 43.5161C17.2873 44.1688 14.9103 45.1139 12.3189 44.4806C10.8043 44.102 10.6671 43.1346 12.1922 42.7757C12.7086 42.6588 13.2736 42.6199 13.7412 42.425C14.2186 42.2302 14.5693 41.7918 14.316 41.4508C14.1017 41.1683 13.6048 41.0806 13.1664 41.0514C9.03856 40.7953 4.33832 43.8609 1.63187 42.3179C0.274051 41.5597 0.0895219 39.6909 0.686859 38.2457C0.951793 37.6101 1.69005 37.1933 2.34302 36.8526C3.83353 36.0245 5.68454 35.5276 7.5745 35.4789L42.1978 35.3133C44.527 34.948 46.8748 35.4881 48.3353 36.4044C51.7125 38.4705 51.4286 42.245 48.5107 43.4285Z" fill="#00C6C5"/>
<path d="M46.5819 40.8079C45.481 42.3471 42.9579 42.7952 41.633 41.4313C41.1848 40.9637 40.8828 40.3305 40.308 40.0188C39.743 39.707 38.7882 40.0772 38.9246 40.7104C38.9636 40.8761 39.0806 41.0222 39.1487 41.1878C39.4604 41.9282 38.7104 42.766 37.9115 42.8829C37.1126 42.9998 36.3333 42.6394 35.5831 42.3276C30.1665 40.0967 23.8244 40.2136 18.4858 42.6394C18.4858 42.7089 17.5281 43.1448 17.4213 43.1864C16.9063 43.387 16.3859 43.5747 15.8684 43.7688C15.6161 43.8635 15.3537 43.9597 15.085 43.9388C14.8164 43.9179 14.5394 43.7445 14.4901 43.4796C14.4424 43.2236 14.6102 42.9847 14.7212 42.7491C15.4382 41.228 13.7831 39.9352 12.4165 39.7752C10.4334 39.5431 8.26448 40.8061 5.86983 41.0222C2.6732 41.2846 1.03489 39.4379 1.1352 37.632C1.4664 37.3397 1.89505 37.0864 2.34321 36.8526C3.83372 36.0245 5.68473 35.5276 7.57469 35.4789L42.198 35.3133C43.6885 35.0795 45.2862 35.2062 46.6696 35.6543C47.5269 37.2618 47.6438 39.3368 46.5819 40.8079Z" fill="#018E9A"/>
<path d="M23.3467 8.37671H42.7724V19.5804H23.3467V8.37671Z" fill="#D0DCEE"/>
<path d="M42.7728 8.37646V9.78908C41.0875 10.169 39.2949 10.2762 37.5511 10.3833C34.5018 10.5879 31.2382 10.9776 28.9391 12.9942C27.2541 14.4781 27.4184 16.2812 30.342 16.8716C34.4336 17.6996 38.6714 17.7386 42.7728 16.9982V19.5798H23.3472V8.37646H42.7728Z" fill="#A5C0DD"/>
<path d="M42.7728 8.37646V9.05842C39.3923 9.21433 36.0118 9.36042 32.6313 9.50658C30.7999 9.58447 28.8027 9.74038 27.4875 11.0068C26.5328 11.9226 26.1139 13.345 26.4159 14.6212C26.7179 15.8974 27.7311 16.9885 28.9878 17.3781C30.0789 17.7191 31.4818 17.6704 32.0663 18.6543C32.2417 18.9369 32.3001 19.2584 32.2806 19.5798H23.3472V8.37646H42.7728Z" fill="black"/>
<path d="M44.429 8.8442H17.2778V1.66431C17.3877 1.66575 28.5 1.81178 28.3935 1.8104L28.9586 1.82015C29.0652 1.82154 34.5567 1.89286 34.2095 1.88836C34.3161 1.88974 39.8076 1.96107 39.4605 1.95656L41.3797 1.98575C41.6135 1.9955 41.8278 2.12216 41.935 2.32676C41.9946 2.43477 45.2054 8.25502 45.0037 7.88944C45.2375 8.31809 44.9258 8.8442 44.429 8.8442Z" fill="#F72F43"/>
<path d="M44.429 8.8442H17.2778V1.66431L24.6526 1.7617C23.9024 2.30726 23.4835 3.33991 23.6296 4.28486C23.8245 5.53188 24.8182 6.55478 25.9677 7.10034C27.1075 7.63614 28.4033 7.77254 29.6697 7.83099C36.3672 8.17413 42.7267 6.80741 44.692 7.31469L45.0037 7.88944C45.2375 8.31809 44.9258 8.8442 44.429 8.8442Z" fill="#E2212E"/>
<path d="M45.8706 18.9466V35.8393H22.8306V17.8457H44.7697C45.3737 17.8457 45.8706 18.3426 45.8706 18.9466Z" fill="#095DA4"/>
<path d="M45.8706 33.6668V35.8393H23.2885C23.1131 35.586 22.967 35.3132 22.8306 35.0404V20.9632C23.1804 19.8484 23.7665 18.7827 24.6134 17.8457H32.0368C29.0413 19.7483 27.1659 23.4716 27.5068 27.8021C27.6529 29.7895 28.3641 31.8742 29.991 33.0238C31.6082 34.1637 33.7514 34.1344 35.7194 34.0565C39.1096 33.9299 42.4901 33.7935 45.8706 33.6668Z" fill="#19345D"/>
<path d="M43.4155 22.2688V31.4068C43.4155 31.9232 43.0063 32.3324 42.4997 32.3324C30.0791 32.3221 30.7795 32.3587 30.5852 32.3031C30.176 32.2155 29.874 31.855 29.874 31.4068V22.2688C29.874 21.7622 30.2832 21.353 30.7898 21.353H42.4997C42.9381 21.353 43.2986 21.655 43.396 22.0642C43.4058 22.1324 43.4155 22.2006 43.4155 22.2688Z" fill="black"/>
<path d="M43.4158 22.2687V31.4068C43.4158 31.9231 43.0067 32.3323 42.5001 32.3323C30.0795 32.3221 30.7799 32.3586 30.5856 32.303C30.5309 32.112 30.5665 32.6624 30.5564 22.9604C30.5564 22.4538 30.9655 22.0447 31.4818 22.0447H43.1918C43.26 22.0447 43.3282 22.0544 43.3964 22.0641C43.4061 22.1323 43.4158 22.2005 43.4158 22.2687Z" fill="#19345D"/>
<path d="M36.8539 31.9528L36.5128 21.6573C36.5067 21.4842 36.7698 21.4719 36.7762 21.6491L37.1173 31.9446C37.1234 32.1177 36.8602 32.1299 36.8539 31.9528Z" fill="black"/>
<path d="M43.1694 26.9741H30.5564C30.3823 26.9741 30.3822 26.7107 30.5564 26.7107H43.1694C43.3435 26.7107 43.3437 26.9741 43.1694 26.9741Z" fill="black"/>
<path d="M6.2207 9.54517H25.8414V35.8391H6.2207V9.54517Z" fill="#D0DCEE"/>
<path d="M7.56462 23.3696C8.54737 30.1417 14.2915 35.1317 23.6293 34.3295C24.3405 34.271 25.1393 34.2223 25.8407 34.3392V35.8395H6.22021V9.54565H25.8407V11.4064C23.1519 12.0494 20.317 12.0591 17.56 12.4293C10.8514 13.3135 6.648 16.7463 7.56462 23.3696Z" fill="#A5C0DD"/>
<path d="M20.3852 24.1586V35.8393H10.8672V24.1586C10.8672 23.35 11.5199 22.6973 12.3285 22.6973H18.9239C19.4889 22.6973 19.976 23.009 20.2001 23.4766C20.3268 23.6812 20.3852 23.915 20.3852 24.1586Z" fill="black"/>
<path d="M20.3852 24.1587V35.8394H11.4614V24.7529C11.4614 23.9444 12.1141 23.2916 12.9227 23.2916C19.7982 23.3484 19.6808 23.1553 20.2001 23.4767C20.3267 23.6813 20.3852 23.9151 20.3852 24.1587Z" fill="#19345D"/>
<path d="M26.7857 10.5977H5.27526C4.95376 10.5977 4.79791 10.1886 5.04146 9.9742L15.7967 0.397733C15.9331 0.280834 16.1376 0.280834 16.2643 0.397733C29.4947 12.1729 24.9315 8.11166 25.9187 8.99024L27.0196 9.9742C27.2631 10.1886 27.1072 10.5977 26.7857 10.5977Z" fill="#F72F43"/>
<path d="M4.84565 42.3751H3.00049C2.74754 42.3751 2.54248 42.17 2.54248 41.9171V26.7466C2.54248 26.4936 2.74754 26.2886 3.00049 26.2886H4.84565C5.0986 26.2886 5.30366 26.4936 5.30366 26.7466V41.9171C5.30366 42.17 5.0986 42.3751 4.84565 42.3751Z" fill="#F58210"/>
<path d="M19.2807 42.513H17.4355C17.1826 42.513 16.9775 42.308 16.9775 42.055V26.8845C16.9775 26.6316 17.1826 26.4265 17.4355 26.4265H19.2807C19.5337 26.4265 19.7387 26.6316 19.7387 26.8845V42.055C19.7387 42.308 19.5337 42.513 19.2807 42.513Z" fill="#F58210"/>
<path d="M33.7158 42.6048H31.8706C31.6177 42.6048 31.4126 42.3998 31.4126 42.1468V26.9763C31.4126 26.7234 31.6177 26.5183 31.8706 26.5183H33.7158C33.9687 26.5183 34.1738 26.7234 34.1738 26.9763V42.1468C34.1738 42.3998 33.9687 42.6048 33.7158 42.6048Z" fill="#F58210"/>
<path d="M48.1508 42.6048H46.3057C46.0527 42.6048 45.8477 42.3998 45.8477 42.1468V26.9763C45.8477 26.7234 46.0527 26.5183 46.3057 26.5183H48.1508C48.4038 26.5183 48.6088 26.7234 48.6088 26.9763V42.1468C48.6088 42.3998 48.4038 42.6048 48.1508 42.6048Z" fill="#F58210"/>
<path d="M5.56757 26.7111V41.9477C5.56757 42.1815 5.38247 42.3764 5.14867 42.3764H3.22945C2.99565 42.3764 2.81055 42.1815 2.81055 41.9477V26.7111C2.81055 26.4773 2.99565 26.2922 3.22945 26.2922H5.14867C5.38247 26.2922 5.56757 26.4773 5.56757 26.7111Z" fill="#FFCA28"/>
<path d="M5.56757 41.7724V41.9477C5.56757 42.1815 5.38247 42.3764 5.14867 42.3764H3.22945C2.99565 42.3764 2.81055 42.1815 2.81055 41.9477V26.7111C2.81055 26.4773 2.99565 26.2922 3.22945 26.2922H4.1452C3.80975 30.6177 3.26856 38.1424 5.56757 41.7724Z" fill="#FF9F1C"/>
<path d="M20.0055 26.8474V42.0937C20.0055 42.3275 19.8107 42.5126 19.5769 42.5126H17.6674C17.4336 42.5126 17.2388 42.3275 17.2388 42.0937V26.8474C17.2388 26.6136 17.4336 26.4285 17.6674 26.4285H19.5769C19.8107 26.4285 20.0055 26.6136 20.0055 26.8474Z" fill="#FFCA28"/>
<path d="M20.0055 40.3986V42.0937C20.0055 42.3275 19.8107 42.5126 19.5769 42.5126H17.6674C17.4336 42.5126 17.2388 42.3275 17.2388 42.0937V26.8474C17.2388 26.6136 17.4336 26.4285 17.6674 26.4285H18.6222C18.2815 31.0764 18.0237 35.9539 20.0055 40.3986Z" fill="#FF9F1C"/>
<path d="M34.443 26.9448V42.1814C34.443 42.4152 34.2482 42.6003 34.0144 42.6003H32.1049C31.8711 42.6003 31.6763 42.4152 31.6763 42.1814V26.9448C31.6763 26.711 31.8711 26.5161 32.1049 26.5161H34.0144C34.2482 26.5161 34.443 26.711 34.443 26.9448Z" fill="#FFCA28"/>
<path d="M34.443 40.535V42.1814C34.443 42.4152 34.2482 42.6003 34.0144 42.6003H32.1049C31.8711 42.6003 31.6763 42.4152 31.6763 42.1814V26.9448C31.6763 26.711 31.8711 26.5161 32.1049 26.5161H33.2447C32.4264 31.1923 32.8453 36.0731 34.443 40.535Z" fill="#FF9F1C"/>
<path d="M48.8713 26.9448V42.1814C48.8713 42.4152 48.6862 42.6003 48.4524 42.6003H46.5332C46.2994 42.6003 46.1143 42.4152 46.1143 42.1814V26.9448C46.1143 26.711 46.2994 26.5161 46.5332 26.5161H48.4524C48.6862 26.5161 48.8713 26.711 48.8713 26.9448Z" fill="#FFCA28"/>
<path d="M48.8713 40.6519V42.1814C48.8713 42.4152 48.6862 42.6003 48.4524 42.6003H46.5332C46.2994 42.6003 46.1143 42.4152 46.1143 42.1814V26.9448C46.1143 26.711 46.2994 26.5161 46.5332 26.5161H47.9653C47.3515 27.7631 47.2346 29.2244 47.1469 30.637C46.728 37.1298 47.6887 38.0961 48.8713 40.6519Z" fill="#FF9F1C"/>
<path d="M49.5428 38.9531H0.557266C0.36896 38.9531 0.216309 38.8004 0.216309 38.6121V37.789C0.216309 37.6006 0.36896 37.448 0.557266 37.448H49.5428C49.7311 37.448 49.8837 37.6006 49.8837 37.789V38.6121C49.8837 38.8004 49.7311 38.9531 49.5428 38.9531Z" fill="#FB6822"/>
<path d="M49.5428 31.9487H0.557266C0.36896 31.9487 0.216309 31.796 0.216309 31.6077V30.7846C0.216309 30.5963 0.36896 30.4436 0.557266 30.4436H49.5428C49.7311 30.4436 49.8837 30.5963 49.8837 30.7846V31.6077C49.8837 31.796 49.7311 31.9487 49.5428 31.9487Z" fill="#FB6822"/>
<path d="M18.6219 13.1794V18.2843C18.6219 18.5668 18.3978 18.7908 18.1153 18.7908H13.0105C12.9715 18.7908 12.9228 18.7811 12.8839 18.7811C12.8839 18.7714 12.8839 18.7714 12.8839 18.7714C12.6695 18.7226 12.5039 18.5278 12.5039 18.2843V13.1794C12.5039 12.9067 12.728 12.6729 13.0105 12.6729H18.1153C18.3589 12.6729 18.5635 12.8482 18.6122 13.082C18.6219 13.1113 18.6219 13.1405 18.6219 13.1794Z" fill="black"/>
<path d="M18.6219 13.1794V18.2843C18.6219 18.5668 18.3978 18.7908 18.1153 18.7908H13.0104C12.9714 18.7908 12.9227 18.7811 12.8838 18.7811C12.8838 18.7714 12.8838 18.7714 12.8838 18.7714C12.874 18.7421 12.874 18.7032 12.874 18.6739V13.5691C12.874 13.2963 13.0981 13.0625 13.3806 13.0625H18.4757C18.5244 13.0625 18.5634 13.0723 18.6121 13.082C18.6219 13.1113 18.6219 13.1405 18.6219 13.1794Z" fill="#19345D"/>
<path d="M26.7857 10.5977H5.27526C4.95376 10.5977 4.79791 10.1886 5.04146 9.9742L15.7967 0.397733C15.9331 0.280834 16.1376 0.280834 16.2643 0.397733L17.4333 1.44014C15.8551 2.2877 14.5692 3.70031 13.897 5.36622C13.5463 6.24297 13.3709 7.27563 13.819 8.09399C14.3354 9.0195 15.4557 9.3897 16.4884 9.58449C18.846 10.0326 21.2912 9.95469 23.6195 9.37995C24.3307 9.2046 25.0516 8.98049 25.7823 8.98049C25.831 8.98049 25.87 8.98049 25.9187 8.99024L27.0196 9.9742C27.2631 10.1886 27.1072 10.5977 26.7857 10.5977Z" fill="#E2212E"/>
<path d="M43.5911 8.84419H43.0164C41.8571 6.91522 39.8794 3.63215 38.8857 1.95654H39.4605C40.4835 3.68085 42.3637 6.81782 43.5911 8.84419Z" fill="#19345D"/>
<path d="M38.3791 8.84426H37.8044C36.6256 6.8861 34.609 3.52507 33.6348 1.87866L34.2096 1.88841C35.2227 3.60303 37.1419 6.78864 38.3791 8.84426Z" fill="#19345D"/>
<path d="M33.1672 8.8441H32.6021C31.4039 6.85668 29.3483 3.42752 28.3936 1.8103L28.9586 1.82005C29.962 3.50541 31.9104 6.75929 33.1672 8.8441Z" fill="#19345D"/>
<path d="M27.9649 8.84419H27.3998C26.1821 6.82758 24.0778 3.33015 23.1328 1.74219L23.7076 1.75194C24.7013 3.41785 26.6887 6.73012 27.9649 8.84419Z" fill="#19345D"/>
<path d="M15.0051 18.6036C14.983 18.0367 14.7896 13.0626 14.7896 12.97C14.7896 12.7958 15.0529 12.796 15.0529 12.9695C15.054 13.0631 15.1944 16.6889 15.2685 18.5934C15.2747 18.7681 15.0127 18.7791 15.0051 18.6036Z" fill="black"/>
<path d="M18.3421 16.0583H12.7131C12.5391 16.0583 12.5389 15.7949 12.7131 15.7949H18.3421C18.5162 15.7949 18.5164 16.0583 18.3421 16.0583Z" fill="black"/>
<path d="M22.1231 20.2458C23.0508 21.0446 23.7666 20.5196 23.5445 19.5166C23.331 18.5526 22.6397 17.7068 21.7376 17.3057C20.9156 16.9403 20.645 17.8829 20.8114 18.5355C20.9742 19.174 21.6458 19.8347 22.1231 20.2458Z" fill="#A5C0DD"/>
<path d="M23.3217 16.5602C23.7682 16.9446 24.1127 16.6919 24.0058 16.2092C23.9031 15.7453 23.5704 15.3383 23.1362 15.1452C22.7406 14.9694 22.6104 15.423 22.6905 15.7371C22.7688 16.0443 23.092 16.3623 23.3217 16.5602Z" fill="#A5C0DD"/>
<path d="M34.5148 5.83875C34.6811 5.58933 34.4856 5.32033 34.2531 5.1325C33.2486 4.32081 32.5173 4.65318 32.7178 5.15625C32.8897 5.58732 34.0663 6.51108 34.5148 5.83875Z" fill="#E2212E"/>
<path d="M32.651 4.03098C32.8503 3.7322 32.1321 3.30097 31.8033 3.33001C31.6053 3.34748 31.5381 3.4887 31.5943 3.62963C31.6954 3.88313 32.3873 4.42635 32.651 4.03098Z" fill="#E2212E"/>
<path d="M38.0533 14.4202C38.2094 14.3047 38.2748 14.0328 37.9697 13.6828C37.6757 13.3455 37.275 13.1027 36.8399 12.9982C36.3762 12.8869 36.2738 13.3893 36.5076 13.7004C36.7673 14.0458 37.7075 14.6762 38.0533 14.4202Z" fill="#A5C0DD"/>
<path d="M36.1837 15.372C36.4575 15.1692 35.9782 14.6799 35.4939 14.5637C35.2304 14.5004 35.1721 14.786 35.3051 14.9628C35.4527 15.1592 35.9871 15.5175 36.1837 15.372Z" fill="#A5C0DD"/>
<path d="M40.4062 20.4466C40.9334 20.5005 41.255 20.2467 40.9843 19.7785C40.4334 18.8256 38.9869 18.6759 38.7825 19.3307C38.5955 19.9296 39.9277 20.3977 40.4062 20.4466Z" fill="#19345D"/>
<path d="M37.2042 20.3003C37.6293 20.3437 37.8886 20.1392 37.6704 19.7617C37.2262 18.9935 36.0601 18.8728 35.8953 19.4007C35.7445 19.8835 36.8185 20.2609 37.2042 20.3003Z" fill="#19345D"/>
<path d="M6.16748 25.9479V11.7062C6.16748 11.6367 6.27243 11.6367 6.27243 11.7062V25.9479C6.27243 26.0174 6.16748 26.0174 6.16748 25.9479Z" fill="black"/>
<path d="M26.5051 9.58447L16.648 0.809682C16.594 0.762137 16.67 0.683576 16.7179 0.731487L26.5751 9.50628C26.6286 9.55338 26.554 9.63073 26.5051 9.58447Z" fill="black"/>
<path d="M42.7202 15.5541V9.05823C42.7202 8.98873 42.8252 8.98873 42.8252 9.05823V15.5541C42.8252 15.6236 42.7202 15.6236 42.7202 15.5541Z" fill="black"/>
<path d="M42.9081 30.4961H4.65076C4.58126 30.4961 4.58126 30.3911 4.65076 30.3911H42.9081C42.9776 30.3911 42.9776 30.4961 42.9081 30.4961Z" fill="black"/>
<path d="M33.931 37.5007H5.02674C4.95723 37.5007 4.95723 37.3958 5.02674 37.3958H33.931C33.9603 37.3958 33.9835 37.4189 33.9835 37.4482C33.9835 37.4775 33.9603 37.5007 33.931 37.5007Z" fill="black"/>
</svg>
