<svg width="59" height="59" viewBox="0 0 59 59" fill="none" xmlns="http://www.w3.org/2000/svg">
<g clip-path="url(#clip0_217_1050)">
<path d="M3.28156 59C2.27741 59 1.46339 58.1859 1.46339 57.1817C1.46339 49.4538 1.46339 41.7258 1.46339 33.9978C1.46339 29.7046 1.21725 25.2941 2.25736 21.0889C3.23074 17.154 5.21876 13.5278 7.67844 10.3302C15.5388 0.111565 30.7102 -2.84178 42.112 2.89079C51.1059 7.41374 57.2176 16.8648 57.5419 26.9409C57.5454 27.0038 57.5484 27.0691 57.5492 27.1351C57.5584 27.3999 57.5617 27.6648 57.5617 27.9326V57.1817C57.5617 58.1859 56.7475 59 55.7434 59H3.28156Z" fill="white"/>
<path d="M55.5981 27.9326V46.9981L12.6884 52.8891L3.13623 49.175V27.9326C3.13623 27.8569 3.13623 27.781 3.13934 27.7083C3.13934 27.5296 3.14234 27.3508 3.14845 27.175C3.14845 27.1235 3.15144 27.075 3.15455 27.0235C3.17875 26.2537 3.23637 25.4932 3.33029 24.7416C3.3334 24.6901 3.34238 24.6386 3.34849 24.5901C3.44552 23.8173 3.57885 23.0537 3.74547 22.3052C3.75147 22.2537 3.76368 22.2052 3.77878 22.1537C3.94852 21.3809 4.15755 20.6173 4.40001 19.8718C4.41522 19.8203 4.43031 19.7688 4.44852 19.7203C4.70607 18.9414 4.99704 18.1779 5.3243 17.4354C5.3455 17.3839 5.36671 17.3324 5.39102 17.2839C5.7335 16.5111 6.11227 15.7596 6.52735 15.0293C6.53034 15.0202 6.53645 15.0111 6.54256 15.002C6.56987 14.9505 6.60018 14.899 6.62737 14.8505C6.64558 14.8202 6.66067 14.7929 6.67888 14.7657C7.11827 14.0081 7.59707 13.2748 8.10917 12.5687C8.14547 12.5172 8.18188 12.4657 8.21818 12.4172C8.45764 12.0899 8.70608 11.7687 8.96064 11.4566C9.00915 11.393 9.06066 11.3293 9.11217 11.2686C9.43333 10.8808 9.76371 10.502 10.1062 10.1323C10.1516 10.0808 10.1971 10.0323 10.2486 9.98079C10.6153 9.58381 11.0002 9.19892 11.3972 8.83225C11.4487 8.78074 11.4972 8.73223 11.5487 8.68982C11.9154 8.34734 12.2911 8.01708 12.679 7.69892C12.7396 7.64741 12.8002 7.5959 12.8639 7.54739C13.179 7.28984 13.5002 7.04128 13.8306 6.79882C13.8791 6.76252 13.9306 6.72611 13.9821 6.6897C14.7154 6.15639 15.4761 5.66238 16.264 5.20479C16.3125 5.17747 16.364 5.14717 16.4155 5.11997C17.155 4.69879 17.9185 4.31091 18.7004 3.96544C18.7489 3.94124 18.8004 3.91693 18.8519 3.89572C19.5944 3.56846 20.355 3.27749 21.1338 3.02294C21.1823 3.00473 21.2338 2.98652 21.2853 2.97143C22.0339 2.72897 22.7944 2.51994 23.5702 2.3472C23.6217 2.33199 23.6702 2.323 23.7217 2.3139C24.4701 2.14716 25.2308 2.01383 26.0036 1.91692C26.0521 1.90781 26.1036 1.90171 26.1551 1.89871C26.9067 1.80479 27.6672 1.74418 28.437 1.71987C28.4855 1.71687 28.537 1.71376 28.5885 1.71376C28.8461 1.70466 29.1067 1.70166 29.3673 1.70166C29.8734 1.70166 30.3764 1.71687 30.8734 1.74407C30.9249 1.74706 30.9734 1.75017 31.0249 1.75317C31.7947 1.80168 32.5582 1.8835 33.3068 1.99862C33.3583 2.00473 33.4098 2.01072 33.4583 2.01982C34.2311 2.14105 34.9916 2.29558 35.7402 2.48652C35.7917 2.49562 35.8432 2.50772 35.8917 2.52294C36.6675 2.71987 37.4311 2.95322 38.1766 3.22298C38.2281 3.2382 38.2796 3.25629 38.3281 3.27749C39.107 3.55935 39.8675 3.87752 40.61 4.2291C40.6615 4.25329 40.71 4.27761 40.7615 4.30181C40.9858 4.41094 41.21 4.52306 41.4282 4.63818C41.5252 4.68669 41.6191 4.73509 41.713 4.78971C42.1645 5.02917 42.61 5.28361 43.0464 5.55037C43.0979 5.58068 43.1464 5.61398 43.1979 5.64429C43.9889 6.13519 44.7494 6.6655 45.4798 7.23521C45.5313 7.27462 45.5798 7.31403 45.6313 7.35345C45.7101 7.41705 45.792 7.48078 45.8708 7.54739C45.9344 7.5959 45.995 7.64741 46.0586 7.69892C46.704 8.23222 47.3223 8.79284 47.9132 9.38376L47.9162 9.38676C47.9647 9.43527 48.0162 9.48678 48.0647 9.53829C48.2102 9.68372 48.3496 9.83225 48.489 9.98067C48.5375 10.0322 48.5859 10.0807 48.6315 10.1322C49.2375 10.7867 49.8103 11.4747 50.3497 12.1898C50.4012 12.2595 50.4497 12.3262 50.5012 12.3959C50.5074 12.402 50.5133 12.411 50.5165 12.4171C50.5559 12.4656 50.5922 12.5171 50.6256 12.5686C51.1589 13.302 51.6529 14.0626 52.1044 14.8505C52.1347 14.902 52.165 14.9505 52.1892 15.002C52.3982 15.3657 52.5983 15.7324 52.7831 16.105C52.8346 16.2051 52.8861 16.305 52.9347 16.405C53.0771 16.696 53.2135 16.9868 53.3437 17.2838C53.3679 17.3323 53.3891 17.3838 53.4105 17.4353C53.7377 18.1778 54.0287 18.9414 54.2832 19.7202C54.3044 19.7687 54.3195 19.8202 54.3347 19.8717C54.5772 20.6172 54.7862 21.3778 54.956 22.1536C54.9711 22.2051 54.9833 22.2536 54.9893 22.3051C55.1559 23.0567 55.2892 23.8172 55.3893 24.59C55.3923 24.6415 55.4014 24.69 55.4045 24.7415C55.4984 25.4931 55.556 26.2537 55.5802 27.0234C55.5832 27.0719 55.5862 27.1234 55.5862 27.1749C55.5951 27.4266 55.5981 27.678 55.5981 27.9326Z" fill="white"/>
<g opacity="0.33">
<path d="M6.62737 14.8504C6.64557 14.8201 6.66067 14.7928 6.67888 14.7656V57.1818H6.52734V14.8504H6.62737Z" fill="#8CDBF9"/>
<path d="M8.96094 11.4565C9.00945 11.3929 9.06096 11.3292 9.11247 11.2686V57.1817H8.96094V11.4565Z" fill="#8CDBF9"/>
<path d="M11.3975 8.83213C11.449 8.78062 11.4975 8.7321 11.549 8.6897V57.1817H11.3975V8.83213Z" fill="#8CDBF9"/>
<path d="M13.9821 6.6897V57.1818H13.8306V6.79882C13.8791 6.76241 13.9306 6.72611 13.9821 6.6897Z" fill="#8CDBF9"/>
<path d="M16.4157 5.11987V57.1816H16.2642V5.20469C16.3127 5.17749 16.3642 5.14718 16.4157 5.11987Z" fill="#8CDBF9"/>
<path d="M18.8517 3.89575V57.1819H18.7002V3.96547C18.7487 3.94115 18.8002 3.91696 18.8517 3.89575Z" fill="#8CDBF9"/>
<path d="M21.2853 2.97144V57.1817H21.1338V3.02295C21.1823 3.00485 21.2338 2.98665 21.2853 2.97144Z" fill="#8CDBF9"/>
<path d="M23.7218 2.31396V57.1819H23.5703V2.34727C23.6219 2.33206 23.6703 2.32307 23.7218 2.31396Z" fill="#8CDBF9"/>
<path d="M26.155 1.89868V57.1818H26.0034V1.91689C26.0519 1.90779 26.1034 1.90168 26.155 1.89868Z" fill="#8CDBF9"/>
<path d="M28.5885 1.71387V57.1818H28.437V1.71986C28.4855 1.71686 28.537 1.71387 28.5885 1.71387Z" fill="#8CDBF9"/>
<path d="M31.0251 1.75324V57.1818H30.8735V1.74414C30.9252 1.74714 30.9736 1.75013 31.0251 1.75324Z" fill="#8CDBF9"/>
<path d="M33.4582 2.01998V57.1819H33.3066V1.99878C33.3582 2.00477 33.4097 2.01088 33.4582 2.01998Z" fill="#8CDBF9"/>
<path d="M35.8918 2.52287V57.1818H35.7402V2.48657C35.7917 2.49556 35.8433 2.50778 35.8918 2.52287Z" fill="#8CDBF9"/>
<path d="M38.3283 3.27741V57.1817H38.1768V3.2229C38.2283 3.238 38.2798 3.2562 38.3283 3.27741Z" fill="#8CDBF9"/>
<path d="M40.7614 4.30172V57.1817H40.6099V4.229C40.6614 4.2532 40.7099 4.2774 40.7614 4.30172Z" fill="#8CDBF9"/>
<path d="M43.1979 5.64432V57.1819H43.0464V5.55029C43.0979 5.5806 43.1464 5.61402 43.1979 5.64432Z" fill="#8CDBF9"/>
<path d="M45.6315 7.35322V57.1816H45.48V7.23511C45.5315 7.27452 45.58 7.31381 45.6315 7.35322Z" fill="#8CDBF9"/>
<path d="M47.9161 9.38679C47.9646 9.4353 48.0161 9.48681 48.0646 9.53832V57.1819H47.9131V9.38379L47.9161 9.38679Z" fill="#8CDBF9"/>
<path d="M50.3496 12.1899C50.4011 12.2597 50.4496 12.3263 50.5011 12.396V57.1818H50.3496V12.1899Z" fill="#8CDBF9"/>
<path d="M52.7832 16.1052C52.8347 16.2052 52.8862 16.3052 52.9347 16.4052V57.1819H52.7832V16.1052Z" fill="#8CDBF9"/>
<path d="M45.8705 7.54736C45.9341 7.59588 45.9947 7.64739 46.0583 7.6989H12.6787C12.7393 7.64739 12.7999 7.59588 12.8635 7.54736H45.8705Z" fill="#8CDBF9"/>
<path d="M41.7128 4.78972H18.7002V4.63818H41.428C41.525 4.6867 41.6189 4.7351 41.7128 4.78972Z" fill="#8CDBF9"/>
<path d="M48.4887 9.98071C48.5372 10.0322 48.5856 10.0807 48.6311 10.1322H10.106C10.1515 10.0807 10.1969 10.0322 10.2484 9.98071H48.4887Z" fill="#8CDBF9"/>
<path d="M50.5159 12.4172C50.5554 12.4658 50.5918 12.5173 50.6251 12.5688H8.10889C8.14519 12.5173 8.1816 12.4658 8.2179 12.4172H50.5159Z" fill="#8CDBF9"/>
<path d="M52.1043 14.8506C52.1346 14.9021 52.1649 14.9506 52.1891 15.0021H6.52734V14.8506H52.1043Z" fill="#8CDBF9"/>
<path d="M53.4103 17.4355H5.32422C5.34542 17.384 5.36663 17.3324 5.39082 17.2839H53.3434C53.3678 17.3324 53.3891 17.384 53.4103 17.4355Z" fill="#8CDBF9"/>
<path d="M54.3343 19.8717H4.3999C4.415 19.8202 4.43021 19.7687 4.44842 19.7202H54.2829C54.3041 19.7687 54.3192 19.8202 54.3343 19.8717Z" fill="#8CDBF9"/>
<path d="M54.9888 22.3053H3.74512C3.75122 22.2538 3.76332 22.2053 3.77842 22.1538H54.9553C54.9706 22.2053 54.9827 22.2538 54.9888 22.3053Z" fill="#8CDBF9"/>
<path d="M55.4039 24.7416H3.33008C3.33307 24.6901 3.34218 24.6386 3.34829 24.5901H55.3888C55.3918 24.6416 55.4009 24.6901 55.4039 24.7416Z" fill="#8CDBF9"/>
<path d="M55.586 27.175H3.14844C3.14844 27.1235 3.15143 27.0749 3.15454 27.0234H55.58C55.583 27.072 55.586 27.1235 55.586 27.175Z" fill="#8CDBF9"/>
<path d="M55.5981 29.4568H3.13623V29.6083H55.5981V29.4568Z" fill="#8CDBF9"/>
<path d="M55.5981 31.8933H3.13623V32.0448H55.5981V31.8933Z" fill="#8CDBF9"/>
<path d="M55.5981 34.3267H3.13623V34.4782H55.5981V34.3267Z" fill="#8CDBF9"/>
<path d="M55.5981 36.76H3.13623V36.9115H55.5981V36.76Z" fill="#8CDBF9"/>
<path d="M55.5981 39.1965H3.13623V39.3481H55.5981V39.1965Z" fill="#8CDBF9"/>
<path d="M55.5981 41.6299H3.13623V41.7814H55.5981V41.6299Z" fill="#8CDBF9"/>
<path d="M55.5981 44.0664H3.13623V44.2179H55.5981V44.0664Z" fill="#8CDBF9"/>
<path d="M55.5981 46.4998H3.13623V46.6513H55.5981V46.4998Z" fill="#8CDBF9"/>
<path d="M55.5981 48.9331H3.13623V49.0846H55.5981V48.9331Z" fill="#8CDBF9"/>
<path d="M55.5981 51.3696H3.13623V51.5212H55.5981V51.3696Z" fill="#8CDBF9"/>
<path d="M55.5981 53.803H3.13623V53.9545H55.5981V53.803Z" fill="#8CDBF9"/>
</g>
<path d="M55.5979 46.9299V57.1816H3.13623V49.1633C20.6015 48.4197 38.1326 47.6735 55.5979 46.9299Z" fill="#FFC151"/>
<path d="M52.4879 26.9778L42.4509 48.5695H18.8081V26.7622H42.2855L48.7687 14.385L52.4879 26.9778Z" fill="#8CDBF9"/>
<path d="M52.488 26.9778V48.5695H42.2856V26.7622L48.7688 14.385L52.488 26.9778Z" fill="#FF9D8A"/>
<path d="M42.2854 26.7621H16.0576L25.586 12.4204H49.0634L53.8767 27.3514H52.4878L48.6704 14.6797L42.2854 26.7621Z" fill="#0A213B"/>
<path d="M25.9794 32.2631V36.6508H21.1333V32.2631C21.1333 30.9943 22.1129 29.952 23.3544 29.8483C23.4227 29.8427 23.4881 29.8401 23.5563 29.8401C23.5809 29.8401 23.6027 29.8401 23.6273 29.8429C24.2685 29.8592 24.847 30.1293 25.27 30.5496C25.7065 30.9889 25.9794 31.5946 25.9794 32.2631Z" fill="#0A213B"/>
<path d="M23.6274 29.7056V36.7878H23.3545V29.7114C23.4227 29.7058 23.4882 29.7029 23.5564 29.7029C23.5809 29.7029 23.6028 29.7029 23.6274 29.7056Z" fill="#8CDBF9"/>
<path d="M26.0874 33.1743H21.0249V33.4472H26.0874V33.1743Z" fill="#8CDBF9"/>
<path d="M38.8265 32.2631V36.6508H33.9805V32.2631C33.9805 30.9943 34.9601 29.952 36.2016 29.8483C36.2698 29.8427 36.3353 29.8401 36.4035 29.8401C36.428 29.8401 36.4499 29.8401 36.4745 29.8429C37.1158 29.8592 37.6941 30.1293 38.1172 30.5496C38.5537 30.9889 38.8265 31.5946 38.8265 32.2631Z" fill="#0A213B"/>
<path d="M36.4745 29.6803V36.8133H36.2017V29.6861C36.2699 29.6803 36.3353 29.6775 36.4036 29.6775C36.4281 29.6774 36.45 29.6774 36.4745 29.6803Z" fill="#8CDBF9"/>
<path d="M38.9059 33.1743H33.9014V33.4472H38.9059V33.1743Z" fill="#8CDBF9"/>
<path d="M50.0782 30.6913V35.079H46.4229V30.6913C46.4229 29.4225 47.1617 28.3802 48.0982 28.2765C48.1498 28.2711 48.1991 28.2683 48.2506 28.2683C48.2691 28.2683 48.2856 28.2683 48.3041 28.2711C48.7877 28.2874 49.2241 28.5575 49.5431 28.9778C49.8724 29.4171 50.0782 30.0228 50.0782 30.6913Z" fill="#0A213B"/>
<path d="M48.5769 28.252V35.0979H48.3711V28.2576C48.4225 28.252 48.4719 28.2493 48.5234 28.2493C48.5419 28.2494 48.5584 28.2494 48.5769 28.252Z" fill="#FF9D8A"/>
<path d="M50.1462 31.6028H46.355V31.8757H50.1462V31.6028Z" fill="#FF9D8A"/>
<path d="M50.0782 40.9072V45.2948H46.4229V40.9072C46.4229 39.6383 47.1617 38.596 48.0982 38.4923C48.1498 38.4869 48.1991 38.4841 48.2506 38.4841C48.2691 38.4841 48.2856 38.4841 48.3041 38.4869C48.7877 38.5033 49.2241 38.7734 49.5431 39.1936C49.8724 39.6329 50.0782 40.2387 50.0782 40.9072Z" fill="#0A213B"/>
<path d="M48.5769 38.4334V45.3485H48.3711V38.439C48.4225 38.4334 48.4719 38.4307 48.5234 38.4307C48.5419 38.4307 48.5584 38.4307 48.5769 38.4334Z" fill="#FF9D8A"/>
<path d="M50.188 41.8186H46.313V42.0915H50.188V41.8186Z" fill="#FF9D8A"/>
<path d="M33.2972 41.7806V48.5695H25.8452V41.7806C25.8452 39.7232 27.5152 38.0532 29.5726 38.0532C30.6013 38.0532 31.5317 38.4707 32.2057 39.1447C32.8797 39.8186 33.2972 40.7519 33.2972 41.7806Z" fill="#0A213B"/>
<path d="M32.7914 44.0529C32.7914 44.3319 32.5653 44.5581 32.2863 44.5581C32.0073 44.5581 31.7812 44.3319 31.7812 44.0529C31.7812 43.7739 32.0075 43.5479 32.2863 43.5479C32.5652 43.5479 32.7914 43.7739 32.7914 44.0529Z" fill="white"/>
<path d="M48.8289 48.8006H35.2026C35.3829 47.6734 36.3595 46.8124 37.5432 46.8124C38.2614 46.8124 38.9044 47.1326 39.3376 47.633C39.7923 46.8636 40.6289 46.3444 41.5866 46.3444C42.5067 46.3444 43.3165 46.8205 43.7792 47.5442C43.8949 47.3398 44.0348 47.1541 44.1961 46.9873C44.6857 46.4815 45.3717 46.1694 46.1304 46.1694C46.8783 46.1694 47.5562 46.4734 48.0459 46.9685C48.5168 47.4393 48.8101 48.0877 48.8289 48.8006Z" fill="white"/>
<path d="M22.2025 40.6836H9.78516V48.8879H22.2025V40.6836Z" fill="#F6E1C4"/>
<path d="M11.3946 41.0601C11.3382 41.0601 11.2925 41.0143 11.2925 40.958V37.6145C11.2925 37.5582 11.3382 37.5125 11.3946 37.5125C11.4509 37.5125 11.4967 37.5582 11.4967 37.6145V40.958C11.4967 41.0143 11.4509 41.0601 11.3946 41.0601Z" fill="#F6E1C4"/>
<path d="M20.5796 41.0601C20.5233 41.0601 20.4775 41.0143 20.4775 40.958V37.6145C20.4775 37.5582 20.5233 37.5125 20.5796 37.5125C20.636 37.5125 20.6817 37.5582 20.6817 37.6145V40.958C20.6817 41.0143 20.636 41.0601 20.5796 41.0601Z" fill="#F6E1C4"/>
<path d="M21.3153 41.4597H10.6719V48.3019H21.3153V41.4597Z" fill="#FF9D8A"/>
<path d="M24.1732 37.3823H4.26611V38.3678H24.1732V37.3823Z" fill="#F6E1C4"/>
<path d="M8.11195 35.9055H6.83008V57.1818H8.11195V35.9055Z" fill="#F6E1C4"/>
<path d="M8.1958 37.3823V38.3679H8.38052L8.76656 37.3823H8.1958Z" fill="#0A213B"/>
<path d="M6.27832 37.3823L6.66424 38.3679H6.84908L6.84493 37.3823H6.27832Z" fill="#0A213B"/>
<path d="M55.5979 53.318V57.1817H29.7095C30.2126 55.0301 32.1459 53.4331 34.4581 53.4331C35.9369 53.4331 37.2611 54.0937 38.152 55.124C39.0884 53.5391 40.8126 52.4694 42.7825 52.4694C44.6765 52.4694 46.3462 53.4512 47.2977 54.9422C47.537 54.521 47.825 54.1391 48.1553 53.7937C49.1644 52.7542 50.5765 52.1118 52.1402 52.1118C53.4464 52.1119 54.6464 52.5604 55.5979 53.318Z" fill="#0A213B"/>
<path d="M25.6003 7.21074C25.5142 7.13734 25.3938 7.1174 25.2895 7.16027L21.4347 8.724C21.2796 8.78692 21.2051 8.96369 21.2679 9.11879C21.3312 9.27436 21.5085 9.34834 21.6627 9.28565L24.4078 8.17203L15.8516 18.4796L13.4637 15.2958C13.409 15.2228 13.3241 15.1784 13.2329 15.1748C13.1412 15.1698 13.0533 15.2093 12.9932 15.2781L6.88396 22.2601C6.77391 22.3862 6.78658 22.5775 6.91265 22.6878C6.97004 22.7381 7.04102 22.7628 7.11212 22.7628C7.19647 22.7628 7.28025 22.7277 7.34029 22.6594L13.2033 15.9586L15.5971 19.1506C15.6527 19.2247 15.7391 19.2694 15.832 19.2716C15.9243 19.2789 16.0134 19.2335 16.0726 19.1623L24.8152 8.63008L24.2357 11.118C24.1976 11.2811 24.2991 11.444 24.4622 11.482C24.4852 11.4873 24.5084 11.4899 24.5311 11.4899C24.6687 11.4899 24.7932 11.3955 24.8258 11.2557L25.6985 7.51001C25.7243 7.39973 25.6864 7.28426 25.6003 7.21074Z" fill="#FF9D8A"/>
<path d="M46.2003 10.1159H28.4976C28.7845 8.99718 29.7226 8.03958 30.8639 7.86558C32.1212 7.6721 33.4915 8.55549 33.7139 9.81281C34.0814 8.35233 35.1324 6.90476 36.6252 6.72418C37.5085 6.62105 38.4079 6.99176 39.0528 7.60112C39.6976 8.21036 40.1071 9.03901 40.3327 9.89659C40.8034 8.62958 42.18 7.76556 43.5245 7.8945C44.7528 8.01066 45.849 8.9391 46.2003 10.1159Z" fill="#F6E1C4"/>
<path d="M14.8911 29.6447H3.13623V27.9325C3.13623 27.8568 3.13623 27.781 3.13923 27.7083C3.66343 26.9416 4.40899 26.3628 5.31508 26.2507C6.19997 26.1477 7.09695 26.5205 7.74238 27.1295C8.38781 27.7385 8.797 28.5659 9.02425 29.4234C9.49394 28.1568 10.8697 27.2931 12.2152 27.4234C13.4424 27.5385 14.5395 28.4658 14.8911 29.6447Z" fill="#F6E1C4"/>
</g>
<defs>
<clipPath id="clip0_217_1050">
<rect width="59" height="59" fill="white"/>
</clipPath>
</defs>
</svg>
