<svg width="16" height="18" viewBox="0 0 16 18" fill="none" xmlns="http://www.w3.org/2000/svg">
<path d="M13 12.4C12.3667 12.4 11.8 12.65 11.3667 13.0417L5.425 9.58335C5.46667 9.39169 5.5 9.20002 5.5 9.00002C5.5 8.80002 5.46667 8.60835 5.425 8.41669L11.3 4.99169C11.75 5.40835 12.3417 5.66669 13 5.66669C14.3833 5.66669 15.5 4.55002 15.5 3.16669C15.5 1.78335 14.3833 0.666687 13 0.666687C11.6167 0.666687 10.5 1.78335 10.5 3.16669C10.5 3.36669 10.5333 3.55835 10.575 3.75002L4.7 7.17502C4.25 6.75835 3.65833 6.50002 3 6.50002C1.61667 6.50002 0.5 7.61669 0.5 9.00002C0.5 10.3834 1.61667 11.5 3 11.5C3.65833 11.5 4.25 11.2417 4.7 10.825L10.6333 14.2917C10.5917 14.4667 10.5667 14.65 10.5667 14.8334C10.5667 16.175 11.6583 17.2667 13 17.2667C14.3417 17.2667 15.4333 16.175 15.4333 14.8334C15.4333 13.4917 14.3417 12.4 13 12.4ZM13 2.33335C13.4583 2.33335 13.8333 2.70835 13.8333 3.16669C13.8333 3.62502 13.4583 4.00002 13 4.00002C12.5417 4.00002 12.1667 3.62502 12.1667 3.16669C12.1667 2.70835 12.5417 2.33335 13 2.33335ZM3 9.83335C2.54167 9.83335 2.16667 9.45835 2.16667 9.00002C2.16667 8.54169 2.54167 8.16669 3 8.16669C3.45833 8.16669 3.83333 8.54169 3.83333 9.00002C3.83333 9.45835 3.45833 9.83335 3 9.83335ZM13 15.6834C12.5417 15.6834 12.1667 15.3084 12.1667 14.85C12.1667 14.3917 12.5417 14.0167 13 14.0167C13.4583 14.0167 13.8333 14.3917 13.8333 14.85C13.8333 15.3084 13.4583 15.6834 13 15.6834Z" fill="#7E7E7E"/>
</svg>
