<svg width="29" height="29" viewBox="0 0 29 29" fill="none" xmlns="http://www.w3.org/2000/svg">
<g clip-path="url(#clip0_221_4645)">
<path d="M12.9838 16.0162C13.2387 16.2711 13.3819 16.6169 13.3819 16.9774C13.3819 17.3379 13.2387 17.6837 12.9838 17.9386L4.64119 26.2812H11.2115C11.572 26.2812 11.9178 26.4245 12.1727 26.6794C12.4277 26.9343 12.5709 27.2801 12.5709 27.6406C12.5709 28.0012 12.4277 28.3469 12.1727 28.6018C11.9178 28.8568 11.572 29 11.2115 29H1.35938C0.998846 29 0.653084 28.8568 0.398152 28.6018C0.143219 28.3469 0 28.0012 0 27.6406L0 17.7883C0 17.4278 0.143219 17.082 0.398152 16.8271C0.653084 16.5722 0.998846 16.429 1.35938 16.429C1.7199 16.429 2.06567 16.5722 2.3206 16.8271C2.57553 17.082 2.71875 17.4278 2.71875 17.7883V24.3586L11.0613 16.016C11.3163 15.7611 11.6621 15.6179 12.0226 15.618C12.3831 15.618 12.7289 15.7613 12.9838 16.0162ZM28.6019 0.398127C28.4756 0.271899 28.3258 0.171771 28.1608 0.10346C27.9959 0.0351493 27.8191 -6.50384e-06 27.6406 9.02495e-10L17.7883 9.02495e-10C17.4277 9.02496e-10 17.082 0.143219 16.827 0.398152C16.5721 0.653084 16.4289 0.998846 16.4289 1.35938C16.4289 1.7199 16.5721 2.06567 16.827 2.3206C17.082 2.57553 17.4277 2.71875 17.7883 2.71875H24.3586L16.0162 11.0613C15.7638 11.3168 15.6228 11.6617 15.6239 12.0208C15.625 12.3799 15.7681 12.724 16.022 12.9779C16.2759 13.2319 16.62 13.375 16.9791 13.3761C17.3382 13.3772 17.6831 13.2362 17.9386 12.9838L26.2812 4.64119V11.2115C26.2812 11.572 26.4245 11.9178 26.6794 12.1727C26.9343 12.4277 27.2801 12.5709 27.6406 12.5709C28.0012 12.5709 28.3469 12.4277 28.6018 12.1727C28.8568 11.9178 29 11.572 29 11.2115V1.35938C29 1.18086 28.9649 1.00409 28.8965 0.839154C28.8282 0.674223 28.7281 0.524362 28.6019 0.398127Z" fill="#818AA1"/>
</g>
<defs>
<clipPath id="clip0_221_4645">
<rect width="29" height="29" fill="white"/>
</clipPath>
</defs>
</svg>
