<svg width="29" height="29" viewBox="0 0 29 29" fill="none" xmlns="http://www.w3.org/2000/svg">
<g clip-path="url(#clip0_221_4633)">
<path d="M28.0925 15.7267C27.405 14.9473 26.4142 14.5003 25.375 14.5003H2.41667V5.416C2.41667 4.3998 2.87583 3.39446 3.73737 2.85434C5.05325 2.02905 6.66033 2.43505 7.49167 3.5443L7.80462 3.96117L7.221 7.30946C7.15092 7.71305 7.23429 8.12871 7.45542 8.47309C7.96896 9.273 9.05404 9.46875 9.81408 8.89842L14.1713 5.63109C14.8565 5.11755 15.0292 4.16055 14.5665 3.43917L14.5507 3.4138C14.2644 2.96671 13.7774 2.68638 13.247 2.66221L9.73554 2.50634L9.52529 2.226C8.73021 1.1663 7.60042 0.362753 6.30025 0.105378C2.94833 -0.557997 0 2.00125 0 5.23596C0 5.23596 0.00483333 12.1355 0.00725 14.8096C0.00725 15.5056 0.0519583 16.1931 0.13775 16.8843C0.259792 17.8618 0.424125 19.1801 0.424125 19.1801C0.727417 21.6028 1.90192 23.7319 3.60808 25.2665L3.05587 27.5019C2.89517 28.1496 3.29029 28.8045 3.93796 28.9652C4.03583 28.9894 4.1325 29.0003 4.22917 29.0003C4.77171 29.0003 5.26471 28.6317 5.40125 28.0819L5.73596 26.7274C7.076 27.4089 8.58762 27.7919 10.1778 27.7919H19.14C20.6178 27.7919 22.0279 27.462 23.2967 26.8675L23.5975 28.0819C23.7329 28.6317 24.2271 29.0003 24.7696 29.0003C24.8663 29.0003 24.963 28.9882 25.0608 28.9652C25.7085 28.8045 26.1036 28.1496 25.9429 27.5019L25.4475 25.4961C27.2962 23.947 28.5783 21.7261 28.8961 19.1813L28.971 18.576C29.0991 17.544 28.7801 16.5073 28.0913 15.7279L28.0925 15.7267ZM26.5737 18.2751L26.4987 18.8805C26.036 22.5828 22.8725 25.3753 19.1412 25.3753H10.179C6.44767 25.3753 3.28546 22.5828 2.82267 18.8805L2.57737 16.9169H25.375C25.7266 16.9169 26.0492 17.0619 26.2812 17.3253C26.5132 17.59 26.6172 17.9259 26.5737 18.2751Z" fill="#818AA1"/>
</g>
<defs>
<clipPath id="clip0_221_4633">
<rect width="29" height="29" fill="white"/>
</clipPath>
</defs>
</svg>
