<svg width="29" height="29" viewBox="0 0 29 29" fill="none" xmlns="http://www.w3.org/2000/svg">
<g clip-path="url(#clip0_221_4640)">
<path d="M2.41667 22.4583H1.91667V22.9583V25.375C1.91667 25.7667 1.59952 26.0833 1.20833 26.0833C0.81715 26.0833 0.5 25.7667 0.5 25.375V8.45834C0.5 5.40311 2.98643 2.91667 6.04167 2.91667H22.9583C26.0136 2.91667 28.5 5.40311 28.5 8.45834V25.375C28.5 25.7671 28.1837 26.0833 27.7917 26.0833C27.3996 26.0833 27.0833 25.7671 27.0833 25.375V22.9583V22.4583H26.5833H2.41667ZM26.5833 16.2083H27.0833V15.7083V8.45834C27.0833 6.18361 25.2331 4.33334 22.9583 4.33334H6.04167C3.76694 4.33334 1.91667 6.18361 1.91667 8.45834V15.7083V16.2083H2.41667H4.83333H5.33333V15.7083C5.33333 13.3189 7.27723 11.375 9.66667 11.375H10.875C12.1678 11.375 13.3287 11.9428 14.1251 12.8455L14.4998 13.2702L14.8747 12.8457C15.6714 11.9438 16.8325 11.375 18.125 11.375H19.3333C21.7228 11.375 23.6667 13.3189 23.6667 15.7083V16.2083H24.1667H26.5833ZM15.2083 15.7083V16.2083H15.7083H21.75H22.25V15.7083C22.25 14.0994 20.9423 12.7917 19.3333 12.7917H18.125C16.5161 12.7917 15.2083 14.0994 15.2083 15.7083ZM6.75 15.7083V16.2083H7.25H13.2917H13.7917V15.7083C13.7917 14.0994 12.4839 12.7917 10.875 12.7917H9.66667C8.05773 12.7917 6.75 14.0994 6.75 15.7083ZM1.91667 20.5417V21.0417H2.41667H26.5833H27.0833V20.5417V18.125V17.625H26.5833H2.41667H1.91667V18.125V20.5417Z" fill="#818AA1" stroke="#818AA1"/>
</g>
<defs>
<clipPath id="clip0_221_4640">
<rect width="29" height="29" fill="white"/>
</clipPath>
</defs>
</svg>
