<svg width="28" height="29" viewBox="0 0 28 29" fill="none" xmlns="http://www.w3.org/2000/svg">
<g clip-path="url(#clip0_148_20053)">
<path d="M22.4346 18.3033L19.4712 17.965C18.7596 17.8833 18.0596 18.1283 17.5579 18.63L15.4112 20.7767C12.1096 19.0967 9.40289 16.4017 7.72289 13.0883L9.88123 10.93C10.3829 10.4283 10.6279 9.72834 10.5462 9.01667L10.2079 6.07667C10.0679 4.89834 9.07623 4.01167 7.88623 4.01167H5.86789C4.54956 4.01167 3.45289 5.10834 3.53456 6.42667C4.15289 16.39 12.1212 24.3467 22.0729 24.965C23.3912 25.0467 24.4879 23.95 24.4879 22.6317V20.6133C24.4996 19.435 23.6129 18.4433 22.4346 18.3033Z" fill="white"/>
</g>
<defs>
<clipPath id="clip0_148_20053">
<rect width="28" height="28" fill="white" transform="translate(0 0.5)"/>
</clipPath>
</defs>
</svg>
