<svg width="18" height="16" viewBox="0 0 18 16" fill="none" xmlns="http://www.w3.org/2000/svg">
<path d="M9.00033 15.5L7.79199 14.4167C6.38921 13.1528 5.22949 12.0625 4.31283 11.1459C3.39616 10.2292 2.66699 9.40629 2.12533 8.67712C1.58366 7.94796 1.20519 7.27782 0.989909 6.66671C0.774631 6.0556 0.666992 5.4306 0.666992 4.79171C0.666992 3.48615 1.10449 2.39587 1.97949 1.52087C2.85449 0.645874 3.94477 0.208374 5.25033 0.208374C5.97255 0.208374 6.66005 0.361152 7.31283 0.666707C7.9656 0.972263 8.5281 1.40282 9.00033 1.95837C9.47255 1.40282 10.035 0.972263 10.6878 0.666707C11.3406 0.361152 12.0281 0.208374 12.7503 0.208374C14.0559 0.208374 15.1462 0.645874 16.0212 1.52087C16.8962 2.39587 17.3337 3.48615 17.3337 4.79171C17.3337 5.4306 17.226 6.0556 17.0107 6.66671C16.7955 7.27782 16.417 7.94796 15.8753 8.67712C15.3337 9.40629 14.6045 10.2292 13.6878 11.1459C12.7712 12.0625 11.6114 13.1528 10.2087 14.4167L9.00033 15.5ZM9.00033 13.25C10.3337 12.0556 11.4309 11.0313 12.292 10.1771C13.1531 9.32296 13.8337 8.5799 14.3337 7.94796C14.8337 7.31601 15.1809 6.75351 15.3753 6.26046C15.5698 5.7674 15.667 5.27782 15.667 4.79171C15.667 3.95837 15.3892 3.26393 14.8337 2.70837C14.2781 2.15282 13.5837 1.87504 12.7503 1.87504C12.0975 1.87504 11.4934 2.05907 10.9378 2.42712C10.3823 2.79518 10.0003 3.26393 9.79199 3.83337H8.20866C8.00033 3.26393 7.61838 2.79518 7.06283 2.42712C6.50727 2.05907 5.9031 1.87504 5.25033 1.87504C4.41699 1.87504 3.72255 2.15282 3.16699 2.70837C2.61144 3.26393 2.33366 3.95837 2.33366 4.79171C2.33366 5.27782 2.43088 5.7674 2.62533 6.26046C2.81977 6.75351 3.16699 7.31601 3.66699 7.94796C4.16699 8.5799 4.84755 9.32296 5.70866 10.1771C6.56977 11.0313 7.66699 12.0556 9.00033 13.25Z" fill="#EA4035"/>
</svg>
