<svg width="20" height="20" viewBox="0 0 20 20" fill="none" xmlns="http://www.w3.org/2000/svg">
<g clip-path="url(#clip0_221_4622)">
<circle cx="10" cy="10" r="6" fill="white"/>
<path d="M19.1663 10L17.133 7.675L17.4163 4.6L14.408 3.91667L12.833 1.25L9.99968 2.46667L7.16634 1.25L5.59134 3.90833L2.58301 4.58333L2.86634 7.66667L0.833008 10L2.86634 12.325L2.58301 15.4083L5.59134 16.0917L7.16634 18.75L9.99968 17.525L12.833 18.7417L14.408 16.0833L17.4163 15.4L17.133 12.325L19.1663 10ZM8.40801 13.9333L5.24134 10.7583L6.47468 9.525L8.40801 11.4667L13.283 6.575L14.5163 7.80833L8.40801 13.9333Z" fill="#0179FF"/>
</g>
<defs>
<clipPath id="clip0_221_4622">
<rect width="20" height="20" fill="white"/>
</clipPath>
</defs>
</svg>
