<svg width="16" height="16" viewBox="0 0 16 16" fill="none" xmlns="http://www.w3.org/2000/svg">
<path fill-rule="evenodd" clip-rule="evenodd" d="M15.9949 7.59563C15.8884 3.38321 12.4166 0 8.14528 0C3.9229 0 0.480326 3.30556 0.298998 7.45048C0.293934 7.56477 0.290317 7.67882 0.290317 7.79408C0.290317 9.26614 0.702162 10.6427 1.41735 11.8177L0 16L4.34873 14.6181C5.47455 15.2359 6.76844 15.5879 8.14552 15.5879C12.4841 15.5879 16 12.0986 16 7.79432C15.9998 7.72753 15.9966 7.66219 15.9949 7.59563ZM11.4379 9.1056C11.2495 9.01357 10.3234 8.56896 10.1508 8.50846C9.97845 8.4475 9.85254 8.41643 9.72711 8.60002C9.60191 8.78408 9.24094 9.19762 9.13083 9.31956C9.02119 9.44241 8.91155 9.45818 8.72317 9.36615C8.53525 9.27458 7.92812 9.08033 7.20923 8.45445C6.6495 7.96765 6.27107 7.36681 6.16214 7.18275C6.05203 6.99916 6.15082 6.89995 6.24443 6.80839C6.32978 6.72609 6.43282 6.59373 6.52713 6.48687C6.55495 6.45581 6.57593 6.42706 6.5955 6.39878C6.64195 6.33086 6.67119 6.26712 6.71575 6.18065C6.7787 6.05803 6.74687 5.95093 6.69995 5.85844C6.65327 5.76664 6.27602 4.8626 6.11994 4.49495C5.96267 4.12707 5.80612 4.18896 5.69601 4.18896C5.5859 4.18896 5.46094 4.1739 5.33527 4.1739C5.20936 4.1739 5.00565 4.22003 4.83306 4.40385C4.66047 4.58767 4.17406 5.03158 4.17406 5.93517C4.17406 6.14843 4.21273 6.35984 4.27143 6.56058C4.46124 7.20941 4.87102 7.74141 4.94317 7.83483C5.03654 7.95653 6.24537 9.87195 8.15848 10.6075C10.0732 11.3425 10.0732 11.0975 10.4186 11.0667C10.7634 11.0361 11.5322 10.6228 11.6895 10.1932C11.8458 9.76462 11.8458 9.39628 11.7989 9.31956C11.751 9.24352 11.6261 9.19762 11.4379 9.1056Z" fill="#0179FF"/>
</svg>
