<svg width="18" height="16" viewBox="0 0 18 16" fill="none" xmlns="http://www.w3.org/2000/svg">
<path d="M12.7498 0.5C11.2998 0.5 9.90817 1.175 8.99984 2.24167C8.0915 1.175 6.69984 0.5 5.24984 0.5C2.68317 0.5 0.666504 2.51667 0.666504 5.08333C0.666504 8.23333 3.49984 10.8 7.7915 14.7L8.99984 15.7917L10.2082 14.6917C14.4998 10.8 17.3332 8.23333 17.3332 5.08333C17.3332 2.51667 15.3165 0.5 12.7498 0.5ZM9.08317 13.4583L8.99984 13.5417L8.9165 13.4583C4.94984 9.86666 2.33317 7.49167 2.33317 5.08333C2.33317 3.41667 3.58317 2.16667 5.24984 2.16667C6.53317 2.16667 7.78317 2.99167 8.22484 4.13333H9.78317C10.2165 2.99167 11.4665 2.16667 12.7498 2.16667C14.4165 2.16667 15.6665 3.41667 15.6665 5.08333C15.6665 7.49167 13.0498 9.86666 9.08317 13.4583Z" fill="#0179FF"/>
</svg>
